<svg xmlns="http://www.w3.org/2000/svg" viewBox="0 0 194.38 193"><defs><style>.a{stroke:#1d1d1b;stroke-width:2px;}.a,.b{stroke-miterlimit:10;}.b{stroke:#fff;}</style></defs><title>about</title><path class="a" d="M200,79a60,60,0,1,0,60,60A60,60,0,0,0,200,79Zm0,112.34A52.34,52.34,0,1,1,252.34,139,52.34,52.34,0,0,1,200,191.34Z" transform="translate(-102.81 -78)"/><path class="b" d="M200,223.66A93.3,93.3,0,0,1,281,270.5h15.44a107,107,0,0,0-192.78,0h15.44A93.3,93.3,0,0,1,200,223.66Z" transform="translate(-102.81 -78)"/></svg>