<?xml version="1.0" encoding="iso-8859-1"?>
<!-- Generator: Adobe Illustrator 16.0.0, SVG Export Plug-In . SVG Version: 6.00 Build 0)  -->
<!DOCTYPE svg PUBLIC "-//W3C//DTD SVG 1.1//EN" "http://www.w3.org/Graphics/SVG/1.1/DTD/svg11.dtd">
<svg version="1.1" id="Capa_1" xmlns="http://www.w3.org/2000/svg" xmlns:xlink="http://www.w3.org/1999/xlink" x="0px" y="0px"
	 width="26.475px" height="26.475px" viewBox="0 0 26.475 26.475" style="enable-background:new 0 0 26.475 26.475;"
	 xml:space="preserve">
<g>
	<path d="M26.013,24.042l-0.792-4.451c-0.211-1.192-1.347-2.364-2.531-2.614l-4.062-0.857l-0.83-1.699
		c-0.063-0.131-0.182-0.229-0.319-0.271c0.234-0.517,0.415-0.999,0.551-1.472c0.312-0.136,0.481-0.394,0.551-0.498
		c0.11-0.164,0.203-0.347,0.28-0.529c0.21-0.493,0.306-0.983,0.407-1.504c0.038-0.192,0.099-0.381,0.173-0.612l0.109-0.359
		c0.123-0.424,0.055-0.855-0.189-1.182c-0.046-0.062-0.1-0.119-0.16-0.175c0.264-1.375,0.12-2.69-0.428-3.913
		c-0.708-1.587-1.846-2.607-3.379-3.037c-0.562-0.158-1.142-0.273-1.725-0.347l-0.002-0.209l-0.188-0.01
		c-0.336-0.017-0.673-0.022-1.012-0.022l-0.37,0.002c-0.217,0.004-0.433,0.026-0.656,0.067L11.209,0l-0.908,0.589
		c-0.177,0.11-0.354,0.225-0.521,0.348C9.548,1.107,9.363,1.31,9.227,1.541c-0.47,0.119-0.904,0.355-1.324,0.72
		C7.844,2.312,7.791,2.369,7.719,2.453L7.211,3.076l0.181,0.183C7.217,3.656,7.17,4.035,7.254,4.295
		C7.01,5.416,7.048,6.56,7.375,7.882C7.187,8.066,7.07,8.312,7.029,8.611c-0.058,0.424-0.09,0.979,0.17,1.525
		c0.121,0.258,0.199,0.525,0.292,0.85l0.054,0.185c0.067,0.227,0.155,0.444,0.252,0.661c0.081,0.179,0.19,0.349,0.325,0.507
		c0.113,0.131,0.237,0.235,0.373,0.312c0.14,0.504,0.336,0.982,0.585,1.425l-0.001,0.059l-0.053,0.006l-0.028,0.008
		c-0.14,0.043-0.257,0.145-0.322,0.272l-0.83,1.698l-4.061,0.857c-1.186,0.25-2.322,1.422-2.532,2.613L0.46,24.043
		c-0.114,0.639,0.038,1.246,0.428,1.711c0.389,0.465,0.961,0.721,1.609,0.721h21.481c0.646,0,1.22-0.256,1.608-0.721
		S26.129,24.68,26.013,24.042z M17.68,16.585l0.003,0.006l-3.198,1.851l-0.585-1.199l3.199-1.85L17.68,16.585z M9.032,11.735
		c-0.017,0-0.053-0.021-0.104-0.082c-0.07-0.082-0.129-0.172-0.169-0.26c-0.077-0.17-0.148-0.346-0.201-0.523l-0.053-0.182
		c-0.097-0.332-0.197-0.674-0.352-1.002C8.012,9.387,8.035,9.047,8.075,8.754C8.091,8.635,8.098,8.58,8.411,8.553l0.247-0.02
		L8.586,8.297c-0.505-1.66-0.565-2.955-0.193-4.201L8.27,4.055c-0.007-0.23,0.16-0.627,0.524-1.002L8.723,2.951
		c0.33-0.254,0.67-0.398,1.035-0.439c0.117-0.012,0.26-0.104,0.295-0.232c0.053-0.199,0.168-0.36,0.351-0.494
		c0.137-0.102,0.279-0.19,0.423-0.282L10.893,1.6c0.423-0.162,0.807-0.248,1.169-0.262l0.107,0.147l0.197,0.002
		c0.932,0.014,1.854,0.146,2.743,0.396c1.231,0.344,2.114,1.146,2.696,2.448c0.534,1.191,0.609,2.439,0.232,3.812l-0.041,0.145
		l-0.035,0.188l0.176,0.061l0.182,0.012c0.062,0,0.146,0.014,0.193,0.078c0.044,0.059,0.052,0.147,0.021,0.254l-0.104,0.34
		c-0.075,0.238-0.15,0.479-0.21,0.777c-0.086,0.438-0.167,0.85-0.333,1.242c-0.052,0.123-0.112,0.243-0.188,0.356
		c-0.057,0.084-0.083,0.104-0.082,0.108c-0.009-0.002-0.046-0.014-0.146-0.08l-0.257-0.131l-0.082,0.398
		c-0.12,0.574-0.323,1.17-0.621,1.824c-0.116,0.258-0.168,0.547-0.156,0.885l-3.121,1.804l-3.118-1.804c0,0,0.016-0.383,0.019-0.559
		c0.003-0.121-0.031-0.254-0.092-0.367c-0.317-0.588-0.526-1.164-0.667-1.848l-0.192,0.059l0.185-0.076l-0.138-0.199L9.032,11.735z
		 M8.907,16.35l0.299-0.52l-0.05,0.012l0.22-0.451l3.199,1.852l-0.585,1.197l-3.199-1.85L8.907,16.35z M24.777,25.074
		c-0.187,0.223-0.471,0.346-0.8,0.346h-4.105v-2.357c0-0.293-0.236-0.527-0.527-0.527s-0.527,0.234-0.527,0.527v2.357H7.658v-2.357
		c0-0.293-0.237-0.527-0.528-0.527s-0.528,0.234-0.528,0.527v2.357H2.498c-0.33,0-0.614-0.123-0.8-0.346
		c-0.185-0.221-0.255-0.521-0.197-0.848l0.792-4.453c0.138-0.777,0.938-1.602,1.71-1.766l3.776-0.795l0.015,0.018l4.159,2.408
		c0.081,0.047,0.172,0.07,0.264,0.07l0.126-0.014l0.029-0.012c0.139-0.043,0.255-0.144,0.319-0.271l0.546-1.116l0.546,1.119
		c0.063,0.129,0.18,0.228,0.318,0.271l0.125,0.022h0.031c0.092,0,0.185-0.022,0.266-0.069l4.116-2.383
		c0.021-0.016,0.041-0.029,0.058-0.046l3.775,0.798c0.772,0.164,1.572,0.986,1.71,1.77l0.792,4.449
		C25.032,24.553,24.963,24.854,24.777,25.074z"/>
</g>
<g>
</g>
<g>
</g>
<g>
</g>
<g>
</g>
<g>
</g>
<g>
</g>
<g>
</g>
<g>
</g>
<g>
</g>
<g>
</g>
<g>
</g>
<g>
</g>
<g>
</g>
<g>
</g>
<g>
</g>
</svg>
