<?xml version="1.0" encoding="utf-8"?>
<!-- Generator: Adobe Illustrator 22.1.0, SVG Export Plug-In . SVG Version: 6.00 Build 0)  -->
<svg version="1.1" id="Layer_1" xmlns="http://www.w3.org/2000/svg" xmlns:xlink="http://www.w3.org/1999/xlink" x="0px" y="0px"
	 viewBox="0 0 96.8 96.8" style="enable-background:new 0 0 96.8 96.8;" xml:space="preserve">
<style type="text/css">
	.st0{fill:#1D1D1B;stroke:#FFFFFF;stroke-miterlimit:10;}
</style>
<title>an</title>
<g>
	<path class="st0" d="M67.2,63.9l-0.7-22.1c0-3.2-0.5-5.6-1.4-7.3c-1-1.6-2.7-2.5-5.2-2.5c-4.1,0-6.5,2.4-7.3,7.1l-9-1.1
		c0.4-3.8,2.5-7.2,5.5-9.4c3.1-2.2,6.9-3.3,11.4-3.3c4,0,7.3,0.8,9.7,2.4c2.4,1.6,3.9,3.5,4.6,5.8c0.6,2.2,0.9,5.6,0.9,10.1V59
		c0,6.2,0.3,10.4,0.8,12.4h-8.7C67.3,69,67.1,66.5,67.2,63.9"/>
	<path class="st0" d="M29.6,38.6l-9-1.1c0.4-3.8,2.5-7.2,5.5-9.4c3.1-2.2,6.9-3.3,11.4-3.3c4,0,7.3,0.8,9.7,2.4s3.9,3.6,4.5,5.8
		s0.9,5.6,0.9,10.1v15.3c0,6.2,0.3,10.4,0.8,12.4h-8.8c-0.5-2.5-0.7-5-0.6-7.5c-2.8,5.7-7,8.6-12.7,8.6c-3.8,0-6.8-1.2-9.1-3.5
		S18.9,63,18.9,59c0-4.9,1.7-8.8,5.1-11.7S33.2,43,41.5,43c0.4,0,1.1,0,2,0v-1.8c0-3.2-0.5-5.6-1.4-7.3c-1-1.6-2.7-2.5-5.2-2.5
		C32.8,31.5,30.3,33.9,29.6,38.6z M43.5,48.9c-1.2-0.1-2.1-0.2-2.7-0.2c-8.1,0-12.1,3.2-12.1,9.5c0,4.6,2,6.9,6,6.9
		c2.3,0,4.4-1.2,6.2-3.7s2.6-5.9,2.6-10.3L43.5,48.9z"/>
</g>
</svg>
