<svg xmlns="http://www.w3.org/2000/svg" viewBox="0 0 96.75 96.75"><defs><style>.a{fill:none;stroke:#1d1d1b;stroke-width:2px;}.a,.b{stroke-miterlimit:10;}.b{fill:#1d1d1b;stroke:#fff;}</style></defs><title>an</title><rect class="a" x="1" y="1" width="94.75" height="94.75"/><path class="b" d="M75.44,70.88l-1-29.67q0-6.47-1.94-9.76t-7-3.29q-8.16,0-9.78,9.46l-12-1.5a18,18,0,0,1,7.44-12.56q6.24-4.48,15.32-4.49,8.13,0,13,3.26t6.13,7.75q1.24,4.48,1.25,13.58V64.24q0,12.49,1.08,16.69H76.21a48.11,48.11,0,0,1-.77-10.05M54.62,64" transform="translate(-1.63 -1.63)"/><path class="b" d="M25,36.87l-12-1.5a18.05,18.05,0,0,1,7.44-12.56q6.24-4.48,15.32-4.49,8.13,0,13,3.26C52,23.76,54,26.34,54.83,29.33s1.26,7.52,1.26,13.58V63.49q0,12.51,1.07,16.69H45.38a47.28,47.28,0,0,1-.78-10.05q-5.67,11.55-17,11.55Q20,81.68,15.37,77T10.74,64.21q0-9.87,6.78-15.62T41,42.85c.55,0,1.43,0,2.62.06V40.46c0-4.31-.64-7.56-1.94-9.75s-3.6-3.29-6.94-3.29Q26.59,27.42,25,36.87ZM43.64,50.75q-2.39-.24-3.63-.24-16.23,0-16.23,12.74,0,9.27,8,9.27,4.71,0,8.26-5t3.55-13.82Z" transform="translate(-1.63 -1.63)"/></svg>