<svg id="Layer_1" data-name="Layer 1" xmlns="http://www.w3.org/2000/svg" viewBox="0 0 95.75 95.75"><defs><style>.cls-1{fill:#1d1d1b;stroke:#fff;stroke-miterlimit:10;}</style></defs><title>an-icon</title><rect class="cls-1" x="0.5" y="0.5" width="94.75" height="94.75"/><path class="cls-1" d="M72.32,68.39l-.84-26.13q0-5.7-1.71-8.59t-6.11-2.9q-7.2,0-8.62,8.33L44.45,37.78A16,16,0,0,1,51,26.71a22.57,22.57,0,0,1,13.5-3.95q7.16,0,11.44,2.87a12.26,12.26,0,0,1,5.39,6.83q1.11,3.95,1.11,12V62.54q0,11,1,14.7H73a41.47,41.47,0,0,1-.69-8.85M54,62.33" transform="translate(-2.13 -2.13)"/><path class="cls-1" d="M27.89,38.44,17.3,37.12a15.88,15.88,0,0,1,6.55-11.06,22.49,22.49,0,0,1,13.5-4q7.14,0,11.44,2.88a12.26,12.26,0,0,1,5.39,6.82q1.11,3.94,1.11,12V61.88q0,11,.94,14.7H45.85a42.29,42.29,0,0,1-.68-8.85q-5,10.17-14.94,10.17a14.48,14.48,0,0,1-10.8-4.14q-4.08-4.14-4.08-11.25,0-8.68,6-13.75T42,43.7c.49,0,1.27,0,2.32.06V41.6q0-5.7-1.71-8.59t-6.12-2.9Q29.32,30.11,27.89,38.44ZM44.33,50.66q-2.1-.21-3.21-.21-14.28,0-14.28,11.22,0,8.16,7.09,8.16c2.76,0,5.19-1.47,7.27-4.42s3.13-7,3.13-12.17Z" transform="translate(-2.13 -2.13)"/></svg>