<svg xmlns="http://www.w3.org/2000/svg" viewBox="0 0 65.13 73"><defs><style>.a{fill:#272525;}</style></defs><title>clickaway</title><path class="a" d="M28.33,17.25a2.9,2.9,0,0,0,2.9-2.9V3.9a2.91,2.91,0,0,0-5.81,0V14.35A2.91,2.91,0,0,0,28.33,17.25ZM27.17,3.9a1.16,1.16,0,1,1,2.32,0V14.35a1.16,1.16,0,0,1-2.32,0Z" transform="translate(-4.93 -1)"/><path class="a" d="M25.42,44.88a2.91,2.91,0,1,0,5.81,0V34.44a2.91,2.91,0,1,0-5.81,0Zm1.75-10.44a1.16,1.16,0,0,1,2.32,0V44.88a1.16,1.16,0,1,1-2.32,0Z" transform="translate(-4.93 -1)"/><path class="a" d="M42.81,7a2.88,2.88,0,0,0-2.05.85l-7.39,7.39a2.92,2.92,0,0,0-.84,2,2.9,2.9,0,0,0,4.95,2.05L44.87,12a2.91,2.91,0,0,0-2.06-5Zm-8.2,11.11a1.16,1.16,0,0,1,0-1.64L42,9.08a1.17,1.17,0,0,1,1.65,0A1.15,1.15,0,0,1,44,9.9a1.13,1.13,0,0,1-.34.82l-7.39,7.39A1.18,1.18,0,0,1,34.61,18.11Z" transform="translate(-4.93 -1)"/><path class="a" d="M24.13,31.49a2.91,2.91,0,0,0-5-2l-7.39,7.39a2.92,2.92,0,0,0-.85,2.05,2.91,2.91,0,0,0,5,2l7.39-7.38A2.93,2.93,0,0,0,24.13,31.49ZM22,32.32,14.66,39.7a1.18,1.18,0,0,1-1.64,0,1.14,1.14,0,0,1,0-1.64l7.38-7.39a1.2,1.2,0,0,1,.82-.34,1.17,1.17,0,0,1,.82.34,1.15,1.15,0,0,1,.34.82A1.17,1.17,0,0,1,22,32.32Z" transform="translate(-4.93 -1)"/><path class="a" d="M35.47,24.39a2.91,2.91,0,0,0,2.9,2.91H48.82a2.91,2.91,0,0,0,0-5.81H38.37A2.9,2.9,0,0,0,35.47,24.39Zm14.51,0a1.16,1.16,0,0,1-1.16,1.16H38.37a1.16,1.16,0,1,1,0-2.32H48.82A1.16,1.16,0,0,1,50,24.39Z" transform="translate(-4.93 -1)"/><path class="a" d="M7.84,27.3H18.28a2.91,2.91,0,1,0,0-5.81H7.84a2.91,2.91,0,1,0,0,5.81Zm0-4.07H18.28a1.16,1.16,0,0,1,0,2.32H7.84a1.16,1.16,0,1,1,0-2.32Z" transform="translate(-4.93 -1)"/><path class="a" d="M19.17,19.34a2.91,2.91,0,0,0,5-2.05,2.92,2.92,0,0,0-.85-2L15.89,7.85A2.91,2.91,0,0,0,11.78,12ZM13,9.08a1.17,1.17,0,0,1,.82-.34,1.2,1.2,0,0,1,.82.34L22,16.47a1.16,1.16,0,0,1,0,1.64,1.18,1.18,0,0,1-1.64,0L13,10.72a1.14,1.14,0,0,1-.35-.82A1.16,1.16,0,0,1,13,9.08Z" transform="translate(-4.93 -1)"/><path class="a" d="M69.89,45A1.19,1.19,0,0,0,69.2,44l-34-14.7a1.18,1.18,0,0,0-1.16.14,1.17,1.17,0,0,0-.45,1.07l4.66,36.74a1.16,1.16,0,0,0,1.85.79l8.51-6.4,8.91,11.87a1.17,1.17,0,0,0,.93.46,1.22,1.22,0,0,0,.7-.23L69.6,65.91a1.17,1.17,0,0,0,.46-.76,1.14,1.14,0,0,0-.23-.86L60.92,52.42,69.43,46A1.17,1.17,0,0,0,69.89,45ZM58.6,51.26a1.14,1.14,0,0,0-.45.77,1.12,1.12,0,0,0,.22.86l8.91,11.86-8.6,6.46L49.77,59.35a1.17,1.17,0,0,0-.93-.46,1.13,1.13,0,0,0-.7.23L40.3,65,36.15,32.27l30.29,13.1Z" transform="translate(-4.93 -1)"/></svg>