<svg xmlns="http://www.w3.org/2000/svg" viewBox="0 0 66.48 72.59"><defs><style>.a{fill:#272525;}</style></defs><title>coop</title><path class="a" d="M44.52,25.13l-6.73,5-6.73-5A.78.78,0,0,0,30,26.24l7,5.33v5.26a.79.79,0,0,0,1.57,0V31.59l7.07-5.35a.78.78,0,0,0,0-1.11A.8.8,0,0,0,44.52,25.13Z" transform="translate(-4.26 -1.2)"/><path class="a" d="M9.57,4a9.48,9.48,0,0,0,6.7,16.18h0a9.49,9.49,0,1,0,0-19A9.39,9.39,0,0,0,9.57,4Zm13.68,6.7a7,7,0,0,1-7,7h0a7,7,0,1,1,7-7Z" transform="translate(-4.26 -1.2)"/><path class="a" d="M5.51,34.69H27a1.24,1.24,0,0,0,1.25-1.21c0-.34.22-8.35-4.82-13a1.25,1.25,0,0,0-1.61-.07c-.05,0-5.62,4.23-10.8,0a1.27,1.27,0,0,0-1.62,0c-.2.18-5,4.49-5.17,12.94a1.19,1.19,0,0,0,.36.89A1.27,1.27,0,0,0,5.51,34.69Zm4.89-11.6a11.24,11.24,0,0,0,12,0C25,26,25.6,30.13,25.74,32.17H6.83A15.78,15.78,0,0,1,10.4,23.09Z" transform="translate(-4.26 -1.2)"/><path class="a" d="M58.73,20.17h0a9.49,9.49,0,0,0,0-19,9.49,9.49,0,1,0,0,19ZM53.8,5.76a7,7,0,1,1,9.85,9.86,6.88,6.88,0,0,1-4.92,2h0A7,7,0,0,1,53.8,5.76Z" transform="translate(-4.26 -1.2)"/><path class="a" d="M70.74,33.47c0-.34.21-8.35-4.82-13a1.27,1.27,0,0,0-1.62-.07s-5.62,4.23-10.8,0a1.25,1.25,0,0,0-1.61,0c-.21.18-5.06,4.49-5.18,12.94A1.26,1.26,0,0,0,48,34.69H69.48A1.25,1.25,0,0,0,70.74,33.47ZM49.28,32.18a15.92,15.92,0,0,1,3.57-9.09,11.25,11.25,0,0,0,12.06,0c2.55,2.89,3.14,7.07,3.28,9.11Z" transform="translate(-4.26 -1.2)"/><path class="a" d="M37.79,40.31a9.49,9.49,0,0,0,0,19h0a9.49,9.49,0,1,0,0-19Zm4.93,14.41a6.93,6.93,0,0,1-4.93,2.05h0a7,7,0,1,1,4.93-2.05Z" transform="translate(-4.26 -1.2)"/><path class="a" d="M27,73.8H48.55a1.25,1.25,0,0,0,1.25-1.21c0-.34.22-8.35-4.82-13a1.26,1.26,0,0,0-1.61-.07c-.06,0-5.62,4.23-10.8,0a1.27,1.27,0,0,0-1.62,0c-.2.18-5.05,4.49-5.17,12.94a1.21,1.21,0,0,0,.36.9A1.25,1.25,0,0,0,27,73.8Zm4.89-11.61c4.52,3,9.38,1.58,12,0,2.55,2.88,3.15,7.07,3.29,9.11H28.35A15.81,15.81,0,0,1,31.92,62.19Z" transform="translate(-4.26 -1.2)"/></svg>