<?xml version="1.0" encoding="iso-8859-1"?>
<!-- Generator: Adobe Illustrator 19.0.0, SVG Export Plug-In . SVG Version: 6.00 Build 0)  -->
<svg version="1.1" id="Layer_1" xmlns="http://www.w3.org/2000/svg" xmlns:xlink="http://www.w3.org/1999/xlink" x="0px" y="0px"
	 viewBox="0 0 455 455" style="enable-background:new 0 0 455 455;" xml:space="preserve">
<path style="fill-rule:evenodd;clip-rule:evenodd;" d="M0,0v455h455V0H0z M161.682,342.682C97.509,342.682,46.5,291.672,46.5,227.5
	s51.009-115.182,115.182-115.182c31.264,0,57.591,11.518,77.336,31.264L207.754,173.2c-8.227-8.227-23.036-18.1-46.073-18.1
	c-39.49,0-70.754,32.909-70.754,72.4s31.264,72.4,70.754,72.4c46.073,0,62.527-32.909,65.818-49.364h-65.818v-39.491h108.6
	c1.646,6.582,1.646,11.518,1.646,19.746C271.928,296.609,227.5,342.682,161.682,342.682z M408.5,243.955h-32.909v32.909h-32.91
	v-32.909h-32.909v-32.909h32.909v-32.909h32.91v32.909H408.5V243.955z"/>
<g>
</g>
<g>
</g>
<g>
</g>
<g>
</g>
<g>
</g>
<g>
</g>
<g>
</g>
<g>
</g>
<g>
</g>
<g>
</g>
<g>
</g>
<g>
</g>
<g>
</g>
<g>
</g>
<g>
</g>
</svg>
