<svg xmlns="http://www.w3.org/2000/svg" viewBox="0 0 58.5 74.96"><defs><style>.a{fill:#272525;}</style></defs><title>learn</title><path class="a" d="M9.68,35.53a1.37,1.37,0,0,0-1.46,1.16,1.38,1.38,0,0,0,1.06,1.54,65.2,65.2,0,0,0,13.81,1.6C42.8,39.83,53,28.55,60.25,16.58l4.39,2.63a1.37,1.37,0,0,0,2-1.4L63.87,1.14a1.39,1.39,0,0,0-.69-1A1.35,1.35,0,0,0,62,.11L47.06,6.44a1.38,1.38,0,0,0-.83,1.22A1.36,1.36,0,0,0,47,8.92l4.5,2.2C39.5,37.55,10.91,35.63,9.68,35.53ZM54.53,11a1.37,1.37,0,0,0-.66-1.76l-3-1.45L61.46,3.3l2,12-3-1.81a1.35,1.35,0,0,0-1-.15,1.36,1.36,0,0,0-.84.63C51.29,26.44,41.71,37.5,22.19,37.1,32.73,34.86,47.13,28.53,54.53,11Z" transform="translate(-8.21)"/><path class="a" d="M14.06,53c-2.63,0-4.7,2.58-4.7,5.86V69.1c0,3.29,2.07,5.86,4.7,5.86H20.5c2.63,0,4.7-2.57,4.7-5.86V58.82c0-3.28-2.07-5.86-4.7-5.86Zm8.41,5.86V69.1c0,1.67-.92,3.13-2,3.13H14.06c-1,0-2-1.46-2-3.13V58.82c0-1.66.93-3.13,2-3.13H20.5C21.55,55.69,22.47,57.16,22.47,58.82Z" transform="translate(-8.21)"/><path class="a" d="M33.51,43.32c-2.64,0-4.71,2.58-4.71,5.87V69.1c0,3.29,2.07,5.86,4.71,5.86h6.43c2.64,0,4.7-2.57,4.7-5.86V49.19c0-3.29-2.06-5.87-4.7-5.87Zm8.4,5.87V69.1c0,1.67-.92,3.13-2,3.13H33.51c-1,0-2-1.46-2-3.13V49.19c0-1.67.93-3.13,2-3.13h6.43C41,46.06,41.91,47.52,41.91,49.19Z" transform="translate(-8.21)"/><path class="a" d="M61.3,31.77H54.87c-2.64,0-4.71,2.57-4.71,5.86V69.1c0,3.29,2.07,5.86,4.71,5.86H61.3c2.63,0,4.7-2.57,4.7-5.86V37.63C66,34.34,63.93,31.77,61.3,31.77Zm2,37.33c0,1.67-.92,3.13-2,3.13H54.87c-1,0-2-1.46-2-3.13V37.63c0-1.67.92-3.13,2-3.13H61.3c1.05,0,2,1.46,2,3.13Z" transform="translate(-8.21)"/></svg>