<?xml version="1.0"?>
<svg xmlns="http://www.w3.org/2000/svg" id="Icons" viewBox="0 0 74 74" width="512" height="512"><path d="M41.016,72A5.022,5.022,0,0,1,36,66.984V46.208a1,1,0,0,1,2,0V66.984a3.016,3.016,0,0,0,6.033,0V30.6a1,1,0,0,1,2,0V66.984A5.022,5.022,0,0,1,41.016,72Z"/><path d="M32.984,72a5.022,5.022,0,0,1-5.017-5.016V30.6a1,1,0,0,1,2,0V66.984a3.016,3.016,0,0,0,6.033,0V46.208a1,1,0,0,1,2,0V66.984A5.022,5.022,0,0,1,32.984,72Z"/><path d="M47.833,49.608a3.8,3.8,0,0,1-3.8-3.8V30.6a1,1,0,0,1,2,0v15.2a1.8,1.8,0,1,0,3.6,0V27.245a5.116,5.116,0,0,0-5.11-5.11H29.477a5.116,5.116,0,0,0-5.11,5.11V45.808a1.8,1.8,0,1,0,3.6,0V30.6a1,1,0,0,1,2,0v15.2a3.8,3.8,0,1,1-7.6,0V27.245a7.118,7.118,0,0,1,7.11-7.11H44.523a7.118,7.118,0,0,1,7.11,7.11V45.808A3.805,3.805,0,0,1,47.833,49.608Z"/><path d="M37,17.728a7.864,7.864,0,1,1,7.864-7.864A7.873,7.873,0,0,1,37,17.728ZM37,4a5.864,5.864,0,1,0,5.864,5.864A5.87,5.87,0,0,0,37,4Z"/></svg>
