<svg xmlns="http://www.w3.org/2000/svg" viewBox="0 0 73 48.95"><defs><style>.a{fill:#272525;}</style></defs><title>organized</title><path class="a" d="M38.18,30.11v0h9.33a.93.93,0,0,0,.93-.93V14a.93.93,0,0,0-.93-.93h-20a.93.93,0,0,0-.93.93V29.21a.93.93,0,0,0,.93.93h9.33v0Zm-9.76-1.84V14.89H46.58V28.27Z" transform="translate(-1 -13.03)"/><path class="a" d="M22.88,61V45.79a.93.93,0,0,0-.93-.93h-20a.93.93,0,0,0-.93.93V61a.93.93,0,0,0,.93.93H22A.92.92,0,0,0,22.88,61ZM21,60.11H2.86V46.73H21Z" transform="translate(-1 -13.03)"/><path class="a" d="M27.49,44.86a.93.93,0,0,0-.93.93V61a.93.93,0,0,0,.93.93h20a.93.93,0,0,0,.93-.93V45.79a.93.93,0,0,0-.93-.93ZM46.58,60.11H28.42V46.73H46.58Z" transform="translate(-1 -13.03)"/><path class="a" d="M53.05,44.86a.93.93,0,0,0-.93.93V61a.92.92,0,0,0,.93.93h20A.93.93,0,0,0,74,61V45.79a.93.93,0,0,0-.93-.93ZM72.14,60.11H54V46.73H72.14Z" transform="translate(-1 -13.03)"/><polygon class="a" points="11.49 30.54 12.84 30.54 12.84 25.46 35.82 25.46 35.82 30.54 37.18 30.54 37.18 25.46 60.16 25.46 60.16 30.54 61.51 30.54 61.51 24.1 37.18 24.1 37.18 17.11 37.18 17.08 35.82 17.08 35.82 17.11 35.82 24.1 11.49 24.1 11.49 30.54"/></svg>