<svg xmlns="http://www.w3.org/2000/svg" viewBox="0 0 64.75 71.27"><defs><style>.a{fill:#272525;}</style></defs><title>tea</title><path class="a" d="M30.3,43.09v21c-9,.19-13.57,1.71-13.57,4.51,0,3,5.23,4.53,15.56,4.53s15.56-1.52,15.56-4.53c0-2.81-4.58-4.32-13.61-4.51V44L50.33,27.91a13.55,13.55,0,0,0,5.86,1.34A13.69,13.69,0,1,0,42.52,15.13H7.09A2,2,0,0,0,5.7,18.49ZM56.19,5.81a9.75,9.75,0,1,1,0,19.5,9.46,9.46,0,0,1-2.83-.43l6.4-6.39a2,2,0,0,0-1.4-3.36H46.46A9.74,9.74,0,0,1,56.19,5.81ZM53.61,19.06,32.73,39.94,11.85,19.06ZM32.29,69.2a54.4,54.4,0,0,1-8.52-.6A54.61,54.61,0,0,1,32.29,68a54.71,54.71,0,0,1,8.52.59A54.5,54.5,0,0,1,32.29,69.2Z" transform="translate(-5.12 -1.87)"/></svg>