<?xml version="1.0" encoding="utf-8"?>
<!-- Generator: Adobe Illustrator 22.1.0, SVG Export Plug-In . SVG Version: 6.00 Build 0)  -->
<svg version="1.1" id="Layer_1" xmlns="http://www.w3.org/2000/svg" xmlns:xlink="http://www.w3.org/1999/xlink" x="0px" y="0px"
	 viewBox="0 0 400 400" style="enable-background:new 0 0 400 400;" xml:space="preserve">
<style type="text/css">
	.st0{fill:#0170BA;}
	.st1{fill:#29A9DF;}
	.st2{fill:#CFCFCF;}
	.st3{fill:#FFFFFF;}
</style>
<g id="_x23_000000ff">
	<path d="M115.4,3.1C132.7,2.9,150,3.1,167.3,3c0,5.4,0.1,10.8-0.1,16.2c-12-0.1-24,0-35.9,0.1c-0.1,7.9-0.2,15.7-0.2,23.6
		c12,0.1,24.1,0.2,36.1,0.1c0.1,4.4,0.1,8.9,0,13.4c-17.3-0.1-34.5-0.1-51.8,0C115.5,38.6,115.5,20.9,115.4,3.1z"/>
	<path d="M173.5,3.1c17.5,0,35-0.1,52.6,0.1c-0.1,5.1,0,10.2,0,15.3c-12.7,0-25.5,0-38.2,0.2c0,2,0,4,0,6
		c12.7,0.2,25.5,0.2,38.2,0.3c0,10.5,0,21,0.1,31.4c-17.5,0-35.1,0-52.6,0.1c-0.1-4.2-0.1-8.5,0-12.7c12.1,0,24.3,0,36.4,0
		c0.1-2.7,0.1-5.5,0.1-8.2c-12.2,0-24.4,0-36.6,0C173.4,24.7,173.4,13.9,173.5,3.1z"/>
	<path d="M231.9,3.1c17.5,0,35,0,52.5,0c0.1,5.1,0.1,10.3,0,15.4c-12.8,0-25.6,0.1-38.4,0.1c0,2.1,0.1,4.2,0.2,6.3
		c12.7-0.1,25.5,0.1,38.2,0.2c0.1,10.4,0.2,20.9,0,31.3c-17.5,0-35.1,0-52.6,0c-0.1-4.2-0.1-8.5,0-12.7c12.1,0.1,24.2,0.1,36.4,0
		c0-2.7,0.1-5.5,0.1-8.2c-12.2,0.1-24.3,0-36.5,0C231.8,24.8,231.8,14,231.9,3.1z"/>
</g>
<g id="_x23_0170baff">
	<path class="st0" d="M59.1,78.5c93.9,0,187.7,0,281.6,0c-5.2,58.4-10.2,116.8-15.6,175.1c-3.2,37.3-6.5,74.6-10,111.9
		c-20,5.3-39.9,11.4-59.9,16.7c-18.4,5.4-36.9,10.3-55.3,15.6h-0.5c-17.5-5.2-35.2-9.8-52.7-15c-20.7-5.6-41.1-11.8-61.8-17.3
		c-2.7-27.9-5.1-55.9-7.5-83.9c-4.5-51.7-9.4-103.3-13.8-154.9C62,111.2,60.9,95.6,59.1,80V78.5 M200.3,101.5
		c-0.2,11.2,0.1,22.4-0.2,33.6c-32.2-0.1-64.4,0-96.6,0c0.6,10.9,2,21.7,3.5,32.5c30,1.1,60,0,89.9,0.9
		c-26.2,11.8-52.7,22.8-79.1,34.3c-2.3,1-4.7,1.8-6.7,3.2c0.2,12,2.2,23.8,3,35.8c16-0.1,31.9-0.3,47.9-0.3
		c12.8-0.1,25.6,0.2,38.4-0.1c-0.6,19.7,0.2,39.3-0.4,59c-8.6-1.3-17.1-3.2-25.7-4.7c-6.8-1.5-13.7-2.2-20.4-4.2
		c-0.9-9.4-1.6-18.9-2.4-28.3c-1.9-0.6-4-0.5-6-0.6c-9.7,0.1-19.4,0-29,0.1c0.9,18.2,2.6,36.3,5.4,54.3c9.5,2.5,19.1,4.9,28.6,7.5
		c14.6,4,29.4,7.3,44,11.2c1.7,0.4,3.5,1,5.3,0.9c1,11.9,0.2,24,0.4,35.9c3.4-0.5,6.7-1.4,9.9-2.4c27.7-7.5,55.3-15.2,83-22.8
		c1.4-10.9,2-21.8,3.1-32.7c2.9-33.1,5.8-66.3,8.8-99.4c3.5-37.9,6.6-75.8,10.2-113.7C276.9,101.5,238.6,101.4,200.3,101.5z"/>
</g>
<g id="_x23_29a9dfff">
	<path class="st1" d="M200.3,101.5c38.3-0.1,76.6,0,114.8,0c-3.6,37.9-6.6,75.8-10.2,113.7c-3,33.1-5.9,66.3-8.8,99.4
		c-1.1,10.9-1.7,21.9-3.1,32.7c-27.7,7.6-55.3,15.2-83,22.8c-3.3,1-6.6,1.8-9.9,2.4c-0.2-12,0.6-24-0.4-35.9c0.2,0,0.7-0.1,1-0.2
		c25.7-6.5,51.3-13.6,77-20.3c3.2-36.4,6.8-72.8,9.1-109.3c-21.8,0.1-43.7,0-65.5,0.1c-3.2,0-6.4,0-9.5-0.2
		c11.7-6,24.1-10.8,36.2-16.2c11.6-5.2,23.3-10.2,34.9-15.3c2.2-1,4.6-1.9,6.6-3.4c0.8-2.8,0.7-5.8,1-8.7c0.7-9.2,1.9-18.4,2.3-27.6
		c-30.9-0.2-61.8,0-92.8-0.2C200.5,124,200.1,112.8,200.3,101.5z"/>
	<path class="st1" d="M200.5,241.5c14.9-0.3,29.9,0.1,44.8,0c-0.8,15.3-2.1,30.5-2.9,45.8c-9.2,3-18.4,5.5-27.7,8.3
		c-4.9,1.5-10,2.7-14.6,4.9C200.7,280.8,199.9,261.1,200.5,241.5z"/>
</g>
<g id="_x23_cfcfcfff">
	<path class="st2" d="M103.5,135.2c32.2,0,64.4-0.1,96.6,0c0.4,35.4-0.1,70.9,0.4,106.3c-12.8,0.3-25.6,0-38.4,0.1
		c-16,0-31.9,0.3-47.9,0.3c-0.8-11.9-2.8-23.8-3-35.8c2-1.5,4.4-2.2,6.7-3.2c26.3-11.5,52.9-22.6,79.1-34.3c-30-0.9-60,0.3-89.9-0.9
		C105.5,156.9,104.1,146.1,103.5,135.2z"/>
	<path class="st2" d="M116.6,262.8c9.7-0.1,19.4-0.1,29-0.1c2,0,4,0,6,0.6c0.8,9.4,1.5,18.9,2.4,28.3c6.7,1.9,13.6,2.7,20.4,4.2
		c8.6,1.5,17.1,3.4,25.7,4.7c0.8,12-0.6,24,0.8,35.9c-0.2,0-0.7,0.1-1,0.2c-1.8,0.1-3.6-0.5-5.3-0.9c-14.6-3.9-29.4-7.2-44-11.2
		c-9.5-2.6-19.1-5-28.6-7.5C119.1,299,117.5,280.9,116.6,262.8z"/>
</g>
<g id="_x23_ffffffff">
	<path class="st3" d="M200.1,135.2c30.9,0.2,61.9,0,92.8,0.2c-0.4,9.2-1.6,18.4-2.3,27.6c-0.3,2.9-0.3,5.9-1,8.7
		c-2,1.5-4.4,2.4-6.6,3.4c-11.6,5.1-23.3,10.1-34.9,15.3c-12.1,5.4-24.4,10.2-36.2,16.2c3.2,0.2,6.3,0.2,9.5,0.2
		c21.8-0.1,43.7,0,65.5-0.1c-2.3,36.5-5.9,72.9-9.1,109.3c-25.7,6.7-51.2,13.8-77,20.3c-1.4-11.9,0.1-24-0.8-35.9
		c4.7-2.2,9.7-3.4,14.6-4.9c9.2-2.8,18.5-5.3,27.7-8.3c0.8-15.3,2.1-30.5,2.9-45.8c-14.9,0.1-29.9-0.3-44.8,0
		C200,206,200.5,170.6,200.1,135.2z"/>
</g>
</svg>
