<svg xmlns="http://www.w3.org/2000/svg" xmlns:xlink="http://www.w3.org/1999/xlink" viewBox="0 0 545.66 479.61"><defs><style>.a{isolation:isolate;}.an,.b,.c{fill:#733c19;}.am,.ar,.au,.av,.c{opacity:0.4;}.am,.an,.at,.au,.av,.c{mix-blend-mode:multiply;}.d{fill:#6f9740;}.e{fill:#416123;}.f{fill:#98c239;}.g{fill:url(#a);}.h{fill:url(#b);}.i{fill:url(#c);}.j{fill:url(#d);}.k{fill:url(#e);}.l{fill:url(#f);}.m{fill:url(#g);}.n{fill:url(#h);}.o{fill:url(#i);}.p{fill:url(#j);}.q{fill:url(#k);}.r{fill:url(#l);}.s{fill:url(#m);}.t{fill:url(#n);}.u{fill:url(#o);}.v{fill:url(#p);}.w{fill:url(#q);}.x{fill:url(#r);}.y{fill:url(#s);}.z{fill:url(#t);}.aa{fill:url(#u);}.ab{fill:url(#v);}.ac{fill:url(#w);}.ad{fill:url(#x);}.ae{fill:url(#y);}.af{fill:url(#z);}.ag{fill:url(#aa);}.ah{fill:url(#ab);}.ai{fill:url(#ac);}.aj{fill:url(#ad);}.ak{fill:url(#ae);}.al{fill:url(#af);}.an,.at{opacity:0.3;}.ao,.aq,.ar{fill:#dc8034;}.ao,.ap{opacity:0.5;}.ao,.ap,.ar{mix-blend-mode:screen;}.as{fill:#b7d333;}.at,.av{fill:#386b36;}.au{fill:#2d5d2b;}</style><radialGradient id="a" cx="882.67" cy="853.67" r="122.77" gradientTransform="matrix(0.69, 0.54, -0.68, 0.72, 578.95, -777.17)" gradientUnits="userSpaceOnUse"><stop offset="0" stop-color="#818998"/><stop offset="0.08" stop-color="#817d84"/><stop offset="0.4" stop-color="#83533a"/><stop offset="0.54" stop-color="#84421d"/><stop offset="1" stop-color="#581b0b"/></radialGradient><radialGradient id="b" cx="882.65" cy="853.69" r="122.73" xlink:href="#a"/><radialGradient id="c" cx="882.67" cy="853.67" r="122.77" xlink:href="#a"/><radialGradient id="d" cx="882.65" cy="853.71" r="122.73" xlink:href="#a"/><radialGradient id="e" cx="882.65" cy="853.71" r="122.74" xlink:href="#a"/><radialGradient id="f" cx="882.68" cy="856.77" r="121.86" xlink:href="#a"/><radialGradient id="g" cx="882.67" cy="850.42" r="123.51" xlink:href="#a"/><radialGradient id="h" cx="882.62" cy="852.03" r="123.01" xlink:href="#a"/><radialGradient id="i" cx="882.64" cy="853.64" r="122.78" xlink:href="#a"/><radialGradient id="j" cx="882.66" cy="853.6" r="122.79" xlink:href="#a"/><radialGradient id="k" cx="882.63" cy="851.35" r="122.98" xlink:href="#a"/><radialGradient id="l" cx="882.55" cy="853.65" r="122.76" xlink:href="#a"/><radialGradient id="m" cx="882.74" cy="853.65" r="122.81" xlink:href="#a"/><radialGradient id="n" cx="882.69" cy="853.99" r="122.69" xlink:href="#a"/><radialGradient id="o" cx="882.67" cy="853.73" r="122.77" xlink:href="#a"/><radialGradient id="p" cx="882.69" cy="853.63" r="122.8" xlink:href="#a"/><radialGradient id="q" cx="882.68" cy="853.64" r="122.8" xlink:href="#a"/><radialGradient id="r" cx="882.67" cy="852.89" r="123.13" xlink:href="#a"/><radialGradient id="s" cx="882.67" cy="853.62" r="122.81" xlink:href="#a"/><radialGradient id="t" cx="882.68" cy="852.5" r="122.94" xlink:href="#a"/><radialGradient id="u" cx="882.68" cy="850.04" r="123.2" xlink:href="#a"/><radialGradient id="v" cx="882.67" cy="853.79" r="122.78" xlink:href="#a"/><radialGradient id="w" cx="882.83" cy="853.66" r="122.84" xlink:href="#a"/><radialGradient id="x" cx="882.4" cy="853.97" r="122.69" xlink:href="#a"/><radialGradient id="y" cx="882.57" cy="854.31" r="122.71" xlink:href="#a"/><radialGradient id="z" cx="882.55" cy="853.29" r="122.8" xlink:href="#a"/><radialGradient id="aa" cx="882.56" cy="853.68" r="122.76" xlink:href="#a"/><radialGradient id="ab" cx="882.69" cy="853.04" r="122.89" xlink:href="#a"/><radialGradient id="ac" cx="882.59" cy="853.58" r="122.77" xlink:href="#a"/><radialGradient id="ad" cx="882.68" cy="852.76" r="122.99" xlink:href="#a"/><radialGradient id="ae" cx="882.67" cy="853.62" r="122.81" xlink:href="#a"/><radialGradient id="af" cx="882.65" cy="853.72" r="122.71" xlink:href="#a"/></defs><title>background</title><g class="a"><path class="b" d="M490.21,359.19c-.12,1.69-.29,3.4-.43,5.12-.37,4.84-.6,9.68-1,14.51-.81,9.47-2.22,19-1.63,28.5.61,9.88,5.2,17.94,7.78,27.33,1.67,6.07,2.79,12.32,4.16,18.49-.33,3.37-.87,6.68-1.18,10.06-.41,4.34.09,9.91,4,12.75s10.85,1.88,15.41,1.94c7.29.09,14.66.3,22,.65,9.25.44,18.64,1.34,27.91,1,6.68-.25,14.3.44,20.8-1.26,5.9-1.55,6.81-5.31,5.56-9.56-.57-4-3.46-8.36-5.3-11.12-6.7-10-12.72-19-15.42-31-1.28-5.69-2.6-11.39-3.58-17.15C568.3,404,568,398.33,566.37,393c-2.67-9-7.4-16.62-13.5-23.74-3.94-4.61-7.78-9.31-11.83-13.82-4.68-5.23-6.13-10.76-8.54-17.13-4.08-10.83-6.47-21.62-9.25-32.79C520.88,296,519,288.6,511.54,281.8c-1.81-1.64-3.74-3.27-5.73-4.86-4.88-6.16-12.38-10.51-19.25-13.72-1.93-.91-5.55-2.9-5.53.85,0,5.95,2,11.73,2.33,17.68a380.69,380.69,0,0,1-.42,41C482.19,336,486.17,346.81,490.21,359.19Z" transform="translate(-48.35 0)"/><path class="c" d="M490.21,359.19c-.12,1.69-.29,3.4-.43,5.12-.37,4.84-.6,9.68-1,14.51-.81,9.47-2.22,19-1.63,28.5.61,9.88,5.2,17.94,7.78,27.33,1.67,6.07,2.79,12.32,4.16,18.49-.33,3.37-.87,6.68-1.18,10.06-.41,4.34.09,9.91,4,12.75s10.85,1.88,15.41,1.94c7.29.09,14.66.3,22,.65,9.25.44,18.64,1.34,27.91,1,6.68-.25,14.3.44,20.8-1.26,5.9-1.55,6.81-5.31,5.56-9.56-.57-4-3.46-8.36-5.3-11.12-6.7-10-12.72-19-15.42-31-1.13-5-2.26-10-3.19-15-.73,3-1.57,6-2.35,9-4.33,16.52.09,34.54,2.15,51.12.13,1-1.37,1.27-1.85.5a56.84,56.84,0,0,1-8-19.11c-1.71-8.35-2.77-15.95-6.57-23.73a115.32,115.32,0,0,0-11.1-18.11c-3.49-4.67-7.71-9.19-9.7-14.78-2.41-6.72-1.52-13.94-1.07-20.94a137.2,137.2,0,0,0-1-25.06c-.92-8-1-16.08-1.95-24.09a51.27,51.27,0,0,0-1-5.44c-1.33-5.07-2.55-10.19-3.84-15.38C520.88,296,519,288.6,511.54,281.8c-1.81-1.64-3.74-3.27-5.73-4.86-4.88-6.16-12.38-10.51-19.25-13.72-1.93-.91-5.55-2.9-5.53.85,0,5.95,2,11.73,2.33,17.68a380.69,380.69,0,0,1-.42,41C482.19,336,486.17,346.81,490.21,359.19ZM515.38,379c.92-1.94,3.15-4.57,5.63-3.88,5.82,1.62,8.3,10.71,8.49,15.94a.92.92,0,0,1-.15.53c1.74,11.49,12.25,20.73,17.25,30.85,6,12.08,7.4,25.77,9.21,38.94.17,1.23-1.63,1.82-1.92.53-3-13.68-10.25-25.6-17.9-37.14-3.92-5.91-7.86-11.81-12.08-17.5-3.83-5.16-6.89-9.64-8.9-15.78C513.59,387.13,513.43,383.1,515.38,379Z" transform="translate(-48.35 0)"/><path class="c" d="M482.94,322.71a380.69,380.69,0,0,0,.42-41c-.31-5.95-2.31-11.73-2.33-17.68,0-3.75,3.6-1.76,5.53-.85,1.26.59,2.55,1.23,3.84,1.9,4.21,13.48,8.19,27.18,8.58,41.32.46,17.09-2.31,34.13-1.23,51.23.24,3.63.27,7.57,1.17,11.13,1.1,4.38,5.56,7.73,3.85,12.36-2.45,6.62-5.12,13.71-4.06,20.73,2.11,14,8.94,26.07,13.43,39.18.47,1.76,3.9,5.93,3.55,4.68-.46-1.64-1-3.27-1.54-4.88a80.48,80.48,0,0,1-2.4-27.57c1.42,6.28,2.87,12.63,5.67,18.4,3.09,6.35,7.48,11.59,12.33,16.65,8,8.42,19.72,18.54,21,30.85-3.85-.22-7.7-.48-11.52-.66-7.29-.35-14.66-.56-22-.65-4.56-.06-11.48.92-15.41-1.94s-4.41-8.41-4-12.75c.31-3.38.85-6.69,1.18-10.06-1.37-6.17-2.49-12.42-4.16-18.49-2.58-9.39-7.17-17.45-7.78-27.33-.59-9.53.82-19,1.63-28.5.41-4.83.64-9.67,1-14.51.14-1.72.31-3.43.43-5.12C486.17,346.81,482.19,336,482.94,322.71Z" transform="translate(-48.35 0)"/><path class="c" d="M522.53,455.52c-2.67-4.21-5.47-7.81-7.49-11.93-.29-.91-.58-1.82-.89-2.72a75.43,75.43,0,0,1-2.54-16.13c-.07-3.44,0-6.89.08-10.33,0-.37,0-.74.06-1.11,1.42,6.28,2.87,12.63,5.67,18.4,3.09,6.35,7.48,11.59,12.33,16.65,8,8.42,19.72,18.54,21,30.85-3.85-.22-7.7-.48-11.52-.66-2.53-.12-5.07-.21-7.61-.29C530.42,470.17,526.81,462.29,522.53,455.52Z" transform="translate(-48.35 0)"/><path class="d" d="M229.51,180.27c-1.53,2-2.31,5.16-2.64,8.24a57.3,57.3,0,0,0-.1,9.64c.37,5.81,1.2,11.83-.2,17.67-1.53,6.38-3.6,12.82-4.16,19.37a99.34,99.34,0,0,0,.29,20.18,39.29,39.29,0,0,0,.91,4.67c.35,1.55.71,3.11.94,4.68a61,61,0,0,1,.57,10.37,36.69,36.69,0,0,1-.4,4.79c-.28,1.59-.62,3.17-1,4.74-.76,3.15-1.65,6.27-2.38,9.39a97.19,97.19,0,0,0-1.79,9.95,49.54,49.54,0,0,0-.16,10.05c.26,3.22.54,6.44.9,9.67s.74,6.49.88,9.73c.23,4.66.73,9.33-.22,13.93-.49,2.43-1,4.85-1.61,7.25s-.7,4.7-1.74,6.93c0,.12-.65.28-.57.08,1.18-3.05.49-6.61.95-9.78a52.05,52.05,0,0,0,.61-10.14c-.2-3.26-.64-6.52-1.1-9.77s-1-6.5-1.34-9.73-.55-6.21-.74-9.29a44.39,44.39,0,0,1,.34-9.21c1.06-6.5,2.89-12.87,4.43-19.36.38-1.66.7-3.34.92-5s.24-3.4.25-5.1a53.23,53.23,0,0,0-1-10.16A83.12,83.12,0,0,1,219,244.81a85.3,85.3,0,0,1,3.2-19.84c1.75-6.23,3.11-12.44,2.74-18.74-.26-4.55-.81-9.17-.75-13.79a29.23,29.23,0,0,1,.8-6.81,12.21,12.21,0,0,1,3-5.83C228.21,179.56,229.69,180,229.51,180.27Z" transform="translate(-48.35 0)"/><path class="e" d="M221.61,248.37c.6,4.07,2.67,7.89,3.26,11.95.33,2.48,1,4.92,1.27,7.43a66.36,66.36,0,0,1,.27,9,35.46,35.46,0,0,1-1.15,7.43c-.59,2.45-1.31,4.88-2,7.31a53.21,53.21,0,0,1-3.13,8,59.87,59.87,0,0,0-3.33,7.89,19.49,19.49,0,0,0-.85,6.51,41.32,41.32,0,0,0,.75,6.61c.88,4.8,1.87,9.63,2.51,14.48.62,4.48-.69,8.82-.93,13.28-.12,2.31.29,4.63.15,6.95a23.1,23.1,0,0,1-.49,3.09,14.47,14.47,0,0,0-.64,2.8c0,.25-1,.66-1.14.36-.64-1.22-.31-2.87-.24-4.09a31,31,0,0,0-.33-7c-.4-2.47.23-5.12.59-7.51.28-2.07.88-4.27.4-6.39-.53-2.27-.85-4.55-1.18-6.84s-.7-4.57-1.19-6.84a26,26,0,0,1,.15-12.91,73,73,0,0,1,2.89-7.37c1.07-2.45,2.2-4.89,3.09-7.39s1.28-5,2-7.45a46.14,46.14,0,0,0,1.73-8.47,67.43,67.43,0,0,0-.83-15.35c-.68-5.1-1.81-10.13-2.23-15.22C221,248.48,221.58,248.22,221.61,248.37Z" transform="translate(-48.35 0)"/><path class="e" d="M228.19,181.72a29.62,29.62,0,0,0-.87,8.68,28.36,28.36,0,0,1,0,3.57,22.64,22.64,0,0,0,1.07,4.86c.66,2.75-.24,5.6-.32,8.38a25.32,25.32,0,0,1-1.68,9.25A66.69,66.69,0,0,0,223,226c-.76,3.44-1.83,7-2.28,10.46-.42,3.09-1.54,6.23-1.05,9.34s-1.37,6.19-.58,9.3c0,.06-.2.19-.25.11-1.59-2.64-.36-5.44-.49-8.21a39.67,39.67,0,0,1,.7-8.74,93.16,93.16,0,0,1,5-19.82,26.75,26.75,0,0,0,2.23-9.81c.05-3.09.66-6.15.48-9.21s-.63-6.07-.78-9.15.19-6.16,1.63-8.58C227.66,181.55,228.22,181.57,228.19,181.72Z" transform="translate(-48.35 0)"/><path class="f" d="M222.48,265.93a.33.33,0,0,0,.11.15c.46,3.74.52,7.5,1.19,11.24-.1,1.84-.36,3.66-.58,5.49s-.38,3.64-.41,5.47a44.76,44.76,0,0,1-1.11,8.15,62.51,62.51,0,0,0-1.4,8.11c-.2,3,.31,6,.22,9,0,1.52.29,3,.13,4.54a13.4,13.4,0,0,0-.24,4.14c0,.07-.27.2-.31.1a7.35,7.35,0,0,1-.5-3.19,40.77,40.77,0,0,0-.33-4.55,71.52,71.52,0,0,1-.41-8.77,30,30,0,0,1,1.09-8.24,33.62,33.62,0,0,0,1.24-8.62c0-2.82.35-5.64.62-8.45a47.21,47.21,0,0,0,0-8.49c-.11-1.08-.28-2.15-.47-3.22a41.74,41.74,0,0,0-.76-5.51c-.19-1-.38-2.05-.58-3.07A31.94,31.94,0,0,1,222.48,265.93Z" transform="translate(-48.35 0)"/><path class="f" d="M226,182.87a9.4,9.4,0,0,1-.36,1.41l-.4,1.4a9.6,9.6,0,0,0-.54,2.88,27.8,27.8,0,0,0,.06,2.88c.06,1,.09,1.92.2,2.88.2,1.91.05,3.79.37,5.71a46,46,0,0,1,.67,6.6c0,2,.09,4,0,6a32.9,32.9,0,0,1-.64,6.05c-.35,1.72,0,3.44-.2,5.19a32.61,32.61,0,0,1-.72,3.34c-.31,1.17-1.23,2.29-1,3.52,0,.06-.23.18-.25.11-.55-1.44.42-3.18.6-4.65a38.65,38.65,0,0,0,.08-5.89c-.06-2.08.58-4.16.59-6.25,0-2.29-.08-4.55-.14-6.84,0-4.1-1.06-8.27-1.07-12.42a28.14,28.14,0,0,1,2.14-12C225.47,182.77,226,182.72,226,182.87Z" transform="translate(-48.35 0)"/><path class="d" d="M439.43,226.54a16.44,16.44,0,0,0-3.11,7.51,54.36,54.36,0,0,0-.8,8.61c-.12,5.19.19,10.58-.58,15.81a167.93,167.93,0,0,0-2.14,17.27,145.47,145.47,0,0,0,.31,18c.11,1.4.31,2.78.51,4.16s.36,2.77.48,4.17c.25,3,.32,6.15.29,9.2,0,1.43-.07,2.85-.2,4.26s-.37,2.82-.59,4.22c-.46,2.77-.93,5.63-1.38,8.37-.21,1.52-.42,3-.62,4.44s-.41,3-.57,4.43a80.25,80.25,0,0,0-.44,8.94c0,2.8,0,5.66,0,8.55s.07,5.72-.08,8.57a76.91,76.91,0,0,1-1,12.29c-.42,2.15-.85,4.3-1.34,6.44a52.2,52.2,0,0,1-1.47,6.14c0,.11-.36.28-.3.1.88-2.71.81-5.82,1.28-8.62a75,75,0,0,0,1-8.95c.1-2.88.08-5.75.06-8.6s-.19-5.73-.17-8.59.05-5.58.07-8.23a73.4,73.4,0,0,1,.5-8.22c.83-5.8,1.78-11.51,2.7-17.3.22-1.48.42-3,.55-4.48s.12-3,.12-4.55a82.16,82.16,0,0,0-.49-9,139.43,139.43,0,0,1-.85-17.12,122.07,122.07,0,0,1,1.53-17.64,102.13,102.13,0,0,0,1.61-16.72c0-4.06-.09-8.17.29-12.25a28.29,28.29,0,0,1,.41-3c.1-.5.2-1,.29-1.5s.28-1,.42-1.47a12.42,12.42,0,0,1,2.84-5.22C438.75,226.22,439.63,226.28,439.43,226.54Z" transform="translate(-48.35 0)"/><path class="e" d="M432.49,287.47c.33,3.62,1.43,7,1.76,10.65.17,2.2.52,4.38.65,6.6.14,2.66.19,5.34.13,8a43,43,0,0,1-.65,6.61c-.35,2.17-.76,4.33-1.15,6.51a63.72,63.72,0,0,1-1.74,7.12c-.72,2.33-1.44,4.66-2,7.07a31.36,31.36,0,0,0-.66,5.81c-.05,1.93-.05,3.86.06,5.85.19,4.24.48,8.49.47,12.76.05,3.93-.88,7.81-1.34,11.75-.24,2-.18,4.06-.45,6.1-.11.92-.31,1.83-.5,2.73-.14.73-.51,1.78-.56,2.49,0,.2-.57.61-.62.36a12.46,12.46,0,0,1,.23-3.58,42,42,0,0,0,.38-6.13,39.4,39.4,0,0,1,.84-6.65,27.84,27.84,0,0,0,.6-5.66c-.13-2-.13-4-.17-6s-.12-4-.26-6a44.21,44.21,0,0,1,.67-11.48c.49-2.24,1.09-4.44,1.72-6.63s1.29-4.38,1.76-6.61.74-4.45,1.17-6.66a70.07,70.07,0,0,0,1-7.54,107.06,107.06,0,0,0-.43-13.65c-.32-4.53-1-9-1.25-13.55C432.2,287.56,432.47,287.33,432.49,287.47Z" transform="translate(-48.35 0)"/><path class="e" d="M438.19,228a24.3,24.3,0,0,0-1.84,7.74c-.05,1-.18,2.15-.29,3.2a31.11,31.11,0,0,0,.24,4.32,19.65,19.65,0,0,1-.11,3.75c-.12,1.26-.28,2.53-.35,3.78a41.92,41.92,0,0,1-1,8.28c-.67,2.8-1.35,5.58-1.75,8.47-.37,3.06-.92,6.22-1.12,9.31-.19,2.75-.74,5.53-.46,8.3s-.63,5.51-.2,8.27c0,.06-.1.17-.12.1-.83-2.35-.24-4.84-.33-7.3a59.46,59.46,0,0,1,.29-7.78,124.66,124.66,0,0,1,2.5-17.64,43.85,43.85,0,0,0,1.26-8.77c.1-2.76.5-5.51.55-8.24s0-5.42.22-8.14a17.41,17.41,0,0,1,2.18-7.63C437.92,227.91,438.24,227.85,438.19,228Z" transform="translate(-48.35 0)"/><path class="f" d="M433.06,303.09a.46.46,0,0,0,.05.14c.24,3.33.27,6.67.61,10,0,1.63-.2,3.25-.35,4.87s-.26,3.25-.31,4.87a67.34,67.34,0,0,1-.72,7.26c-.29,2.41-.8,4.79-1,7.23-.21,2.66-.06,5.31-.22,8-.06,1.35,0,2.66-.14,4a20.87,20.87,0,0,0-.32,3.68c0,.07-.15.18-.17.1a10.63,10.63,0,0,1-.08-2.82c.07-1.36.07-2.66.05-4-.05-2.58,0-5.19.11-7.78a48.66,48.66,0,0,1,.84-7.34,53.3,53.3,0,0,0,.79-7.69c.07-2.52.28-5,.47-7.53a65.57,65.57,0,0,0,0-7.55c-.05-1-.13-1.92-.24-2.87,0-1.65-.22-3.31-.38-4.91-.09-.9-.19-1.82-.29-2.74A45.17,45.17,0,0,1,433.06,303.09Z" transform="translate(-48.35 0)"/><path class="f" d="M436.69,229.2c-.25.84-.61,1.62-.86,2.47l-.39,1.25c-.1.43-.17.86-.24,1.3a48,48,0,0,0-.36,5.09c0,1.69-.21,3.36-.12,5.07,0,1.93.17,3.93.1,5.88a102.72,102.72,0,0,1-.5,10.8c-.19,1.54,0,3.07-.13,4.63-.08,1-.23,2-.37,3a12.94,12.94,0,0,0-.5,3.14c0,.06-.11.17-.12.1-.28-1.28.2-2.84.29-4.14.13-1.79.08-3.48.07-5.25s.33-3.71.36-5.57q0-3,.06-6.1c.11-3.66-.3-7.35,0-11a29.06,29.06,0,0,1,2.42-10.56C436.41,229.16,436.74,229.06,436.69,229.2Z" transform="translate(-48.35 0)"/><path class="d" d="M349.8,175.33a19.65,19.65,0,0,1,.85,2.13c.25.69.43,1.34.61,2s.35,1.29.53,1.92.33,1.27.48,1.89c.62,2.4,1.26,4.88,1.92,7.41,1.14,4.38,2.27,8.91,1,13.3-1.34,4.78-3.44,9.47-4.08,14.24a58.34,58.34,0,0,0-.24,14.7c.25,2.3,1.22,4.57,1.67,6.84a32.75,32.75,0,0,1,.51,7.45,35.22,35.22,0,0,1-1.17,6.89c-.6,2.3-1.33,4.6-1.89,6.91a29.44,29.44,0,0,0-.17,14.65c1.26,4.6,3,9.11,4.48,13.63,1.07,3.25,2.22,6.45,2.28,9.8,0,1.78-.05,3.56-.09,5.34s.35,3.4-.09,5.1c0,.09-.56.34-.54.19.4-2.3-1.07-4.63-1.28-6.93a31.11,31.11,0,0,0-1.39-7.23c-1.53-4.54-4-9-5.49-13.6-1.51-4.44-2.84-8.86-2.53-13.47.28-4.86,2-9.69,3.16-14.48a29.59,29.59,0,0,0,.66-3.7,28.39,28.39,0,0,0-.61-11.16,41.21,41.21,0,0,1-.88-14A54,54,0,0,1,351,210.75c1.73-4.53,2.94-9.17,2.15-13.84-.57-3.36-1.62-6.74-2.48-10.09-.44-1.68-.81-3.35-1.14-5s-.53-3.38-.91-5.28C348.59,176.26,349.64,175,349.8,175.33Z" transform="translate(-48.35 0)"/><path class="e" d="M350,227.78c.5,3,2.4,5.84,2.88,8.81.32,1.79,1,3.56,1.23,5.35a34,34,0,0,1,.21,6.45c-.22,3.6-1.4,7.11-2.54,10.7-1.28,4-4.05,7.91-5.18,12-.94,3.34-.06,6.43,1.42,9.57,1.56,3.38,3.11,6.76,4.63,10,1.39,3.07.79,6.36,1.51,9.53.36,1.64,1.18,3.19,1.59,4.81a12,12,0,0,1,.22,2.23,6.66,6.66,0,0,0,0,2.05c.07.15-.8.67-1,.51-.92-.67-1-1.89-1.2-2.76a20.19,20.19,0,0,0-1.83-4.83c-.88-1.66-.81-3.66-.93-5.43-.08-1.52.14-3.19-.71-4.62-1.84-3.08-2.86-6.36-4.45-9.53-1.49-2.94-2.37-6.34-1.45-9.48,1.11-3.84,3-7.55,4.63-11.3.78-1.82,1-3.7,1.65-5.52a27.2,27.2,0,0,0,1.32-6.18c.92-7.4-2-14.78-2.59-22.22C349.47,227.85,350,227.67,350,227.78Z" transform="translate(-48.35 0)"/><path class="e" d="M350.25,177.49c1.48,2.34,1.9,4.82,3,7.11a16.32,16.32,0,0,1,.81,2.78,19.35,19.35,0,0,0,1.81,3.61c1,2.07.35,4.35.49,6.46a13.51,13.51,0,0,1-1.3,7,50.56,50.56,0,0,0-3.24,7c-.79,2.52-1.85,5.08-2.38,7.6-.46,2.24-1.65,4.49-1.25,6.76s-1.55,4.45-.87,6.73c0,0-.21.13-.25.07-1.5-2-.17-4-.23-6a22.45,22.45,0,0,1,.9-6.32,66.26,66.26,0,0,1,5-14.43,14.06,14.06,0,0,0,1.86-7.34c-.14-2.31.25-4.66-.32-7a59.26,59.26,0,0,0-2.39-6.8,40.74,40.74,0,0,1-2.16-7C349.75,177.75,350.17,177.37,350.25,177.49Z" transform="translate(-48.35 0)"/><path class="f" d="M350.5,240.58a.24.24,0,0,0,.1.1c.45,2.72.49,5.45,1.13,8.15a51.74,51.74,0,0,0-.55,7.95c.2,4-1.58,7.94-1.37,11.94.09,2.18.9,4.3,1.1,6.46.1,1.09.63,2.13.68,3.23a7.11,7.11,0,0,0,.35,3s-.25.18-.31.11a4.35,4.35,0,0,1-.93-2.23,29.45,29.45,0,0,0-.92-3.23,37.27,37.27,0,0,1-1.28-6.32,15.19,15.19,0,0,1,.3-6.07,18.28,18.28,0,0,0,.8-6.35,53.16,53.16,0,0,1,.18-6.18,30.29,30.29,0,0,0,0-6.17,23.73,23.73,0,0,0-.45-2.35,22.24,22.24,0,0,0-.73-4c-.18-.75-.37-1.51-.55-2.27A22.61,22.61,0,0,1,350.5,240.58Z" transform="translate(-48.35 0)"/><path class="f" d="M349.23,179.54c.69,1.41.47,3,1,4.37l1.57,4.15c.51,1.38.66,2.81,1.17,4.2a20.45,20.45,0,0,1,1.28,4.88c.3,3,.64,6-.12,9-.33,1.28.08,2.54-.15,3.83a15.83,15.83,0,0,1-.71,2.45c-.32.86-1.24,1.68-1,2.57,0,0-.23.13-.25.08-.54-1,.44-2.32.62-3.4a18.92,18.92,0,0,0,0-4.32c-.06-1.52.49-3.06.45-4.61s-.29-3.35-.45-5c-.33-3.05-1.69-6-2.42-9a64.93,64.93,0,0,1-1.5-8.87C348.72,179.75,349.18,179.43,349.23,179.54Z" transform="translate(-48.35 0)"/><path class="b" d="M90.6,176.71c2.28.11,26.4-1.41,32.08-2.79s21.09,12.28,25.68,15.44,25.52,1.64,28.25,1.27,9.58,1.26,14.07-4.37,10.83-6.88,17-8.74,5.21-2.58.63-4.07-20-14.73-23.65-15.91-13.4,2-17.48,3.77-9.78,1.1-16.68-3.85-7.11-4.71-11-4-4.33-.06-6.16-1.9,2.48-1.38,4.28-2.46,3-.6,6.14-.6S158,156.67,162.09,157s18.16-4.5,21.54-7.24,7.07,1.35,12.35,4.21,11.73,10,19.07,14.86,19,7.32,27.87,7.19,11.21,5,16.5,8.28,9.24,10.93,14.77,17.31a47.44,47.44,0,0,0,18.38,13.06c6.86,2.86,26.74,7.55,29.93,8.37s8,1.26-.26-3.09-7.65-10.93-16.42-20.65-1.72-10-5.41-13.32-1.88-6-5.57-9.31-2.61-8.66-7.86-9.86-24.91-7.37-29.25-8.67-5.71-.71-11.42-3.1-5.51-4.28-7.15-6.8-3.26-5.84-4.17-7-9.12-.47-13.92-2.56a24.59,24.59,0,0,0-6.7-1.6h25.25c.14.41.25.77.33,1,.48,1.19,3.47,4.35,4.39,5.06s3.92,3.46,5.49,2.62,0,0,1.78-4a6,6,0,0,0,.09-4.67h4.83l.27,1.26c.49,2,1,5.73.3,8.09s.74,1.82.74,1.82a13.16,13.16,0,0,0,5.49,2.21c3.42.59,5.51,3,8.21,1.84s2.74.06,5-2.34c1.25-1.33-.29-7.49-2-12.88h8.92s0,0,0,0c.69.52,4.9,9.6,6.26,9.42s8.67,1.36,9.59,2.07,3,1.49,4.09-.54c.53-1,2.58-5.39,4.85-11h8.63c-1.2,3.39-.61,6.48-1.85,11.75-1.73,7.35-.79,10.16,2.43,13.09s6.54,14.2,7.26,16.41,4,2.71,4,2.71,9.87-2.25,13.92-6.13,7.33-13.75,8.21-16.8,9.25-8.14,15.54-14.41a85.06,85.06,0,0,1,7.67-6.62h7.42c-4.41,3-8.61,6.07-8,6.31,1.15.46,15.27,1.11,15.27,1.11a4.17,4.17,0,0,1-3.6,3.41c-3.19.42-11.38-.17-15-.1s-9.68,7.78-9.68,7.78c-6.32,5.44-8.88,19.18-7.08,18.1s19.15,1.65,23.92.81,12.23-5,17.89-7.61,11.67-14.12,15.71-18.83,10.13-9.93,12.41-9.41-3.11,5.87-7.39,9.58-6.73,8-9.2,11.9-4.26,4.54-6.51,6.93,3,1.49,7.78,2.32,9.09-.79,12.29,0,5,.6-2.49,2.63-23.86,2.55-26.84,2.73-10.65,3.3-14.95,4.92-14.79.49-22.29,1.28S334.4,190,333.27,191.21s-3.56,6.75-.1,9.44,8.75,9.31,12.9,13.36,13,4.36,17.58,4.59,16.39-.92,22.1.63,34.1-4.95,42.49-7.95,12.25-3.71,19.25,3.66,16.94,14.16,22.91,18,8.51,8.28,14.13,20.11,24.27,30.09,31,37.78,6.56,15.46,4.82,22,.16,13.82,2.07,20.26,5.81,29.38,5.81,29.38c3.28,6.69,1,22.7,1,22.7a26.55,26.55,0,0,0,1.18,11.11l-1.56-.17c-2.79-.45-4.74-.75-6-.93s-2.75-.45-4.13-.66c-8.48-1.24-16.95-2.44-25.44-3.53a9.66,9.66,0,0,1-1.8-4.16c-.28-3.52-.68-18.75.59-26s-9.81-20.48-14.68-27.58-6.21-23.9-8.11-29.92S457,275.94,457,274.7s-.29-5.2-6.49-10-17.77-18.8-20.09-22.69-6.4-3.34-17.11-2.12-17.74,1.51-27.55-.33-13.67-.69-18.62,3.32-12,2.22-18.43,1.81-21.84,2.47-39.39.41-19.9-8.46-32.55-18.3S263.17,212,260.63,209.23,247,194.5,243.57,191.38s-26-2.85-26-2.85a87.37,87.37,0,0,1-6.76,7.17c-2.95,2.67-2.59,7.5-4.15,10.85s1.72,10.87,2.25,15.83,7.6,7.57,4.21,9.07-7.37-6.14-7.83-6.92-5.09-6.44-4.45-10.08,2.42-7.24-4.4-6.34-13.74,12.51-16.84,15.06-5.49,1.52-1-3.68,8.29-10.94,13.94-13.58,6.83-1.32,9.32-6.42,4.66-6.32,4.83-9.91-9.5,6.29-13.78,7.91-13.16,4.68-20.18,7.49-5.23.49-10.5-2.79-6.86-2.44-9.62-3.75-21.62.56-28,3.5-11.8,2.4-17.53-.4-11.4-1.83-9.16-4.65,12.3.46,16.66.92,13.6-2.63,19.28-4.85,9.31-.6,5.63-3.89-4.62-5.25-7.13-5.54a22.64,22.64,0,0,1-8.9-2.8c-2.76-1.73-22.1-.21-28-.26S88.33,176.59,90.6,176.71Z" transform="translate(-48.35 0)"/><path class="b" d="M526.71,395.83c-3-.35-9.58-1.56-4-.71,2,.3,4,.6,5.92.92Z" transform="translate(-48.35 0)"/><path class="c" d="M342.72,210.52c-2.84-3.1-5.84-6.53-8.24-8.74,2,2,3,3.94,4.59,6.4A6.54,6.54,0,0,0,342.72,210.52Z" transform="translate(-48.35 0)"/><path class="c" d="M276.52,150c1.25-1.33-.29-7.49-2-12.88h6.1c2.49,5.76,2.3,12.09,5.26,17-2.78-.82-5.57-1.65-8.29-2.65-.61-.25-1.23-.45-1.85-.65C276,150.53,276.21,150.28,276.52,150Z" transform="translate(-48.35 0)"/><path class="c" d="M289.65,146.51a13.38,13.38,0,0,0,4.05,6.11,21.77,21.77,0,0,0,2.29-5.09,29.94,29.94,0,0,0-6.3-1Z" transform="translate(-48.35 0)"/><path class="c" d="M342.64,174.9c4-3.89,7.33-13.75,8.21-16.8s9.25-8.14,15.54-14.41a85.06,85.06,0,0,1,7.67-6.62h7.42c-4.41,3-8.61,6.07-8,6.31,1.15.46,15.27,1.11,15.27,1.11a4.17,4.17,0,0,1-3.6,3.41c-3.19.42-11.38-.17-15-.1s-9.68,7.78-9.68,7.78c-5,4.32-7.67,13.87-7.64,17.08-.29.31-.6.61-.88.92-4.3,4.83-9.39,5-14.62,8.12-1.85,1.09-6.41,4.69-7.66,2.41-.63-1.14-1.22-2.2-1.68-3.26a5.09,5.09,0,0,0,.8.18S338.59,178.78,342.64,174.9Z" transform="translate(-48.35 0)"/><path class="c" d="M375.08,175.09c8,.53,18.43-5.47,25.07-10.21a67.65,67.65,0,0,0,7.39-6.17c2.19-3.5,4.55-7.22,8.32-10.49,4.28-3.71,9.68-9,7.39-9.58s-8.37,4.68-12.41,9.41-10,16.2-15.71,18.83-13.12,6.77-17.89,7.61c-3,.53-10.95-.35-16.89-.81l-1.93,2C363.44,174,368.3,174.63,375.08,175.09Z" transform="translate(-48.35 0)"/><path class="c" d="M303.37,148.06c.53-1,2.58-5.39,4.85-11h6.92c-.32.67-.65,1.34-1,2-2.11,4.31-8.3,18.93-15.89,17.66a27.72,27.72,0,0,0,3.81-7.51A2.38,2.38,0,0,0,303.37,148.06Z" transform="translate(-48.35 0)"/><path class="c" d="M232.57,137.07c.48.16,1,.3,1.48.49,7.79,3,12.42,11.17,19.75,15.09,2.66,1.42,6.6,1.78,9.62,2.28a111.34,111.34,0,0,1,16.21,4C291,162.51,299,165.56,306.8,174c2,2.2,16.18,13.41,15.19,15.59-2.07,4.62-2.31,7.5,1.3,11.21,2.91,3,6.67,5.33,8.89,8.89,1.37,2.23,2.49,5.84,5.56,6.69a39.1,39.1,0,0,0,15.21.94,36.79,36.79,0,0,0,4.71.8c-4.66,2.73-11.44,1.85-16.15,2.4-5.25.6-9.73,2.43-15.07,1.73l-.42-.09a26.88,26.88,0,0,0-3.78-2.29c-8.26-4.35-7.65-10.93-16.42-20.65s-1.72-10-5.41-13.32-1.88-6-5.57-9.31-2.61-8.66-7.86-9.86-24.91-7.37-29.25-8.67-5.71-.71-11.42-3.1-5.51-4.28-7.15-6.8-3.26-5.84-4.17-7-9.12-.47-13.92-2.56a24.59,24.59,0,0,0-6.7-1.6Z" transform="translate(-48.35 0)"/><path class="c" d="M251.7,137.07h4.83l.27,1.26a19.05,19.05,0,0,1,.34,7.87,23.08,23.08,0,0,1-6-3.43c.12-.3.27-.64.43-1A6,6,0,0,0,251.7,137.07Z" transform="translate(-48.35 0)"/><path class="g" d="M500.51,321.89c-8.61-21.2-31.26-37.91-46.86-54.35C470,282.85,493.17,300.37,500.51,321.89Z" transform="translate(-48.35 0)"/><path class="h" d="M496.62,326c11.94,14.43,34.56,25.08,33.32,46.77C529.77,351.48,507.58,341.35,496.62,326Z" transform="translate(-48.35 0)"/><path class="i" d="M501.87,349.36c-12.84-10.68-26-23.92-31.29-39.87C477.15,325,490,337.6,501.87,349.36Z" transform="translate(-48.35 0)"/><path class="j" d="M516.51,394.15a261.75,261.75,0,0,0-26-40.82A147.91,147.91,0,0,1,517,394.22Z" transform="translate(-48.35 0)"/><path class="k" d="M493.44,316.39c-7.78-17.32-28.75-24-36.43-41.69C465.81,291.34,487,298.52,493.44,316.39Z" transform="translate(-48.35 0)"/><path class="l" d="M472.59,263.62C455.27,236.5,430.47,224,393.64,229,430.76,222.64,456.34,235.56,472.59,263.62Z" transform="translate(-48.35 0)"/><path class="m" d="M455.27,259.18c-7.75-7.67-16.43-15.47-27.31-19.47C439.36,242.38,448.75,250.72,455.27,259.18Z" transform="translate(-48.35 0)"/><path class="n" d="M452.9,227c11.81,4.12,24,11.34,29.66,22C475.57,239.06,464.13,232.37,452.9,227Z" transform="translate(-48.35 0)"/><path class="o" d="M438.65,215.86c-10-1-17.74,1.86-27.45,4.73-8.63,2.53-18.39.45-26.14-1.9,7.95,1.78,16.8,3,25.35,1.24C420.6,217.79,428.17,214,438.65,215.86Z" transform="translate(-48.35 0)"/><path class="p" d="M357,221.05c-10.05-.31-20.25-.06-30.4,2.4C336.4,219.77,347.35,219.43,357,221.05Z" transform="translate(-48.35 0)"/><path class="q" d="M318.69,191.26c-7.34-10-17.18-18.87-29.56-23.55C302.11,171.08,312.66,180.5,318.69,191.26Z" transform="translate(-48.35 0)"/><path class="r" d="M252.27,151.56c-9.92,0-10.37-11.4-19.25-10.93C241.27,138.76,244.22,150.28,252.27,151.56Z" transform="translate(-48.35 0)"/><path class="s" d="M186.67,190c13.15-2.46,21.84-11,35.65-10.24,11.44.76,26.29-5.57,34.73,2.83-8.79-7.79-23.47-1.28-34.92-1.94C208.68,179.76,199.63,188.18,186.67,190Z" transform="translate(-48.35 0)"/><path class="t" d="M270.25,204.71c9.16,17,31.43,21.45,50.86,24.43,16.77,3,34.76-3.45,51.66-1.39-15.31-1.37-31.34,4.06-46.7,2.85C305.1,229,279.23,223.05,270.25,204.71Z" transform="translate(-48.35 0)"/><path class="u" d="M366.09,234.85c-24.5,13.84-67.23,11.87-85.16-4.68C299.39,245.68,341.41,247.68,366.09,234.85Z" transform="translate(-48.35 0)"/><path class="v" d="M350.45,236.89c22.42-6.6,42.84,2.62,65.21-2.27C393.43,240.77,372.8,231.61,350.45,236.89Z" transform="translate(-48.35 0)"/><path class="w" d="M480.26,267.72c15.26,12.22,36.14,29.36,39.39,49.71C515.24,297.48,494.71,280.92,480.26,267.72Z" transform="translate(-48.35 0)"/><path class="x" d="M513,288c-9.55-10.23-19.55-20.2-31.33-28.29C494.27,266.55,504.69,276.92,513,288Z" transform="translate(-48.35 0)"/><path class="y" d="M509.49,393.15c-2.06-7.44-3-15.11-6-22.79,3.35,7.31,4,15.28,6.24,22.82Z" transform="translate(-48.35 0)"/><path class="z" d="M340.23,214.72c-16.3-3.83-31.94-13.24-38.81-27.51C309.48,200.71,324.51,209.71,340.23,214.72Z" transform="translate(-48.35 0)"/><path class="aa" d="M332.77,206.25c-14.2-5.45-27.56-14.73-35-27.24C306.44,190.75,319.24,199.58,332.77,206.25Z" transform="translate(-48.35 0)"/><path class="ab" d="M316.91,165.65c-12.25-10.16-31.78-7.59-46.93-13C285.38,156.77,305.68,154.53,316.91,165.65Z" transform="translate(-48.35 0)"/><path class="ac" d="M314,137.07A61.78,61.78,0,0,1,307.07,152a97.78,97.78,0,0,0,6-14.89Z" transform="translate(-48.35 0)"/><path class="ad" d="M279.7,137.07a27.42,27.42,0,0,1,2,9.52,34.55,34.55,0,0,0-2.92-9.52Z" transform="translate(-48.35 0)"/><path class="ae" d="M201.61,163.18a36.8,36.8,0,0,0-21.41-5.72C188.26,156,196.41,158.11,201.61,163.18Z" transform="translate(-48.35 0)"/><path class="af" d="M173.21,201c-8.4-7.68-20.6-9.75-32.74-9.71C152.6,189.93,166,192.32,173.21,201Z" transform="translate(-48.35 0)"/><path class="ag" d="M230.19,183c-6.6-.06-20-1-23.54,6.62C209.16,181.07,223.78,181.87,230.19,183Z" transform="translate(-48.35 0)"/><path class="ah" d="M264.82,207.72c10.27,10.62,25,17,40.92,18.66C289.52,226,274,219.29,264.82,207.72Z" transform="translate(-48.35 0)"/><path class="ai" d="M357.4,231.82c-9.73,3.48-20.66,2.91-28.84-1.43A52.77,52.77,0,0,0,357.4,231.82Z" transform="translate(-48.35 0)"/><path class="aj" d="M447.77,235.7a54.42,54.42,0,0,1,28.61,26.1A76.54,76.54,0,0,0,447.77,235.7Z" transform="translate(-48.35 0)"/><path class="ak" d="M505,318.7c6.79,7.33,13.79,15.95,11.75,27C517.24,334.73,510.55,327.11,505,318.7Z" transform="translate(-48.35 0)"/><path class="al" d="M505,366.7c4.3,5.44,8.28,12.28,7.91,19.66C511.85,379.25,508.16,372.92,505,366.7Z" transform="translate(-48.35 0)"/><path class="c" d="M517.77,390.6c-.15,1-.08.89,0,0Z" transform="translate(-48.35 0)"/><path class="c" d="M271.54,152.29c2.73-1.2,2.74.06,5-2.34,1.25-1.33-.29-7.49-2-12.88h5.06c1,4.42,2.25,7.39,2.12,9.52-.14,2.28,1.33,4.47,4.56,6.8s15.11,5.19,17,5.73-26-1.41-34.46-6.7A3.86,3.86,0,0,0,271.54,152.29Z" transform="translate(-48.35 0)"/><path class="c" d="M324.69,178.32c.71,2.21,4,2.71,4,2.71s9.87-2.25,13.92-6.13,7.33-13.75,8.21-16.8,9.25-8.14,15.54-14.41a85.06,85.06,0,0,1,7.67-6.62H378c-3.23,2.41-6.22,4.72-7.62,6-3.83,3.45-16.11,12.7-17,16.24s-3.77,14-7.14,17.76-11.09,5.86-12.91,6.73-6.25-.53-8.89-2.79c-1.67-1.41-.87-2.54-.18-4.19C324.42,177.46,324.59,178,324.69,178.32Z" transform="translate(-48.35 0)"/><path class="c" d="M90.6,176.71c2.28.11,26.4-1.41,32.08-2.79s21.09,12.28,25.68,15.44a7,7,0,0,0,1.52.7c4.23,2.45,10.52,5.33,16.58,5,10.44-.52,20.68-1.26,23.72-2.38s23.08-14.48,29.43-12.16,32.44-.82,24.38,4.46c-2.08,1.35,10.74,3.81,13.19,10.94s19,24.91,40.68,29.45,38.19,5.42,48.06,4.15,28.47-4.17,35.81-1.83-10.12-.18-12,3.26,26.79,7.22,36.37,5.43,12.76-5.44,2.73-8.94,30.52-4.28,48,17.38,10.73,2,2.65-2.82,17.34,7.38,19.4,29.75,10.54,24.79,18.4,34.21,2.82,26.63,1.26,19.62-4.26-17.28-12.16-23.7,1.8,17.57,8.94,27.12-.82,6.28-5.86-3-3.95,1.47,5.16,12.29,28.07,30.8,24.47,46.1c-.77,3.29-1.13,5.25-1.28,6.2a28.84,28.84,0,0,0-2.93-15.23c-6-11-4,5.51-1.22,11.57.83,1.76,2.32,4.45,4,7.38-8.15-1.19-16.3-2.35-24.45-3.39a9.66,9.66,0,0,1-1.8-4.16c-.28-3.52-.68-18.75.59-26s-9.81-20.48-14.68-27.58-6.21-23.9-8.11-29.92S457,275.94,457,274.7s-.29-5.2-6.49-10-17.77-18.8-20.09-22.69-6.4-3.34-17.11-2.12-17.74,1.51-27.55-.33-13.67-.69-18.62,3.32-12,2.22-18.43,1.81-21.84,2.47-39.39.41-19.9-8.46-32.55-18.3S263.17,212,260.63,209.23,247,194.5,243.57,191.38s-26-2.85-26-2.85a87.37,87.37,0,0,1-6.76,7.17c-2.95,2.67-2.59,7.5-4.15,10.85s1.72,10.87,2.25,15.83,7.6,7.57,4.21,9.07-7.37-6.14-7.83-6.92-5.09-6.44-4.45-10.08,2.42-7.24-4.4-6.34-13.74,12.51-16.84,15.06-5.49,1.52-1-3.68,8.29-10.94,13.94-13.58,6.83-1.32,9.32-6.42,4.66-6.32,4.83-9.91-9.5,6.29-13.78,7.91-13.16,4.68-20.18,7.49-5.23.49-10.5-2.79-6.86-2.44-9.62-3.75-21.62.56-28,3.5-11.8,2.4-17.53-.4-11.4-1.83-9.16-4.65,12.3.46,16.66.92,13.6-2.63,19.28-4.85,9.31-.6,5.63-3.89-4.62-5.25-7.13-5.54a22.64,22.64,0,0,1-8.9-2.8c-2.76-1.73-22.1-.21-28-.26S88.33,176.59,90.6,176.71Z" transform="translate(-48.35 0)"/><path class="c" d="M245.39,183.74c.72-1.26-1.79-1.75-5.54-2A42.84,42.84,0,0,1,245.39,183.74Z" transform="translate(-48.35 0)"/><path class="c" d="M121.64,196.91a23,23,0,0,1-7.07.9c-2.16-.22-5.7-1.13-9-1.66,3.66,1.52,7.7,2.88,11.79,2A29,29,0,0,0,121.64,196.91Z" transform="translate(-48.35 0)"/><path class="c" d="M274.19,223.51c-6.89-7.11-12.06-15.42-18.46-22.88-5-5.79-12.35-13.79-21.38-14.35-5.36-.33-10.9.36-16.35.65s-10.58-.59-16.07,1.86c-4.7,2.08-9.06,4.76-13.65,7-9.11,4.52-16.41,5.45-25.55,3.29-8.45-2-13.91-9.26-23.88-4.28-3.42,1.71-7,4-10.77,5.92,8-2.22,22.13-3.44,24.49-2.31,2.76,1.31,4.34.46,9.62,3.75s3.48,5.61,10.5,2.79,15.87-5.87,20.18-7.49,14-11.49,13.78-7.91-2.33,4.82-4.83,9.91-3.64,3.78-9.32,6.42-9.45,8.39-13.94,13.58-2.09,6.24,1,3.68,10-14.14,16.84-15.06,5,2.69,4.4,6.34,4,9.31,4.45,10.08,4.43,8.42,7.83,6.92-3.7-4.12-4.21-9.07-3.79-12.48-2.25-15.83,1.2-8.18,4.15-10.85a87.37,87.37,0,0,0,6.76-7.17s22.56-.24,26,2.85,14.52,15,17.06,17.85,3.51,7.69,16.15,17.54c7.19,5.59,11.06,10.07,16.28,13.28A164.4,164.4,0,0,1,274.19,223.51Z" transform="translate(-48.35 0)"/><path class="c" d="M305.84,244.51c6.65,1.21,14-.39,21.84-2.2,7.49-1.74,14.84-1.81,22.34-2.61,9.47-1,18.06-2.54,27.37-1.74,8.77.75,17.7.28,26.53.64,8.16.33,14.23-4.79,21.85-.66,3.24,1.75,7.36,2.15,11,3.15,4.38,1.21,7.79,4.52,10.85,7.39a50.32,50.32,0,0,1,8.05,9.64,2.81,2.81,0,0,0,.34,1.67c1.61,2.88,3,5.83,4.38,8.79.15.52.31,1.05.42,1.57a2.31,2.31,0,0,0,1.05,1.55c2.73,5.82,5.6,11.53,10,16.48.71.8,1.42,1.61,2.1,2.43a3,3,0,0,0,.2,2c.7,1.45,6.78,8.21,4.74,9.84a10.32,10.32,0,0,0-3.91,8.37c-.25,9.72,3.36,18.34,8.79,25.87,7,9.68,17.09,16.19,18.68,29,.07.54.11,1.08.16,1.62-4.21,7.57-4.29,16.63-2.82,24.54-2.19-.3-4.39-.61-6.58-.89a9.66,9.66,0,0,1-1.8-4.16c-.28-3.52-.68-18.75.59-26s-9.81-20.48-14.68-27.58-6.21-23.9-8.11-29.92S457,275.94,457,274.7s-.29-5.2-6.49-10-17.77-18.8-20.09-22.69-6.4-3.34-17.11-2.12-17.74,1.51-27.55-.33-13.67-.69-18.62,3.32-12,2.22-18.43,1.81-21.84,2.47-39.39.41c-1.24-.15-2.41-.33-3.53-.52Z" transform="translate(-48.35 0)"/><path class="c" d="M132.35,183.53c2.32.27,3.31,2,6.36,4.83a26.22,26.22,0,0,1,5.85-1.89c-6.48-5.06-17.33-13.66-21.88-12.55-5.68,1.38-29.8,2.9-32.08,2.79s-1.09,3.7,4.83,3.76,25.26-1.47,28,.26A22.64,22.64,0,0,0,132.35,183.53Z" transform="translate(-48.35 0)"/><path class="c" d="M230.41,137.07c1.59.26,3.06.54,4.31.84,7.29,1.75,6.13,6.44,7.47,8.67s5.8,5.57,11.28,6.94,8.56,2.53,23.56,4.57,25.54,8.62,19,7.7-3.27,1.79,4.05,5.42,16.88,17.81,13,15-7.2-4.43-6.74-.45,11.55,13.14,11.16,12.9-8.84-3.95-6.48.74,16.55,10.34,16.55,10.34-2.56-.35,2.31,4.33,16.05,7,13.23,6.71-15.49,2.29-16.6,2.7c0,0,0,0,0,0,.74-.3,0-1.26-4.31-3.53-8.26-4.35-7.65-10.93-16.42-20.65s-1.72-10-5.41-13.32-1.88-6-5.57-9.31-2.61-8.66-7.86-9.86-24.91-7.37-29.25-8.67-5.71-.71-11.42-3.1-5.51-4.28-7.15-6.8-3.26-5.84-4.17-7-9.12-.47-13.92-2.56a24.59,24.59,0,0,0-6.7-1.6Z" transform="translate(-48.35 0)"/><path class="c" d="M303.37,148.06c.53-1,2.58-5.39,4.85-11H313l-.52,1.79s-.57,5-2.42,7.83-1.26-1-.6-3.21-5,6.85-7.18,6.23a2.09,2.09,0,0,1-.58-.38A2.27,2.27,0,0,0,303.37,148.06Z" transform="translate(-48.35 0)"/><g class="am"><path class="b" d="M353.32,173.68l.52-.15A1.94,1.94,0,0,0,353.32,173.68Z" transform="translate(-48.35 0)"/><path class="an" d="M352.15,176.2c2.68-.1,10.19-.67,14.87.49s9.39-.56,13.56-1.67,10.4-3.29,12.77-4.76,6.91-5.47,10.49-8.41,3.66-7.92,6-10.22,11.25-12.4,11.39-12.56c-2.86,1.31-7.26,5.28-10.42,9-4,4.71-10,16.2-15.71,18.83s-13.12,6.77-17.89,7.61c-4.47.79-20-1.55-23.4-1l-.52.15S349.47,176.3,352.15,176.2Z" transform="translate(-48.35 0)"/></g><path class="ao" d="M494.8,282.76s-9.6-10.56-12.15-6.55,1.83,13.92,8,19.28,17,20,22.93,31.28S520,312,511,303.08,504.58,291.82,494.8,282.76Z" transform="translate(-48.35 0)"/><path class="ao" d="M512.27,298.33s-6.82-13.48-24.94-27.17,1.46-5.5,13.39,6.27,17.7,20,17.82,25.79S516.91,305.46,512.27,298.33Z" transform="translate(-48.35 0)"/><path class="ao" d="M471.31,252.06s-4.27-9.22-26.69-19.89-31.77-7-30.21-10,20.31-7.44,29.93-4.31,15,8.76,8.31,7.67-7.87-1.37-6.25.09,22.38,8.37,32.49,21.57,7.33,13.56,4,11.18S482.62,264.59,471.31,252.06Z" transform="translate(-48.35 0)"/><path class="ao" d="M514.46,346.33s-9.34-9.13-11.18-6.64,20.12,24.16,19.43,40.82,9.65-4.1,4.86-14.45S522.86,354.55,514.46,346.33Z" transform="translate(-48.35 0)"/><g class="ap"><path class="aq" d="M524.27,390.53c0,.12.36,2.76,1,1.61a6.09,6.09,0,0,0-.06-4.07C524.82,387.14,523.84,388.87,524.27,390.53Z" transform="translate(-48.35 0)"/></g><g class="ap"><path class="aq" d="M511.19,335.85s.8,1.62.72-.41a12.42,12.42,0,0,0-1.4-4.78C510,329.61,510.13,333.48,511.19,335.85Z" transform="translate(-48.35 0)"/><path class="aq" d="M507.06,328.25c.07.11,1,2.53,1.35,1.34s-.48-3-1.05-3.85S506.23,326.77,507.06,328.25Z" transform="translate(-48.35 0)"/><path class="aq" d="M507.94,332.4a5.53,5.53,0,0,0-.3-1.51c-.26-.59-.49,1-.2,1.78S508.67,333.73,507.94,332.4Z" transform="translate(-48.35 0)"/></g><g class="am"><path class="b" d="M480.92,315.52s.69,1.64,1.65-.91a6.9,6.9,0,0,0-.2-5.31C482,308.22,480.1,313.1,480.92,315.52Z" transform="translate(-48.35 0)"/><path class="b" d="M476.91,308.13c.06.1.65,2.65,1.93.95a3.45,3.45,0,0,0,0-4.31C478.16,304.05,476.06,306.71,476.91,308.13Z" transform="translate(-48.35 0)"/><path class="b" d="M476.38,312.93a4,4,0,0,0,.23-1.76c-.19-.6-1.52,1.55-1.37,2.38S477.08,314.23,476.38,312.93Z" transform="translate(-48.35 0)"/></g><g class="am"><path class="b" d="M467.68,263.74s1.51,1,1.08-1.5a6.41,6.41,0,0,0-3-4.22C464.89,257.3,465.64,262.13,467.68,263.74Z" transform="translate(-48.35 0)"/><path class="b" d="M460,259.54c.12.07,2,1.87,2.32-.08a3.19,3.19,0,0,0-2.27-3.51C459.06,255.68,458.47,258.79,460,259.54Z" transform="translate(-48.35 0)"/><path class="b" d="M462.05,263.68a3.47,3.47,0,0,0-.7-1.52c-.5-.41-.62,1.94,0,2.54S463.4,264.42,462.05,263.68Z" transform="translate(-48.35 0)"/></g><g class="am"><path class="b" d="M321.53,180.2s1.51,1,1.07-1.49a6.43,6.43,0,0,0-3-4.22C318.74,173.78,319.5,178.61,321.53,180.2Z" transform="translate(-48.35 0)"/><path class="b" d="M313.86,176c.12.06,2,1.86,2.32-.09a3.21,3.21,0,0,0-2.25-3.51C312.92,172.15,312.33,175.26,313.86,176Z" transform="translate(-48.35 0)"/><path class="b" d="M315.89,180.15a3.28,3.28,0,0,0-.7-1.52c-.49-.4-.61,1.94,0,2.55S317.24,180.89,315.89,180.15Z" transform="translate(-48.35 0)"/></g><g class="am"><path class="b" d="M266.86,198.39s1.5,1,1.07-1.49a6.49,6.49,0,0,0-3-4.22C264.06,192,264.82,196.8,266.86,198.39Z" transform="translate(-48.35 0)"/><path class="b" d="M259.19,194.21c.12.06,2,1.86,2.32-.09a3.21,3.21,0,0,0-2.26-3.5C258.23,190.34,257.66,193.45,259.19,194.21Z" transform="translate(-48.35 0)"/><path class="b" d="M261.23,198.35a3.41,3.41,0,0,0-.72-1.53c-.5-.4-.61,1.94,0,2.55S262.57,199.09,261.23,198.35Z" transform="translate(-48.35 0)"/></g><g class="am"><path class="b" d="M519.49,357.44s1,.65.68-1a4.15,4.15,0,0,0-1.92-2.73C517.68,353.29,518.16,356.41,519.49,357.44Z" transform="translate(-48.35 0)"/><path class="b" d="M514.56,354.74c.06,0,1.28,1.2,1.49-.05a2.06,2.06,0,0,0-1.48-2.26C513.93,352.25,513.55,354.24,514.56,354.74Z" transform="translate(-48.35 0)"/><path class="b" d="M515.85,357.4a2.16,2.16,0,0,0-.46-1c-.32-.26-.38,1.25,0,1.63S516.72,357.88,515.85,357.4Z" transform="translate(-48.35 0)"/></g><g class="am"><path class="b" d="M320.82,192.63s1.64.33.39-1.47a6.2,6.2,0,0,0-4-2.37C316.18,188.51,318.51,192,320.82,192.63Z" transform="translate(-48.35 0)"/><path class="b" d="M312.79,191.71c.13,0,2.37.83,1.95-.78a3,3,0,0,0-3.16-2C310.61,189,311.21,191.58,312.79,191.71Z" transform="translate(-48.35 0)"/><path class="b" d="M316,194.28a3,3,0,0,0-1.14-.95c-.57-.17.16,1.68.87,2S317.38,194.44,316,194.28Z" transform="translate(-48.35 0)"/></g><g class="am"><path class="b" d="M296,151.48s1.64.32.39-1.48a6.24,6.24,0,0,0-4-2.36C291.37,147.35,293.69,150.86,296,151.48Z" transform="translate(-48.35 0)"/><path class="b" d="M288,150.55c.12,0,2.37.84,1.95-.77a3.06,3.06,0,0,0-3.15-2C285.8,147.85,286.39,150.42,288,150.55Z" transform="translate(-48.35 0)"/><path class="b" d="M291.15,153.13a3.15,3.15,0,0,0-1.13-1c-.57-.16.15,1.68.87,2S292.57,153.29,291.15,153.13Z" transform="translate(-48.35 0)"/></g><g class="am"><path class="b" d="M222.05,175.5s1.53-.44-.25-.9a8.66,8.66,0,0,0-4.37.26C216.44,175.09,219.84,176,222.05,175.5Z" transform="translate(-48.35 0)"/><path class="b" d="M214.83,178c.11,0,2.36-.44,1.36-1.11s-2.72-.29-3.51.13S213.42,178.53,214.83,178Z" transform="translate(-48.35 0)"/><path class="b" d="M218.57,178.16a3.93,3.93,0,0,0-1.35-.08c-.55.12.78.82,1.52.69S219.84,177.73,218.57,178.16Z" transform="translate(-48.35 0)"/></g><g class="am"><path class="b" d="M168.86,158.75s1.53-.46-.25-.93a8.76,8.76,0,0,0-4.37.27C163.26,158.32,166.64,159.27,168.86,158.75Z" transform="translate(-48.35 0)"/><path class="b" d="M161.65,161.22c.09,0,2.35-.44,1.35-1.11s-2.72-.29-3.5.12S160.24,161.75,161.65,161.22Z" transform="translate(-48.35 0)"/><path class="b" d="M165.38,161.39a3.67,3.67,0,0,0-1.35-.08c-.54.11.81.81,1.53.69S166.64,161,165.38,161.39Z" transform="translate(-48.35 0)"/></g><g class="ap"><path class="aq" d="M476.75,250.49s1.09.83.67-.82a6,6,0,0,0-2.26-3C474.51,246.05,475.27,249.22,476.75,250.49Z" transform="translate(-48.35 0)"/><path class="aq" d="M471.25,246.87c.08.06,1.49,1.44,1.6.24a2.82,2.82,0,0,0-1.74-2.51C470.4,244.3,470.15,246.2,471.25,246.87Z" transform="translate(-48.35 0)"/><path class="aq" d="M472.85,249.75a2.57,2.57,0,0,0-.57-1.05c-.34-.33-.32,1.15.12,1.6S473.82,250.39,472.85,249.75Z" transform="translate(-48.35 0)"/></g><g class="ap"><path class="aq" d="M384.35,222.27s2-.12,0-1.15a11.25,11.25,0,0,0-5.52-.84C377.54,220.3,381.4,222.34,384.35,222.27Z" transform="translate(-48.35 0)"/><path class="aq" d="M374.5,223.36c.14,0,3.09.09,2.08-1s-3.26-1.06-4.38-.78S372.58,223.61,374.5,223.36Z" transform="translate(-48.35 0)"/><path class="aq" d="M379.09,224.53a4.88,4.88,0,0,0-1.66-.44c-.72,0,.71,1.18,1.65,1.24S380.82,224.35,379.09,224.53Z" transform="translate(-48.35 0)"/></g><path class="ao" d="M322,181.39a13.66,13.66,0,0,0-3.68-13c-5.9-6.22-17.68-7.39-22.22-8.08s8.91,5.93,8.16,7.16,2.47,4.37,6.84,7.76S321.63,185.62,322,181.39Z" transform="translate(-48.35 0)"/><path class="ao" d="M346,181.88s5.82-2.85,10.95-2.55,16.56.63,19-.66,2.24-1.45-2.45-.84-8.28,1.62-10.37-.11-11.23-1.57-14.26.37-13,6.42-15.61,7.07-3.43,7.86-3,8S333.94,187.23,346,181.88Z" transform="translate(-48.35 0)"/><path class="ao" d="M254.89,183.51a20.3,20.3,0,0,0-9.27-3.92c-5.26-.66,2.4,2.83,3.78,5.57s9.2,4.75,12.67,10.42,7.18,13.33,9.92,14.59.24-3.12-1.28-6,4.24,8.28,23.66,16.16,24.78,7.18,28.19,6.87,17.51,1.06,24.17-.13,10.49-1.87,8.84-3.09-5.19-2.3-12-1.4-14.89,2.29-17.5,2.33-29.84-5.73-36.36-9.4-14.15-9.7-19-16.43S259.3,186.07,254.89,183.51Z" transform="translate(-48.35 0)"/><path class="ao" d="M498.85,291.37s-5.41-9.16-10.75-8.38,1.7,11.28,8.6,16.09,9.64,11.74,12.73,14.75S512,307.12,498.85,291.37Z" transform="translate(-48.35 0)"/><g class="am"><path class="b" d="M298,231.76s1.64.33.4-1.47a6.28,6.28,0,0,0-4-2.36C293.37,227.64,295.7,231.15,298,231.76Z" transform="translate(-48.35 0)"/><path class="b" d="M290,230.85c.12,0,2.38.82,1.95-.77a3,3,0,0,0-3.15-2C287.81,228.14,288.4,230.71,290,230.85Z" transform="translate(-48.35 0)"/><path class="b" d="M293.17,233.42a3.09,3.09,0,0,0-1.15-.95c-.56-.18.15,1.67.87,2S294.57,233.59,293.17,233.42Z" transform="translate(-48.35 0)"/></g><g class="am"><path class="b" d="M172.83,200.34s1.63.32.39-1.47a6.17,6.17,0,0,0-4-2.37C168.19,196.21,170.52,199.72,172.83,200.34Z" transform="translate(-48.35 0)"/><path class="b" d="M164.79,199.41c.12,0,2.38.84,2-.76a3,3,0,0,0-3.17-2C162.62,196.72,163.21,199.3,164.79,199.41Z" transform="translate(-48.35 0)"/><path class="b" d="M168,202a3.05,3.05,0,0,0-1.13-1c-.57-.17.15,1.68.86,2S169.39,202.16,168,202Z" transform="translate(-48.35 0)"/></g><path class="d" d="M299,214.21a15.82,15.82,0,0,1,4.32,3.52,23.69,23.69,0,0,1,3,4.23,52.8,52.8,0,0,1,3.91,8.92A153,153,0,0,1,315,249.06c2.24,10.83,3.91,22.05,3.19,32.94-.2,3-.45,5.93-.71,8.91s-.57,5.95-.86,8.93a116.75,116.75,0,0,0-.72,17.72c.37,6.07,1.39,12.17,4.11,17.56a24.86,24.86,0,0,0,5.39,7.15,25.51,25.51,0,0,0,7.56,4.74,30.81,30.81,0,0,0,8.05,1.93c1.36.2,2.75.22,4.11.34l4.13.12c3,0,6,.06,9.09,0l2.29,0c.75,0,1.46-.11,2.2-.15l2.19-.12,2.14-.3a38.9,38.9,0,0,0,15.05-4.94,35.06,35.06,0,0,0,11.6-11.92,54.36,54.36,0,0,0,6.33-17.29,75.65,75.65,0,0,0,1.18-18.41c-.6-11.72-2.71-23.11-4.26-34.7-.55-4.18-1.13-8.35-1.39-12.64-.08-2.15-.21-4.3-.13-6.48a53,53,0,0,1,.62-6.59A50.46,50.46,0,0,1,400.21,222a28.2,28.2,0,0,1,4-6.32,12.31,12.31,0,0,1,1.39-1.41A12,12,0,0,1,407.2,213a10,10,0,0,1,4.13-1.6.92.92,0,0,1,.36,0c.14,0,.25.09.26.16s.12.25,0,.25a8.23,8.23,0,0,0-2.89.85,12,12,0,0,0-1.21.71c-.37.26-.73.54-1.09.83a15.46,15.46,0,0,0-3.2,4.08,39.48,39.48,0,0,0-3.32,8.94,54.73,54.73,0,0,0-1.78,18.68,149.1,149.1,0,0,0,2.48,17.44c1.06,5.76,2.15,11.52,2.9,17.39a170.88,170.88,0,0,1,1.46,17.11,75.34,75.34,0,0,1-1.44,17.48,60.71,60.71,0,0,1-6.72,17.8,39.82,39.82,0,0,1-13.06,13.74,44.32,44.32,0,0,1-17.93,5.87c-1.56.21-3.13.23-4.69.39l-4.68.19-4.68.1c-1.55,0-3.12,0-4.68,0a40.55,40.55,0,0,1-17.73-4.07,27.72,27.72,0,0,1-12.86-13.73c-2.62-6-3.3-12.35-3.4-18.44a144.24,144.24,0,0,1,1.23-18.09c.69-5.71,1.14-11.47,1.3-17.21a110.61,110.61,0,0,0-.77-17.33,209.28,209.28,0,0,0-5-25,110.38,110.38,0,0,0-3.85-12.23,39.43,39.43,0,0,0-2.78-5.84,19,19,0,0,0-4.29-5.2C298.82,215.82,298.19,213.74,299,214.21Z" transform="translate(-48.35 0)"/><path class="e" d="M322.56,340.05a20.91,20.91,0,0,0,9.07,5.64,60.52,60.52,0,0,0,10.17,2.16c4.2.66,8.49.4,12.82.34h1.94l2-.08c1.3,0,2.62-.05,3.82-.18a50,50,0,0,0,7.23-.92,37,37,0,0,0,11.11-3.93,32.09,32.09,0,0,0,9.35-8,69.6,69.6,0,0,0,13.46-26.75c2-8.28,1.35-16.29,0-24.38-1.47-8.67-3.28-17.12-4.81-25.73a56,56,0,0,1-.72-12.1c0-1,0-2,.12-3.06l.26-3.07c.11-2,.44-4.1.61-6.17.54-4.24.82-8.57,2.62-12.86.2-.47.43-.95.66-1.42s.56-.92.85-1.37a20.33,20.33,0,0,1,2-2.6,17.77,17.77,0,0,1,5.4-3.57,2,2,0,0,1,1.27.1.47.47,0,0,1,.35.32c.05.11.05.2,0,.26a18.38,18.38,0,0,0-3.45,2.34l-.79.68-.7.75a10.15,10.15,0,0,0-1.18,1.45l-.48.66-.4.71c-.25.48-.52,1-.75,1.43a27.85,27.85,0,0,0-1.1,3,25.49,25.49,0,0,0-.7,3.06c-.15,1-.3,2.06-.38,3.08-.31,4.33-1.05,9.11-1.38,13.49-.09,1.89-.21,3.85-.27,5.81a26,26,0,0,0,.52,5.75c1.77,7.94,3,16.18,4.64,24.34,1.49,7.56,2.18,16.34.54,24.23a80.87,80.87,0,0,1-10.71,26.85c-2.47,3.91-5.12,7.87-8.59,10.74a37.3,37.3,0,0,1-12.83,7,56.39,56.39,0,0,1-12.93,2.25c-4.54.23-9.1.39-13.64.18a49.41,49.41,0,0,1-13.45-2.26,28.9,28.9,0,0,1-6.29-2.91,26.35,26.35,0,0,1-5.37-4.53C322.22,340.55,322.37,339.84,322.56,340.05Z" transform="translate(-48.35 0)"/><path class="e" d="M302.87,217.81a25.13,25.13,0,0,1,5.51,7.87c1.37,2.81,2.44,5.66,3.55,8.47a51.09,51.09,0,0,1,1.95,6.8c.76,3.1,2,5.93,2.89,8.93,1.53,5.11,1.27,10.75,1.7,16a72.86,72.86,0,0,1-.4,17.35c-.88,5.85-2,11.68-2.54,17.61-.55,6.3-1.4,12.75-1.06,19.15a80.22,80.22,0,0,0,.78,8.62,22,22,0,0,0,3,8.35,71.29,71.29,0,0,0,5.1,7.5,21,21,0,0,0,1.56,1.7c.56.52,1.14,1,1.73,1.53a16,16,0,0,0,4,2.23c.11,0,.23.35.08.32a14.34,14.34,0,0,1-7.22-3.94,36.65,36.65,0,0,1-5.23-6.65,26.88,26.88,0,0,1-3.58-7.9,44.42,44.42,0,0,1-1.43-8.24,109.47,109.47,0,0,1,.35-18.49c.57-6.06,1.36-12.12,2.28-18.07a75.66,75.66,0,0,0,1-18.26c-.46-5.73-.47-11.57-1.57-17.29a117.08,117.08,0,0,0-4.69-16.79c-1-2.76-2.07-5.51-3.32-8.21a38.66,38.66,0,0,0-4.59-7.85C302.6,218.34,302.62,217.58,302.87,217.81Z" transform="translate(-48.35 0)"/><path class="f" d="M351.14,351.65a.66.66,0,0,0,.27-.08c6.73,0,13.67,0,19.74-2.27a31.18,31.18,0,0,0,8.85-3.24l2-1.24c.66-.44,1.25-1,1.88-1.46l.93-.76.83-.86c.55-.58,1.13-1.13,1.62-1.76a60.53,60.53,0,0,0,7.76-12.29,53,53,0,0,0,4.48-14.2c.85-5.42.57-10.88.67-16.27,0-2.76-.37-5.42-.34-8.18a39.27,39.27,0,0,0-.23-7.52c0-.13.24-.42.3-.25a21.66,21.66,0,0,1,.87,5.7c.13,2.79.46,5.44.63,8.22a93,93,0,0,1-.22,16.08,45.88,45.88,0,0,1-3.83,14.91A78.35,78.35,0,0,1,389.3,340a29.2,29.2,0,0,1-12.21,9.34,49.87,49.87,0,0,1-15,3.24c-1,.14-2,.19-2.94.26l-2.95.25c-3.39-.06-6.83.13-10.19-.08-1,0-1.91-.08-2.87-.19s-1.94-.14-2.9-.32C344,352.35,347.51,352,351.14,351.65Z" transform="translate(-48.35 0)"/><path class="f" d="M304.08,222.09c2.21,3.12,3.05,6.81,4.37,10.27s2.39,6.75,3.38,10.19,1.49,6.94,2.31,10.41a95.26,95.26,0,0,1,2.18,12.1,141.86,141.86,0,0,1,1,22.35c-.18,3.17.37,6.35.24,9.57-.07,2.06-.27,4.11-.49,6.13s-1.08,4.21-.74,6.42c0,.11-.2.35-.24.21-.69-2.57.16-5.78.26-8.46a108.06,108.06,0,0,0-.38-10.8c-.24-3.78.15-7.64-.07-11.47-.25-4.19-.69-8.35-1.11-12.53-.77-7.56-2.7-15-4.36-22.38-.83-3.68-1.7-7.3-2.73-10.86a60.6,60.6,0,0,0-3.89-10.54C303.7,222.52,303.9,221.84,304.08,222.09Z" transform="translate(-48.35 0)"/><path class="d" d="M248.73,175.6a14.47,14.47,0,0,1,4.54,4,22,22,0,0,1,2.72,4.86,51.65,51.65,0,0,1,2.8,9.9c1.24,6.55,1.9,13,2.57,19.49,1.15,11.51,2.15,23.15,1.46,34.43-.75,12.29-1.58,24.76.73,37.11a92.49,92.49,0,0,0,5.4,18.51A52.8,52.8,0,0,0,279.11,320a31.51,31.51,0,0,0,14.68,8.41,30.78,30.78,0,0,0,8.72,1,26.8,26.8,0,0,0,8.49-1.81,35.18,35.18,0,0,0,3.72-1.66,34.62,34.62,0,0,0,3.5-2.19,36.68,36.68,0,0,0,3.3-2.58c.53-.47,1-1,1.52-1.49l.77-.75.7-.81,1.4-1.66,1.26-1.77c.21-.31.44-.6.63-.91l.56-1,1.12-1.92a40,40,0,0,0,3.19-8.41,44,44,0,0,0,.47-19.44c-.36-1.59-.74-3.2-1.14-4.76l-1.26-4.6c-.39-1.54-.77-3.09-1.16-4.64l-1.08-4.71a132.74,132.74,0,0,1-2.94-36.94c.58-9,1.75-18,4.75-26.62,1.59-4.55,3.42-9,5.41-13.38,1.9-4.17,3.58-8.54,6.25-12.35.15-.21.91-.44.66-.07-3.46,5.27-4.9,11.87-7.05,17.66a98.2,98.2,0,0,0-5.14,18.89c-1.95,12.34-1.63,24.75-.45,36.75a148.41,148.41,0,0,0,2.74,17c.34,1.38.6,2.77.95,4.14l1,4.09c.38,1.36.75,2.71,1.09,4.1.39,1.57.74,3.15,1.07,4.74a49,49,0,0,1-.64,20.39,45.69,45.69,0,0,1-3.48,9.49,43,43,0,0,1-5.57,8.25,41.47,41.47,0,0,1-7.45,6.75,36.79,36.79,0,0,1-8.92,4.49,31.44,31.44,0,0,1-9.87,1.6,35.54,35.54,0,0,1-5-.35l-2.48-.49a22.76,22.76,0,0,1-2.45-.68,30.67,30.67,0,0,1-4.53-1.79c-.71-.38-1.41-.8-2.11-1.21a16.41,16.41,0,0,1-2.05-1.34l-2-1.47c-.64-.5-1.2-1.09-1.81-1.63s-1.21-1.1-1.75-1.71l-1.61-1.83a57.15,57.15,0,0,1-9.41-16.73c-4.6-12.28-6.05-25.39-5.73-38,.3-12.06,1.15-24,.31-36.19-.63-8.8-1.5-17.74-2.63-26.67A128.64,128.64,0,0,0,255.44,190a35.9,35.9,0,0,0-2.13-6.51,15.55,15.55,0,0,0-4.2-5.79,3.53,3.53,0,0,1-.69-1.36C248.27,175.77,248.28,175.35,248.73,175.6Z" transform="translate(-48.35 0)"/><path class="e" d="M271,309.43a19.05,19.05,0,0,0,1.61,2.44c.58.78,1.16,1.55,1.76,2.3l1.95,2.08,1,1,1.06.93a53.79,53.79,0,0,0,8.87,6.4,27,27,0,0,0,11.86,3.5,24.94,24.94,0,0,0,7.12-.45l.88-.16c.29-.08.57-.18.85-.25.57-.19,1.16-.32,1.72-.52a28.4,28.4,0,0,0,3.3-1.44,34.69,34.69,0,0,0,9.87-7.39,37,37,0,0,0,7.09-11,61.43,61.43,0,0,0,4.18-15l.4-4c0-1.37.05-2.73.07-4.08s-.18-2.73-.29-4.12-.27-2.68-.43-3.94c-1.09-8.27-2.74-15.82-4.23-24.12a131.78,131.78,0,0,1-1.77-27.26c.36-8.55,3.3-16.78,5.62-25.06,1.2-4.29,2.06-8.61,3.54-12.85a57.23,57.23,0,0,1,2.41-5.58c.7-1.47,2-3.5,2.56-4.94.15-.43,1.51-1,1.44-.47-.25,2.27-1.68,5.16-2.53,7.37a74.37,74.37,0,0,0-3.64,12.74c-.86,4.55-2.66,9.42-3.92,13.89-1.08,3.84-2.4,8-2.44,12-.09,8.53-.27,17.2,1,25.45,1.2,7.68,2.44,15.93,3.05,23.53.12,2.35.39,4.66.58,7a70.6,70.6,0,0,1,.46,7.83,57.31,57.31,0,0,1-2,15.19c-1.3,4.72-2.86,9.48-5.5,13.45A41.84,41.84,0,0,1,317.7,325a32.27,32.27,0,0,1-12.38,5.14A27.7,27.7,0,0,1,291.85,329a33.79,33.79,0,0,1-12.14-7.36,48.75,48.75,0,0,1-9-11.55C270.55,309.86,270.83,309.17,271,309.43Z" transform="translate(-48.35 0)"/><path class="e" d="M252.8,179.62a23.57,23.57,0,0,1,4.84,9c1,3.15,1.67,6.28,2.42,9.35a62.6,62.6,0,0,1,1.1,7.31c.38,3.31,1.29,6.38,1.9,9.58,1,5.43.33,11.21.49,16.63a104.31,104.31,0,0,1-.82,18c-.84,6.09-1.74,12.15-1.66,18.4A121.94,121.94,0,0,0,262.46,288c1,5.85,1.83,12.06,4.63,17.52.67,1.37,1.36,2.74,1.91,4.17s1.15,2.84,1.78,4.25c.32.7.61,1.43,1,2.11s.77,1.35,1.18,2a18.43,18.43,0,0,0,1.34,1.93q.77.9,1.62,1.74c.09.08.08.42,0,.33a18,18,0,0,1-5.44-6.3c-.65-1.24-1.25-2.51-1.88-3.76s-1.08-2.56-1.7-3.8a65,65,0,0,1-5.1-16.42,122.41,122.41,0,0,1-1.08-38.42,111.59,111.59,0,0,0,1.2-19c-.2-6,.21-12-.35-18.09a169.56,169.56,0,0,0-2.77-18c-.63-3-1.32-6.05-2.23-9.06a33.09,33.09,0,0,0-3.86-8.85C252.53,180.12,252.53,179.35,252.8,179.62Z" transform="translate(-48.35 0)"/><path class="f" d="M295.21,331a.54.54,0,0,0,.29,0,27.77,27.77,0,0,0,10.32.08,22.7,22.7,0,0,0,9.29-4,29.77,29.77,0,0,0,13.38-14.48,58,58,0,0,0,4.23-14.75,43.18,43.18,0,0,0-.59-15.68c-.69-2.83-1.61-5.52-2.5-8.24-.39-1.38-.77-2.76-1.16-4.14s-.61-2.8-.87-4.21c-.45-2.88-1.24-5.64-1.41-8.59-.11-1.31-.08-2.67-.12-4,0-.68-.05-1.35-.11-2s-.1-1.32-.2-2c0-.15.26-.44.31-.27a33.48,33.48,0,0,1,.93,6,67.27,67.27,0,0,0,1.48,8.51c1.18,5.42,2.71,10.72,4.32,16.05a38.4,38.4,0,0,1,1.7,16.26,68.07,68.07,0,0,1-4,16.43A33,33,0,0,1,321,325.22a33.76,33.76,0,0,1-14.47,7.07c-.51.1-1,.26-1.53.33l-1.55.21a21.91,21.91,0,0,1-3.14.24,37,37,0,0,1-10.72-2l-2.85-1.22c-.94-.45-1.84-1-2.76-1.49A40.76,40.76,0,0,0,295.21,331Z" transform="translate(-48.35 0)"/><path class="f" d="M253.73,184.24c1.92,3.58,2.23,7.57,3.11,11.36s1.5,7.4,2.08,11.1.73,7.41,1.24,11.11c.57,4.21,1.09,8.54,1.28,12.78.35,7.89.85,15.48.61,23.3-.11,3.32.57,6.55.7,9.87.09,2.12.08,4.26.09,6.38s-.58,4.5.05,6.76c0,.12-.16.4-.21.26-1-2.61-.58-6.06-.76-8.85-.24-3.83-.76-7.4-1.13-11.19-.38-4,0-8-.23-12-.24-4.4-.48-8.76-.73-13.15-.38-7.95-1.65-15.89-2.47-23.83-.41-4-.83-7.87-1.38-11.74a57.46,57.46,0,0,0-2.59-11.57C253.31,184.64,253.58,184,253.73,184.24Z" transform="translate(-48.35 0)"/><path class="c" d="M503.4,369.59c2.46,2.92,4,6.5,6.12,9.68,2.68,4.12,5.78,7.94,8.57,12,5.65,8.2,12.38,15.13,18.54,22.92,11,13.87,15.81,29.5,19.72,46.47.11.48-.52-.08-.59-.29-2.9-8.58-4-17.25-7.87-25.62a100.05,100.05,0,0,0-16.2-24.18c-5-5.69-10.09-9.45-14.24-15.81-5.07-7.76-9.27-17.34-14.36-25C502.86,369.38,503.2,369.36,503.4,369.59Z" transform="translate(-48.35 0)"/><path class="c" d="M517.93,346.32c8,9.72,16,19.59,23.59,29.66,5.82,7.72,10.51,16.75,11.55,26.46.07.7-1.17-.37-1.24-.77-2.16-11.3-8.37-20.67-15.25-29.67-6.44-8.41-12.76-16.84-19-25.38C517.19,346.12,517.54,345.84,517.93,346.32Z" transform="translate(-48.35 0)"/><path class="c" d="M563.91,385.76c5,11.74,5.87,25.34,5.17,37.95-.35,6.52-1.39,13-1.62,19.5a102.69,102.69,0,0,0,2.32,23.84c.13.71-.8-.1-.89-.44-7.13-26.58,4-54.75-5.6-81C563.06,385,563.78,385.45,563.91,385.76Z" transform="translate(-48.35 0)"/><path class="ao" d="M532.64,385.31a48.61,48.61,0,0,0,5.73,15.9c3.39,5.92,7.85,11.42,11.66,17.1,4.06,6,6.66,12.33,9,19.17.12.36,1.39,1.92,1.75,1.08,1.7-3.91-.92-10.92-1.83-14.68a59.16,59.16,0,0,1-1.25-8.91,17.82,17.82,0,0,1-.25-2c2,1.91,2.92,5.15,4.61,7.42.35.46,1.26,1.4,1.95,1.2l.81-.22a.54.54,0,0,0,.43-.35c4.24-20.58-5.74-42.17-19.59-57.16-.67-.91-1.35-1.8-2.07-2.66-1.24-1.49-3.1-4.54-5.31-4.55-.73,0-.36,1.12-.26,1.44,1.75,5.06,5.94,9.1,8.29,13.9A156.07,156.07,0,0,1,553,386.91c1.31,3.58,3,7.48,3.51,11.29.15,1.09.76,2.9-.5,3-1.7.12-4.61-3.41-5.48-4.63-1.47-2.08-2.55-5-3.71-6.9-.44-.72-.91-1.44-1.39-2.14a56.45,56.45,0,0,0-5.1-10.12c-1.8-2.8-3.72-6.91-7.09-8.07a.51.51,0,0,0-.65.28C530.53,374.33,531.76,380.41,532.64,385.31Z" transform="translate(-48.35 0)"/><path class="ar" d="M520.17,416.41A138.06,138.06,0,0,0,527.66,435a79.73,79.73,0,0,0,11.66,16.69c4,4.57,8.71,8.4,12.2,13.42.15.22,1.19,1.29,1.24.45.54-9.62-4.76-20-9.06-28.33-4.17-8-10.13-15.42-15.93-22.55-2.62-4.52-5.23-9.13-8.54-13.05-.24-.28-1.37-1.4-1.69-.61C516,404.73,519,412.93,520.17,416.41Z" transform="translate(-48.35 0)"/><path class="ar" d="M576.86,463.16c3.25,6.56,7,10.59,14.55,9.75a.42.42,0,0,0,.35-.29c1.54-4.49-4-11-6-14.6-2.54-4.53-5.51-8.74-8.26-13.09-.91-2.27-1.8-4.53-2.61-6.81s-.91-5-2.44-6.87c-.13-.16-1.27-1.21-1.41-.5C569,441.6,572.07,453.49,576.86,463.16Z" transform="translate(-48.35 0)"/><path class="as" d="M124.64,111c1,4,6.32,5,10.08,6.1-3.34,2.08-8.85,4.91-6.25,9.48,1.83,3.2,4.89,4.27,8.12,5.29-3.11,1.14-7.91,2.56-7.49,5.83a4.77,4.77,0,0,0,1.66,3.44c-2.11.31-4,1.2-3.38,3.58s3.3,3.28,6,3.56c-2.18,1.54-3.4,3.88-.35,6.22,4.61,3.57,10.77,3.5,16.29,2-1.63,3-2.22,6.38.61,9.18a9.16,9.16,0,0,0,4.7,2.54c-.74,2-5.59,4.2-5.54,6.17.27,8.36,9.33,6.2,14.62,3.53-.54,3.43-.92,6.59,2.27,9.22,1.67,1.38,3.85,0,5.34-1.37,1.49,6.32,6.84,4,7.09.66,2.86,1.76,7,1.71,10.56.7a4.54,4.54,0,0,0,.63,4.08c2.24,3.31,7.76,1.19,11.69-.31-1.78,2.63-3.42,6.05,0,7.95a7.67,7.67,0,0,0,6.11,1.06,14.31,14.31,0,0,0,4.3-1.47c.09-.06,3.94-2.87,3.71-1.73-.93,4.55,1,9.17,5.45,10.71a3.55,3.55,0,0,0,4-1.51A11.27,11.27,0,0,0,226.4,202c.57-2-.8-2.77,1.15-1.58,1.16.7,7.34,4.21,7.2.16a7.74,7.74,0,0,0-2.34-5.43c-1.84-2,5.16.24,6.72.5,2.72.43,2.41-1.67,1.66-3.39.12,0,.25-.07.37-.11,1.05-.44,1.35-.74,1.36-1.1.22.72.46,1.45.75,2.15.67,1.59,1.54,4.44,3.49,5s2.23-3.28,2.3-4.09c.28-2.89-1.61-5.18-3.47-7.09-.51-.53-.56-.82-.36-1a10.67,10.67,0,0,0,1.37.26,17.53,17.53,0,0,0,5.21.19c1.25-.25,2.82-.22,3.72-1.22,1.1-1.22-1.92-3.46-5.36-5.17,1.64-.11,3.63-.11,4.59-1.47,1.42-2-3.58-4.24-4.66-4.76a42.1,42.1,0,0,0-4.62-1.87,14.07,14.07,0,0,0,2.75-.49c1.09-.35,4.1-1.28,4.41-2.58.26-1.14-1.3-1.9-2.16-2a15.07,15.07,0,0,0-1.54-.15h0c.82-.71,1.59-1.48,2.31-2.22,1.07-1.08,1.77-2.56.76-3.88s-3.75-1-5-1c-.42,0-.79,0-1.15,0a7.83,7.83,0,0,0-.43-.87c-.46-.82-1-1.65-1.49-2.46a6,6,0,0,0,4.67-1.09,3.71,3.71,0,0,0,1.32-2.69l.72.77a14.49,14.49,0,0,0,4.34,3.48,4.94,4.94,0,0,0,3.57.72c1.15-.36,1.24-2,.94-2.92a23.9,23.9,0,0,0-4.07-7.24c2.29,1.32,4.92,2.81,7.55,2.88,1.71,0,1-2.15.5-2.94a13.85,13.85,0,0,0-1.05-1.43c.32.18.65.34,1,.51.88.44,3.77,1.18,4.24-.31a2.6,2.6,0,0,0,.06-1.43c1,.61,2.16,1,2.83.18.94-1.19.24-2.52.27-3.88a16.2,16.2,0,0,0-.39-3.24,3.44,3.44,0,0,0,.67.81c2.7,2.28,5.67-1.92,7.67-4.72-1.78,5.3-2.89,11.21.81,15.87a3.25,3.25,0,0,0,4.78.37,5.11,5.11,0,0,0,1.48-3.19c.53.67,1.22,1.27,1.75,1.92a18.08,18.08,0,0,0,3.35,2.87c.8.58,3.68,3.27,4.78,2.1,1.28-1.35-.46-3.65-1.92-5.63,2.45,2.09,5.83,4,6.24.39.28-2.49-1-5.16-2-7.41-.35-.83-.74-1.64-1.15-2.43a2.67,2.67,0,0,0,.33-.12,9.38,9.38,0,0,0,3.52-3.27,17,17,0,0,0-.81,4.09c-.05,1.15-.31,2.75,1,3.31,1.68.73,3.29-.17,4.49-1.44a10.26,10.26,0,0,0,1.72-1.94c.39-.74.69-1.56,1.15-2.27a36.54,36.54,0,0,0,1.74,7.31c.52,1.44,1.22,4.13,2.68,4.95,2.56,1.46,1.69-3.95,1.09-6.76.8,1.25,1.54,2.55,2.45,3.74.67.89,1.32,1.78,2,2.68.76,1.05,1.81,2.66,3.22,2.88,1.66.26.8-4.21.67-4.83-.51-2.41-1.36-4.84-1.82-7.3a2.41,2.41,0,0,0,1,.35,5.83,5.83,0,0,0,4.31-1.65,11.66,11.66,0,0,0,1.89-2.32,38.16,38.16,0,0,0,.11,5.55,14.36,14.36,0,0,0,1.27,3.74c.24.56,1.11,2.36,2.05,1.61s1-2.83,1-4c0-1,0-1.91-.05-2.85a25.52,25.52,0,0,0,3.23,6,32.53,32.53,0,0,0,3.06,4.14c.71.76,1.29,1.87,2.27,2.29.1,0,.23.07.31-.05a1.58,1.58,0,0,0,.07-1.69c-.45-1.09-.86-2.22-1.26-3.33l1.16,1.11c.44.41,1.61,1.5,2.29.84,1.21-1.18.93-2.55,1.4-4v.05c0,.51-.07,1-.13,1.52s-.14,1.22-.24,1.82c-.25,1.4-.95,3.22-.49,4.62.54,1.63,2.24.91,3.78-.13a2.85,2.85,0,0,1-.23.37,22.16,22.16,0,0,0-2.06,3.18c-.74,1.48-2.06,3.8-1.51,5.52a3,3,0,0,0,2.53,2.2,6.13,6.13,0,0,0,4.2-.86c-2,2.76-4.56,5.09-4.67,8.69a2.14,2.14,0,0,0,.89,2.18,3.33,3.33,0,0,0,3-.12c.43-.3.88-.56,1.3-.87,1-.72,1.26-.75.68-.11s-1.29,1.41-1.85,2.19-1.07,1.87-.35,2.79c1.18,1.54,3.52.43,5.44-.62-1,1.26-2.12,2.69-2.09,3.87-2.07.51-3.54,1.72-2.87,4.35a8.38,8.38,0,0,0,2.38,3.88h0a14.85,14.85,0,0,0,7.21,3.71.4.4,0,0,1,.22.7c-.68.5-1.33,1-2,1.57.73.38,1.11.69.1,1.41-2.18,1.54-4.45,3.45-4.71,6.33-.06.82-.44,4.67,1.53,4.45s3.4-2.85,4.33-4.3c.42-.64.79-1.31,1.14-2-.06.36.19.7,1.14,1.33a8.5,8.5,0,0,0,1.94.9l-.1.25a5.53,5.53,0,0,0,.85,4.68c2.35,3.06,5.3.93,7.86-.75-.44,3.77-1.37,9.57,2.49,10.94,3.49,1.22,7.33,0,8.83-3a6.72,6.72,0,0,0,4.61,1.58c5.1-.12,8.37-2.12,10.72-5.68a6.23,6.23,0,0,0,3.35,3.5c2.24,1.07,4.42-.82,5.92-2.16,2.06-1.84,3.72-6.37,3.27-1-.29,3.44.67,7.19,4.48,7.4,4,.23,5.65-5,6.53-8.68,1.42,3.2,3.54,6.44,7.26,6.54,4.59.12,5.3-5.16,3.71-8.31-2-3.87,3.64-1.52,5.82-1.28,1.56.18,4.32.88,5.75-.22s-.29-3.88-1.18-4.74a32,32,0,0,0-4.92-3.76,11.2,11.2,0,0,0,7.32-1.28c2.72,0,5.17-.42,6-1.94a6.21,6.21,0,0,0,.35-.86,9.52,9.52,0,0,0,3.69-1.53c3.29-2.24,3.34-5.71,2.26-8.92,5.16,2.46,11.21,3.65,16.39,1,3.43-1.75,2.65-4.28.77-6.18,2.68.2,5.45-.16,6.51-2.43s-.64-3.44-2.66-4.13A4.76,4.76,0,0,0,481.2,170c1-3.13-3.46-5.4-6.31-7.08,3.36-.42,6.57-.92,8.95-3.73,3.38-4-1.52-7.8-4.43-10.46,3.91-.44,9.25-.39,11-4.16,2.47-5.27-4.78-7.29-9-8.69,2.57-.86,5.8-2.16,5.68-4.46-.23-4.87-6.43-4.63-10.5-4.2l.47-.58c1.33-1.77-.06-3.2-1.11-4.42-.72-.82-3.95-.79-4.83-.49-5.12,1.72-.15-3.9-.7-6.81a.53.53,0,0,0-.44-.48c-2.12-.64-4,1.21-5.72,2.31-3.18,2.06-1.72.31-.61-1.79.21-.1.45-.16.65-.26,2.49-1.22-1.9-5.5-4.13-7.53a21.72,21.72,0,0,0-4.89-3.26c-.36-.22-.72-.42-1.08-.61a8.14,8.14,0,0,0,2.09-1.54,1.78,1.78,0,0,0,1.15-1.93,4.68,4.68,0,0,0,.22-1.53c-.06-2.72-4.4-5.62-8.76-7.49a25.26,25.26,0,0,0,2.79-2.44c.59-.59,2.1-1.5,1.67-2.72-.94-2.72-3.83-3.89-6.68-4.72-.68-.2-1.4-.4-2.12-.59,1.61-1.61,2.61-3.47.63-4.78a13.31,13.31,0,0,0-2.44-1.24,10.42,10.42,0,0,0-3.13-1.64c.64-.85,1.28-1.72,2-2.5.87-.94,3.3-3.87,0-5.89s-8.08-2-11.06-2.27L429,61.82c.19-.11.4-.19.58-.29,1.13-.63,3.88-1.45,3.78-2.91-.23-3.14-4.5-4.52-8.21-5.78-1.84-.62-4.21-1.36-6.62-2,2.64-.93,6-2.35,5-4.3-1.72-3.14-7.52-4.43-11.22-5.24-1.8-.38-3.6-.81-5.41-1.2,1-1.76,3.22-5.47-.45-7.71s-7.9-2.48-11.54-2.13c-.29,0-1.91.31-3.83.66.61-2.64,1.14-6.39-1.56-8.43-3.67-2.76-8.7-1.57-12.08-1l-1.22.22c0-.94-.09-1.88-.18-2.83a5.27,5.27,0,0,0-3.54-4.68c-3.42-1.13-7.07-.29-9.71.38-1.54.4-3.07.82-4.48,1.32a11.2,11.2,0,0,0-1.55-4.45c-.56-2.06-1.5-4.84-5.12-5.51-4.22-.77-7.94,1.26-10.34,2.6-.32.18-.69.4-1.07.64a23,23,0,0,0-6.34,3.6A6.4,6.4,0,0,0,332.7,11a7.45,7.45,0,0,0-2.81-3.06c-1.5-1-6.21-4-8.6-2.11a14.82,14.82,0,0,0-2.93,5,1.34,1.34,0,0,0-.11.14,1.09,1.09,0,0,1-.08-.15,14.73,14.73,0,0,0-2-5.42c-2-2.31-7.18-.19-8.84.51A7.38,7.38,0,0,0,304,8.34,6.27,6.27,0,0,0,302.6,10,22.65,22.65,0,0,0,297,5.26c-.34-.3-.66-.59-.95-.82C294,2.68,290.67,0,286.39,0c-3.68,0-5.12,2.56-6.05,4.48A11.2,11.2,0,0,0,278,8.59c-1.3-.76-2.73-1.44-4.16-2.12-2.48-1.14-5.92-2.63-9.48-2.13A5.25,5.25,0,0,0,260,8.28c-.26.93-.48,1.85-.68,2.76l-1.17-.43c-3.22-1.18-7.94-3.27-12.05-1.22-3,1.51-3.19,5.3-3.07,8-1.83-.69-3.38-1.25-3.65-1.33-3.53-1-7.56-1.61-11.74,0-4,1.53-2.52,5.58-1.85,7.5-1.84.05-3.69.15-5.53.2-3.79.12-9.72.33-12,3.11-1.4,1.72,1.69,3.74,4.11,5.13-2.49.16-4.95.45-6.87.73-3.87.57-8.32,1.15-9.12,4.2-.36,1.41,2.19,2.71,3.19,3.54.17.14.35.26.52.39l-1.62-.11c-3-.32-7.64-1.19-11.29.22s-1.74,4.71-1,5.8c.55.89,1,1.86,1.51,2.82a10.54,10.54,0,0,0-3.38,1,12.43,12.43,0,0,0-2.62.78c-2.19.93-1.55,2.93-.25,4.82-.75.05-1.49.11-2.2.19-3,.3-6,.92-7.43,3.43-.64,1.12.68,2.28,1.15,3a25.1,25.1,0,0,0,2.3,2.91c-4.63,1-9.42,3.11-10,5.78a5.07,5.07,0,0,0-.07,1.54,1.81,1.81,0,0,0,.78,2.11A8.35,8.35,0,0,0,167.78,77l-1.18.4a21.63,21.63,0,0,0-5.39,2.32c-2.56,1.58-7.66,5-5.43,6.66.18.13.4.24.6.37.7,2.27,1.82,4.25-.94,1.65-1.46-1.39-3-3.55-5.21-3.32a.53.53,0,0,0-.51.39c-1.08,2.77,2.79,9.19-1.92,6.57-.82-.45-4-1.07-4.84-.39-1.26,1-2.88,2.16-1.89,4.14.1.22.22.44.34.67-3.92-1.17-10-2.54-11.09,2.21-.53,2.25,2.41,4.11,4.78,5.43C130.66,104.73,123.16,105.4,124.64,111Z" transform="translate(-48.35 0)"/><path class="at" d="M127.38,144.75c.65,2.42,3.3,3.28,6,3.56-2.18,1.54-3.4,3.88-.35,6.22,4.61,3.57,10.77,3.5,16.29,2-1.63,3-2.22,6.38.61,9.18a9.16,9.16,0,0,0,4.7,2.54c-.74,2-5.59,4.2-5.54,6.17.27,8.36,9.33,6.2,14.62,3.53-.54,3.43-.92,6.59,2.27,9.22,1.67,1.38,3.85,0,5.34-1.37,1.49,6.32,6.84,4,7.09.66,2.86,1.76,7,1.71,10.56.7a4.54,4.54,0,0,0,.63,4.08c2.24,3.31,7.76,1.19,11.69-.31-1.78,2.63-3.42,6.05,0,7.95a7.67,7.67,0,0,0,6.11,1.06,14.31,14.31,0,0,0,4.3-1.47c.09-.06,3.94-2.87,3.71-1.73-.93,4.55,1,9.17,5.45,10.71a3.55,3.55,0,0,0,4-1.51A11.27,11.27,0,0,0,226.4,202c.57-2-.8-2.77,1.15-1.58,1.16.7,7.34,4.21,7.2.16a7.74,7.74,0,0,0-2.34-5.43c-1.84-2,5.16.24,6.72.5,2.72.43,2.41-1.67,1.66-3.39.12,0,.25-.07.37-.11,1.05-.44,1.35-.74,1.36-1.1.22.72.46,1.45.75,2.15.67,1.59,1.54,4.44,3.49,5s2.23-3.28,2.3-4.09c.28-2.89-1.61-5.18-3.47-7.09-.51-.53-.56-.82-.36-1a10.67,10.67,0,0,0,1.37.26,17.53,17.53,0,0,0,5.21.19c1.25-.25,2.82-.22,3.72-1.22,1.1-1.22-1.92-3.46-5.36-5.17,1.64-.11,3.63-.11,4.59-1.47,1.42-2-3.58-4.24-4.66-4.76a42.1,42.1,0,0,0-4.62-1.87,14.07,14.07,0,0,0,2.75-.49c1.09-.35,4.1-1.28,4.41-2.58.26-1.14-1.3-1.9-2.16-2a15.07,15.07,0,0,0-1.54-.15h0c.82-.71,1.59-1.48,2.31-2.22,1.07-1.08,1.77-2.56.76-3.88s-3.75-1-5-1c-.42,0-.79,0-1.15,0a7.83,7.83,0,0,0-.43-.87c-.46-.82-1-1.65-1.49-2.46a6,6,0,0,0,4.67-1.09,3.71,3.71,0,0,0,1.32-2.69l.72.77a14.49,14.49,0,0,0,4.34,3.48,4.94,4.94,0,0,0,3.57.72c1.15-.36,1.24-2,.94-2.92a23.9,23.9,0,0,0-4.07-7.24c2.29,1.32,4.92,2.81,7.55,2.88,1.71,0,1-2.15.5-2.94a13.85,13.85,0,0,0-1.05-1.43c.32.18.65.34,1,.51.88.44,3.77,1.18,4.24-.31a2.6,2.6,0,0,0,.06-1.43c1,.61,2.16,1,2.83.18.94-1.19.24-2.52.27-3.88a16.2,16.2,0,0,0-.39-3.24,3.44,3.44,0,0,0,.67.81c2.7,2.28,5.67-1.92,7.67-4.72-1.78,5.3-2.89,11.21.81,15.87a3.25,3.25,0,0,0,4.78.37,5.11,5.11,0,0,0,1.48-3.19c.53.67,1.22,1.27,1.75,1.92a18.08,18.08,0,0,0,3.35,2.87c.8.58,3.68,3.27,4.78,2.1,1.28-1.35-.46-3.65-1.92-5.63,2.45,2.09,5.83,4,6.24.39.28-2.49-1-5.16-2-7.41-.35-.83-.74-1.64-1.15-2.43a2.67,2.67,0,0,0,.33-.12,9.38,9.38,0,0,0,3.52-3.27,17,17,0,0,0-.81,4.09c-.05,1.15-.31,2.75,1,3.31,1.68.73,3.29-.17,4.49-1.44a10.26,10.26,0,0,0,1.72-1.94c.39-.74.69-1.56,1.15-2.27a36.54,36.54,0,0,0,1.74,7.31c.52,1.44,1.22,4.13,2.68,4.95,2.56,1.46,1.69-3.95,1.09-6.76.8,1.25,1.54,2.55,2.45,3.74.67.89,1.32,1.78,2,2.68.76,1.05,1.81,2.66,3.22,2.88,1.66.26.8-4.21.67-4.83-.51-2.41-1.36-4.84-1.82-7.3a2.41,2.41,0,0,0,1,.35,5.83,5.83,0,0,0,4.31-1.65,11.66,11.66,0,0,0,1.89-2.32,38.16,38.16,0,0,0,.11,5.55,14.36,14.36,0,0,0,1.27,3.74c.24.56,1.11,2.36,2.05,1.61s1-2.83,1-4c0-1,0-1.91-.05-2.85a25.52,25.52,0,0,0,3.23,6,32.53,32.53,0,0,0,3.06,4.14c.71.76,1.29,1.87,2.27,2.29.1,0,.23.07.31-.05a1.58,1.58,0,0,0,.07-1.69c-.45-1.09-.86-2.22-1.26-3.33l1.16,1.11c.44.41,1.61,1.5,2.29.84,1.21-1.18.93-2.55,1.4-4v.05c0,.51-.07,1-.13,1.52s-.14,1.22-.24,1.82c-.25,1.4-.95,3.22-.49,4.62.54,1.63,2.24.91,3.78-.13a2.85,2.85,0,0,1-.23.37,22.16,22.16,0,0,0-2.06,3.18c-.74,1.48-2.06,3.8-1.51,5.52a3,3,0,0,0,2.53,2.2,6.13,6.13,0,0,0,4.2-.86c-2,2.76-4.56,5.09-4.67,8.69a2.14,2.14,0,0,0,.89,2.18,3.33,3.33,0,0,0,3-.12c.43-.3.88-.56,1.3-.87,1-.72,1.26-.75.68-.11s-1.29,1.41-1.85,2.19-1.07,1.87-.35,2.79c1.18,1.54,3.52.43,5.44-.62-1,1.26-2.12,2.69-2.09,3.87-2.07.51-3.54,1.72-2.87,4.35a8.38,8.38,0,0,0,2.38,3.88h0a14.85,14.85,0,0,0,7.21,3.71.4.4,0,0,1,.22.7c-.68.5-1.33,1-2,1.57.73.38,1.11.69.1,1.41-2.18,1.54-4.45,3.45-4.71,6.33-.06.82-.44,4.67,1.53,4.45s3.4-2.85,4.33-4.3c.42-.64.79-1.31,1.14-2-.06.36.19.7,1.14,1.33a8.5,8.5,0,0,0,1.94.9l-.1.25a5.53,5.53,0,0,0,.85,4.68c2.35,3.06,5.3.93,7.86-.75-.44,3.77-1.37,9.57,2.49,10.94,3.49,1.22,7.33,0,8.83-3a6.72,6.72,0,0,0,4.61,1.58c5.1-.12,8.37-2.12,10.72-5.68a6.23,6.23,0,0,0,3.35,3.5c2.24,1.07,4.42-.82,5.92-2.16,2.06-1.84,3.72-6.37,3.27-1-.29,3.44.67,7.19,4.48,7.4,4,.23,5.65-5,6.53-8.68,1.42,3.2,3.54,6.44,7.26,6.54,4.59.12,5.3-5.16,3.71-8.31-2-3.87,3.64-1.52,5.82-1.28,1.56.18,4.32.88,5.75-.22s-.29-3.88-1.18-4.74a32,32,0,0,0-4.92-3.76,11.2,11.2,0,0,0,7.32-1.28c2.72,0,5.17-.42,6-1.94a6.21,6.21,0,0,0,.35-.86,9.52,9.52,0,0,0,3.69-1.53c3.29-2.24,3.34-5.71,2.26-8.92,5.16,2.46,11.21,3.65,16.39,1,3.43-1.75,2.65-4.28.77-6.18,2.68.2,5.45-.16,6.51-2.43s-.64-3.44-2.66-4.13A4.76,4.76,0,0,0,481.2,170c1-3.13-3.46-5.4-6.31-7.08,3.36-.42,6.57-.92,8.95-3.73,3.38-4-1.52-7.8-4.43-10.46,3.91-.44,9.25-.39,11-4.16,2.47-5.27-4.78-7.29-9-8.69,2.57-.86,5.8-2.16,5.68-4.46-.23-4.87-6.43-4.63-10.5-4.2l.47-.58c1.33-1.77-.06-3.2-1.11-4.42-.72-.82-3.95-.79-4.83-.49-5.12,1.72-.15-3.9-.7-6.81a.53.53,0,0,0-.44-.48c-2.12-.64-4,1.21-5.72,2.31-3.18,2.06-1.72.31-.61-1.79.21-.1.45-.16.65-.26,2.49-1.22-1.9-5.5-4.13-7.53a21.72,21.72,0,0,0-4.89-3.26c-.36-.22-.72-.42-1.08-.61a8.14,8.14,0,0,0,2.09-1.54,1.78,1.78,0,0,0,1.15-1.93,4.68,4.68,0,0,0,.22-1.53c-.06-2.72-4.4-5.62-8.76-7.49a25.26,25.26,0,0,0,2.79-2.44c.59-.59,2.1-1.5,1.67-2.72-.94-2.72-3.83-3.89-6.68-4.72-.68-.2-1.4-.4-2.12-.59,1.61-1.61,2.61-3.47.63-4.78a13.31,13.31,0,0,0-2.44-1.24,10.42,10.42,0,0,0-3.13-1.64c.64-.85,1.28-1.72,2-2.5.87-.94,3.3-3.87,0-5.89s-8.08-2-11.06-2.27L429,61.82c.19-.11.4-.19.58-.29,1.13-.63,3.88-1.45,3.78-2.91-.23-3.14-4.5-4.52-8.21-5.78-1.84-.62-4.21-1.36-6.62-2,2.64-.93,6-2.35,5-4.3-1.72-3.14-7.52-4.43-11.22-5.24-1.8-.38-3.6-.81-5.41-1.2,1-1.76,3.22-5.47-.45-7.71s-7.9-2.48-11.54-2.13c-.29,0-1.91.31-3.83.66.61-2.64,1.14-6.39-1.56-8.43-3.67-2.76-8.7-1.57-12.08-1l-1.22.22c0-.94-.09-1.88-.18-2.83a5.27,5.27,0,0,0-3.54-4.68c-3.42-1.13-7.07-.29-9.71.38-1.54.4-3.07.82-4.48,1.32a11.2,11.2,0,0,0-1.55-4.45c-.56-2.06-1.5-4.84-5.12-5.51-4.22-.77-7.94,1.26-10.34,2.6-.32.18-.69.4-1.07.64a23,23,0,0,0-6.34,3.6A6.4,6.4,0,0,0,332.7,11a7.45,7.45,0,0,0-2.81-3.06c-1.5-1-6.21-4-8.6-2.11a14.82,14.82,0,0,0-2.93,5,1.34,1.34,0,0,0-.11.14,1.09,1.09,0,0,1-.08-.15,14.73,14.73,0,0,0-2-5.42c-2-2.31-7.18-.19-8.84.51A7.38,7.38,0,0,0,304,8.34,6.27,6.27,0,0,0,302.6,10,22.65,22.65,0,0,0,297,5.26c-.34-.3-.66-.59-.95-.82C294,2.68,290.67,0,286.39,0c-3.68,0-5.12,2.56-6.05,4.48A11.2,11.2,0,0,0,278,8.59c-1.3-.76-2.73-1.44-4.16-2.12-2.48-1.14-5.92-2.63-9.48-2.13A5.25,5.25,0,0,0,260,8.28c-.26.93-.48,1.85-.68,2.76l-1.17-.43c-3.22-1.18-7.94-3.27-12.05-1.22-3,1.51-3.19,5.3-3.07,8-1.83-.69-3.38-1.25-3.65-1.33-3.53-1-7.56-1.61-11.74,0-4,1.53-2.52,5.58-1.85,7.5-1.84.05-3.69.15-5.53.2-3.79.12-9.72.33-12,3.11-1.4,1.72,1.69,3.74,4.11,5.13-2.49.16-4.95.45-6.87.73-3.87.57-8.32,1.15-9.12,4.2-.36,1.41,2.19,2.71,3.19,3.54.17.14.35.26.52.39l-1.62-.11c-3-.32-7.64-1.19-11.29.22s-1.74,4.71-1,5.8c.55.89,1,1.86,1.51,2.82a10.54,10.54,0,0,0-3.38,1,12.43,12.43,0,0,0-2.62.78c-2.19.93-1.55,2.93-.25,4.82-.75.05-1.49.11-2.2.19-3,.3-6,.92-7.43,3.43-.64,1.12.68,2.28,1.15,3a25.1,25.1,0,0,0,2.3,2.91c-4.63,1-9.42,3.11-10,5.78a5.07,5.07,0,0,0-.07,1.54,1.81,1.81,0,0,0,.78,2.11A8.35,8.35,0,0,0,167.78,77l-1.18.4a21.63,21.63,0,0,0-5.39,2.32c-2.56,1.58-7.66,5-5.43,6.66.18.13.4.24.6.37.7,2.27,1.82,4.25-.94,1.65-1.46-1.39-3-3.55-5.21-3.32a.53.53,0,0,0-.51.39c-1.08,2.77,2.79,9.19-1.92,6.57-.82-.45-4-1.07-4.84-.39-1.26,1-2.88,2.16-1.89,4.14.1.22.22.44.34.67-3.92-1.17-10-2.54-11.09,2.21-.53,2.25,2.41,4.11,4.78,5.43-4.44.59-11.94,1.26-10.46,6.89,1,4,6.32,5,10.08,6.1-3.34,2.08-8.85,4.91-6.25,9.48,1.83,3.2,4.89,4.27,8.12,5.29-3.11,1.14-7.91,2.56-7.49,5.83a4.77,4.77,0,0,0,1.66,3.44C128.65,141.48,126.76,142.37,127.38,144.75ZM255.3,59.65a3.41,3.41,0,0,1,2.86-2.79c1.69-.33,3.41,1,4.54,2,3,2.84,4.72,6.43,6.88,9.81-.78-3.54-2.26-9.82,1.38-9.58,2.83.17,4.74,3.07,5.78,5.35,1.38,3,1.81,6.63,3.62,9.45.54-4.05.46-16.33,5.19-14.81,2.95.94,2.13,6.21,1.83,8.37l-.06.3c1.58-2.62,3.71-5.74,6.15-2.84,2,2.42.75,7.06-.54,10.15a23.45,23.45,0,0,1,2.27-1.94,28.24,28.24,0,0,1,4.46-2.66.4.4,0,0,1,.56.4A7.92,7.92,0,0,1,300,72c4.43-3.34,11-5,15.49-2.31s-.2,6.53-4.17,8.69c6.54-1.07,13.52-.29,19.11,3.41a.39.39,0,0,1,0,.63c-6.25,4.79-16.21,4.72-23.8,1.85a5.36,5.36,0,0,1,.48.85.4.4,0,0,1-.2.53,4.8,4.8,0,0,1-3.44,0c2.2,3,4.82,5.84,4.6,9.87a.39.39,0,0,1-.43.36c-3.39-.46-6.07-4-8.05-6.46a89.52,89.52,0,0,1-6-8.79l-.18.06c-.1,3.3-1.05,6.6-4.05,8.4a.38.38,0,0,1-.4,0c-.23-.16-.44-.35-.65-.52,0,.31-.05.62-.08.92-.28,2.91-.9,8.94-4.66,9.52a.46.46,0,0,1-.38-.14c-2.79-3.61-2.09-8.25-1.84-12.64-.8,3.49-2.12,7.86-5.33,6.92-4.65-1.38-4.44-7.75-1.18-10.37-4,.08-9.21-1.33-10-5.19-.67-3.19,1.93-4,4.69-3.69A78.74,78.74,0,0,1,263,69.38C260.28,67.29,255.07,63.63,255.3,59.65Zm-9.09-19.51c1.68-2,5.07-2.53,8-2.72A19,19,0,0,1,251,35.61a.41.41,0,0,1-.09-.56c2.11-2.58,6.24-1.57,9.44-.27-.95-1-1.69-2.14-1.22-3.18.92-2.07,4.39-1.72,6.19-1.36,4.54.92,8.89,3.88,12.55,7.12a19,19,0,0,1-3-8.58.4.4,0,0,1,.31-.46,6.85,6.85,0,0,1,4.37,1.21,22.93,22.93,0,0,1-1.76-8.17.41.41,0,0,1,.43-.36c3.84,0,6.86,3.14,9.15,5.86.35.41.68.83,1,1.25a5.49,5.49,0,0,1,.06-1,.4.4,0,0,1,.53-.33c4.82,1.51,8.77,4.59,12.4,8a7.6,7.6,0,0,1-1.33-5c.32-1.74,2.23-1.87,3.64-1.56,4.48,1,8.63,5.17,10,9.67,1.15-6.08.29-12.58,3-18.28a.41.41,0,0,1,.68-.12c2.32,2.92,3.41,6.65,4.22,10.25A49.71,49.71,0,0,1,328.3,38c-1.94-5.06-3.82-10.87-2.31-16a.4.4,0,0,1,.52-.23A11,11,0,0,1,331.76,26c.17-3.33,1.2-6.33,4.37-8a.4.4,0,0,1,.47.1c3.35,3.41,4.11,8.48,4.47,13.18,1.07-3.74,3-7.16,6.64-9a.4.4,0,0,1,.56.29c1,3.35.43,6.9-.26,10.32,1.88-3,4.53-5.92,7.71-7.26,3.45-1.44,6.21,1.24,6.68,4.53.61,4.27-1.21,9-3,12.76a30.07,30.07,0,0,1-3.21,5.51,27.71,27.71,0,0,1,8.16-1.92.4.4,0,0,1,.39.62,20.05,20.05,0,0,1-5,5.47,48,48,0,0,1,15.83-1.75c5.39.21,12.56,1.36,15.35,6.65a.38.38,0,0,1-.1.47c-5.38,5-13.38,5.46-20.44,6.23,3.58,1.1,7.09,2.38,10.57,3.77a.4.4,0,0,1-.18.77,52.61,52.61,0,0,1-13.54-1.36,51.39,51.39,0,0,1,8.13,5.15l.3.25c2.16-1.25,5.19,1.74,7.52,5-.81-5,.59-10.69,4.8-13a.4.4,0,0,1,.56.4c-.5,3-1.15,6.07-1.85,9.08,2.44-3.85,4.87-8.07,9.06-10.09a.4.4,0,0,1,.56.28,48,48,0,0,1-.11,7.09c.35-.72,1.08-1.12,2.4-1,2.43.32,5,3,6.51,5.47a55.74,55.74,0,0,1,0-8.57c.12-1.87.33-7.36,3.32-7.08,2.63.24,2,5.38,1.94,7l-.06,1.08c.25-.4.51-.78.78-1.16,1.15-1.6,2.9-3.57,5-3.58,2.38,0,2.71,3.62,2.8,5.24a24.81,24.81,0,0,1-.34,5.92,35,35,0,0,1,6.5-6.44.41.41,0,0,1,.66.34c0,4-1.65,7.75-3.11,11.46a23.74,23.74,0,0,1,8.5-5c2.75-1,7.39-1.16,7.74,2.75.28,3.14-2.82,6.25-5.4,8.48a3.45,3.45,0,0,1,1,1.4c.81,1.89-.05,4.42-.66,6.24a29.92,29.92,0,0,1-1.95,4.52,13.72,13.72,0,0,1,9.07-3,.4.4,0,0,1,.29.62,15.37,15.37,0,0,1-5.5,5.15,10,10,0,0,1,5.76,2,.41.41,0,0,1,0,.63c-1.95,1.64-4.82,2-7.28,2.07-1,0-2.07,0-3.12,0q1.44.64,2.82,1.41a.39.39,0,0,1-.06.67,16.65,16.65,0,0,1-9.31,0,7,7,0,0,1,1.69,3.68c0,.27.05.54.07.79,1.54-2,3.39-3.69,4.71-1.36a2.3,2.3,0,0,1,.26.83,14.28,14.28,0,0,1,3.37-2.47.39.39,0,0,1,.52.19c1.52,3.44.55,7.08,0,10.64,1.6-2.5,3.43-5.08,6.55-5.44a.41.41,0,0,1,.47.33,7.68,7.68,0,0,1-.55,4.8c3.75-3.32,10.08-5.35,14.16-3.13s-1,7.76-4.13,10.47a13.62,13.62,0,0,1,10.14,1.12c.24.14.17.46,0,.63a6.69,6.69,0,0,1-1.39,1.16,26,26,0,0,1,8.75,2.52c2,1,4.74,3.39,2.47,5.57s-6.58,2.69-9.74,3.05a18.68,18.68,0,0,1,8.27,7.4.38.38,0,0,1-.28.55,11.25,11.25,0,0,1-4.69-.46c4.47,2.34,10.62,6.2,7.18,8.28-2.67,1.63-7.25.78-10.16.44-1.31-.16-2.6-.39-3.9-.64a41,41,0,0,1,5.65,6.12,8.27,8.27,0,0,1,1.93,2.82,41.26,41.26,0,0,1,3,5.65.42.42,0,0,1-.2.53c-3.9,1.92-8.62.65-12.45-.82l-.28-.11a14.18,14.18,0,0,1,1.69,4.52.41.41,0,0,1-.54.44l-3.53-1a22.29,22.29,0,0,0,2.58,3.92.4.4,0,0,1-.13.61c-5.06,2.4-10.74.18-15-2.78a27.07,27.07,0,0,1-4.42-3.82c.33,1.43.76,4.13-1,2.85-4.35-3.09-8.73-6.86-10.65-11.94-.5,1.89-1.86,3.61-4,3.56-2.63-.06-4.11-2.51-4.27-4.91a10.4,10.4,0,0,1,.13-2.29c-3.11,2.91-7.24,4.78-10.63,4.18-.16,0-.35-.15-.36-.33a13.17,13.17,0,0,1,1.91-7.15,115.35,115.35,0,0,1-11.09,6.29.4.4,0,0,1-.56-.4,14.1,14.1,0,0,1,3.4-8.78l-.18.11c-1.67.94-3.72,2.1-5.72,2-2.83-.16-2.62-4.24-2.22-7.27l-1.7.93c-2.75,1.49-7.11,3.62-10.22,2s-1-4.21,1-5.44a22.61,22.61,0,0,1,4.33-2c-5,.29-10.14-.19-14.4-2.4a.4.4,0,0,1-.24-.5c1.93-7.09,10.07-8.09,16.31-5.9-1.87-1.59-3.57-3.52-2.68-5.13,1.08-1.92,3.25-1.36,5.28-.1a29.24,29.24,0,0,1-3.83-6.13,1.8,1.8,0,0,1-.39-.92,17.89,17.89,0,0,1-.76-2.49,21.58,21.58,0,0,1-4.64,4.14c-.27.18-.59-.12-.57-.39.2-3.15,2.33-5.39,4.36-7.61-3.5,1.28-10.7,3.7-10-.77.34-2.29,3.79-3.74,5.57-4.6.86-.41,1.74-.78,2.63-1.14-1.17,0-2.32,0-3.36,0-2.81,0-7.32,0-9.43-2.3-2.59-2.77,1.11-5,5.3-6.23a4.11,4.11,0,0,1-2.47-1c-2.11-2.17,1.05-4.22,3.71-5.25a52,52,0,0,1-8.15-1.5c-3.89-1-8.38-2.32-11.38-5.13-1.59-1.49-3.61-5.07-.38-6a12.18,12.18,0,0,1,4.77-.25,38.83,38.83,0,0,1-5.05-3,.4.4,0,0,1,.07-.68,15.82,15.82,0,0,1,8.71-.17A38.61,38.61,0,0,1,352,67.47a26.9,26.9,0,0,1,.41,6.21.4.4,0,0,1-.63.29,29.85,29.85,0,0,1-5.12-6.49,6.57,6.57,0,0,0-1.07,2.09.3.3,0,0,1-.23.22c.11.62.2,1.23.27,1.85.2,2,0,4.17-1.57,5.56-1.35,1.21-3.34,1.06-4.9.47-4.78-1.82-8.23-7.28-10.82-11.38-.62-1-1.27-2-1.89-3.07a21.76,21.76,0,0,1,.74,7,.38.38,0,0,1-.42.35c-4-.5-5.59-4.78-6.53-8.13A40.08,40.08,0,0,1,319,55.74l-.68,1.17a28.67,28.67,0,0,1-6.72,8.5c-1.94,1.51-4.26,1.74-5.7-.55-1.63-2.59-.14-6.54.8-9.6-3,3.63-6.26,7.52-10.72,9.21a.4.4,0,0,1-.47-.11c-2.34-3.28-.62-7.5,1.07-10.67a52.4,52.4,0,0,1,6.55-9.21,80.94,80.94,0,0,1-19.79,8.14c-7.19,1.78-15.69,2.1-21.49-3.25a.39.39,0,0,1-.09-.55,10.17,10.17,0,0,1,1.81-1.89,38.46,38.46,0,0,1-11.94-.48C249,45.9,243.26,43.71,246.21,40.14Z" transform="translate(-48.35 0)"/><path class="at" d="M234.82,77.3a6.26,6.26,0,0,1,2-.31A11.84,11.84,0,0,1,234.82,77.3Z" transform="translate(-48.35 0)"/><path class="au" d="M442,66.63c-2.62-.6-5.49.33-7.8,1.74.1-1-.69-1.71-2.16-1.55a5.51,5.51,0,0,0-4.4,3c-.09-2.59,0-5.38-2-7.22-2.51-2.4-6.53-.34-9.56,0a33.56,33.56,0,0,1,2.07-3,3,3,0,0,0,.79-1.83c-.21-1.92-3.33-2.57-4.85-2.67-5.55-.37-11.4,2.48-15.41,6.3.64-3.72,3.09-6.58,4.59-10a.4.4,0,0,0-.44-.54c-2.94.17-4.93,2.57-7.24,4.16,1-4.05,5.12-6.28,6.68-10.11a.4.4,0,0,0-.44-.53c-3.31.35-5.66,2.59-8.06,4.67-.18-3,.85-6.28-1-8.85a.4.4,0,0,0-.56-.05c-2,1.42-2.68,3.76-3.73,5.87-1.27-3.64-2.13-7.88-4.93-10.64-.87-.86-2.56-1.46-3.58-.42a3.28,3.28,0,0,0-.91,2.13c-.82-1.76-1.84-3.48-3.59-4-2.61-.77-5.11,2.15-7.19,3.45-.6-2.93,1-6.2.76-9.16s-2.66-2.58-4.71-1.55c.64-1.84,1.67-3.56,1.6-5.58a3.13,3.13,0,0,0-2.68-3c-4-.2-7.72,2.77-11.33,4.23-.18-2.36.48-7.27-2.08-8.24-1-.39-2.87,1-3.66,1.49a11.37,11.37,0,0,1-2.59,1.56c-1,.36-.78-.92-.8-1.61,0-1.58.44-5.13-.85-6.65,2.39-1.29,5.77-2.86,9.56-2.17,3.62.67,4.56,3.45,5.12,5.51a11.2,11.2,0,0,1,1.55,4.45c1.41-.5,2.94-.92,4.48-1.32,2.64-.67,6.29-1.51,9.71-.38A5.27,5.27,0,0,1,376,18.91c.09.95.14,1.89.18,2.83l1.22-.22c3.38-.57,8.41-1.76,12.08,1,2.7,2,2.17,5.79,1.56,8.43,1.92-.35,3.54-.62,3.83-.66,3.64-.35,7.72-.2,11.54,2.13s1.47,5.95.45,7.71c1.81.39,3.61.82,5.41,1.2,3.7.81,9.5,2.1,11.22,5.24,1.07,2-2.33,3.37-5,4.3,2.41.61,4.78,1.35,6.62,2,3.71,1.26,8,2.64,8.21,5.78.1,1.46-2.65,2.28-3.78,2.91-.18.1-.39.18-.58.29l1.61.18c3,.23,7.73.22,11.06,2.27a2.84,2.84,0,0,1,1.63,3A2.78,2.78,0,0,0,442,66.63Z" transform="translate(-48.35 0)"/><path class="au" d="M289.91,7.87a55.16,55.16,0,0,0,3,7.43c-2.08-1.88-4.2-3.78-6.93-4.61a.39.39,0,0,0-.5.23c-.55,1.91.12,3.76.2,5.68-2.08-1-4.26-2.46-6.59-2.3a7.69,7.69,0,0,0-5.34,2.78c-2.27,2.74-3,6.21-3.93,9.59-.14-5.11.62-11.31-3.17-15a.4.4,0,0,0-.55,0c-2.92,2.43-3,6.39-3,10-1.51-2.61-4.3-6.64-6.82-4-1.46,1.54-.05,4.24,1.3,6.39a36.37,36.37,0,0,0-5.8-3.73c-2.13-1.12-5.88-3.06-8.05-1s1.1,6,2.55,7.6c1,1.06,2,2.07,3.13,3a10.25,10.25,0,0,0-6.79-.83.42.42,0,0,0-.3.56,8.57,8.57,0,0,0,2.24,3.13,5.3,5.3,0,0,0-4.45.21c-1.9,1.16-1.95,3.94-1.78,5.89A43.79,43.79,0,0,0,242.47,53a10.61,10.61,0,0,0-4.28-2.73c-3.44-1-3.61,2.59-3.55,5.34-.57-1.72-1.07-3.55-2.36-4.74s-2.91-.26-3.55,1.23c-1.39,3.26-1.23,7.17-.85,10.91a32.94,32.94,0,0,0-2.5-6.47c-1.16-2.13-3.32-5.15-6.19-4.21-2.51.82-3.18,4.09-3.51,6.37-.12.9-.2,1.81-.26,2.72-.11-3.62-.2-7.28-1.59-10.61-.71-1.69-2.21-3.53-4.29-2.81-2.37.82-3.75,3.2-5.34,5.06.06-2-.22-4-1.71-5.44a.41.41,0,0,0-.56-.06c-4.6,3.92-1.29,11.66.43,16.82-2.33-2.32-4.75-4.67-8.14-5.14a.4.4,0,0,0-.4.26c-.87,2.74.69,5.27,2.57,7.5-3.11-2.29-6.55-4.18-10.46-4.25a.39.39,0,0,0-.4.55c2.18,4.33,6.45,6.72,9.64,10.18-5.87-1.62-11.77-3.62-17.87-3.87-2.8-.11-6,0-8.53,1.19a12.29,12.29,0,0,0-3.61,2.76,2.75,2.75,0,0,1,.06-.47,5.07,5.07,0,0,1,.07-1.54c.55-2.67,5.34-4.73,10-5.78a25.1,25.1,0,0,1-2.3-2.91c-.47-.69-1.79-1.85-1.15-3,1.42-2.51,4.48-3.13,7.43-3.43.71-.08,1.45-.14,2.2-.19-1.3-1.89-1.94-3.89.25-4.82a12.43,12.43,0,0,1,2.62-.78,10.54,10.54,0,0,1,3.38-1c-.48-1-1-1.93-1.51-2.82-.69-1.09-2.54-4.4,1-5.8s8.32-.54,11.29-.22l1.62.11c-.17-.13-.35-.25-.52-.39-1-.83-3.55-2.13-3.19-3.54.8-3.05,5.25-3.63,9.12-4.2,1.92-.28,4.38-.57,6.87-.73-2.42-1.39-5.51-3.41-4.11-5.13,2.27-2.78,8.2-3,12-3.11,1.84-.05,3.69-.15,5.53-.2-.67-1.92-2.17-6,1.85-7.5,4.18-1.6,8.21-1,11.74,0,.27.08,1.82.64,3.65,1.33-.12-2.7,0-6.49,3.07-8,4.11-2.05,8.83,0,12.05,1.22l1.17.43c.2-.91.42-1.83.68-2.76a5.25,5.25,0,0,1,4.34-3.94c3.56-.5,7,1,9.48,2.13,1.43.68,2.86,1.36,4.16,2.12a11.2,11.2,0,0,1,2.32-4.11c.93-1.92,2.37-4.48,6.05-4.48a11.1,11.1,0,0,1,3.87.74C288.66,2.61,289.27,5.77,289.91,7.87Z" transform="translate(-48.35 0)"/><path class="at" d="M135.1,104.14c-2.37-1.32-5.31-3.18-4.78-5.43,1.12-4.75,7.17-3.38,11.09-2.21-.12-.23-.24-.45-.34-.67-1-2,.63-3.13,1.89-4.14.84-.68,4-.06,4.84.39,4.71,2.62.84-3.8,1.92-6.57a.53.53,0,0,1,.51-.39c2.21-.23,3.75,1.93,5.21,3.32,2.76,2.6,1.64.62.94-1.65-.2-.13-.42-.24-.6-.37-2.23-1.65,2.87-5.08,5.43-6.66.16-.1.32-.17.47-.27-2,2.16-3.32,4.79-3,7.83a13.79,13.79,0,0,0,2.42,6.1c-2-1.31-4.36-2.94-6.76-3.4-1.83-.36-2.32,1.19-1.92,2.74a10.68,10.68,0,0,0,.67,1.76,24.54,24.54,0,0,0-4.63-.63c-1.47,0-4,.13-3.75,2.2.23,1.76,2.86,2.87,5,3.64-2-.21-4-.74-5.87-1-2.11-.24-5.4-.89-7.35.38-2.82,1.85,0,4.69,3,6.85-2.6.71-5.11,1.88-6,4.1-2,5.11,7.84,6.66,12.83,7.37a23.8,23.8,0,0,0-6.35,3.08c-1.25,1-2.23,2.66-1.6,4.26.8,2,3.16,3,5.07,3.65a40,40,0,0,0,5.51,1.4c-1.69.5-3.41,1.28-4,2.66-1.63,3.77,4,3.61,8.76,3-6.23,1.59-14.61,4.16-12.29,8.69s9.33,4.17,13.48,4.15c2.57,0,5.33,0,8.07-.15a8.33,8.33,0,0,0-2.37,3.15.41.41,0,0,0,.23.52c3.78,1,8.06.1,11.74-1.66a29.64,29.64,0,0,0-4.73,9.26.4.4,0,0,0,.44.53c5.72-1.22,11.15-3.4,14.94-7.84-1.9,6.41-3.72,14.06,0,19.93a.41.41,0,0,0,.53.19c2.43-.92,3.67-3.52,4.5-6.19.11,2.77.68,5.54.84,8.3a.4.4,0,0,0,.71.17,19.37,19.37,0,0,0,1.93-4.74c.18,1.25.39,2.49.68,3.69.53,2.11,1.35,6.08,3.95,6.55,2.87.5,5.53-2.34,7.35-4.14,1-1,3.05-4.47,4.67-8.26a26.53,26.53,0,0,0,2.23,10.4.39.39,0,0,0,.61.13c2.58-2.16,2.55-5.81,2.63-9a44.24,44.24,0,0,0,4,8.59.4.4,0,0,0,.68-.11,22.47,22.47,0,0,0,1-11.36,15.26,15.26,0,0,0,3.95,4.43c1.86,1.29,3.86.8,3.56-1.77a18.79,18.79,0,0,0-.62-2.86c.59.77,1.19,1.52,1.77,2.22,1.75,2.1,4.48,5.55,7.49,5.71s4.22-3.63,3.78-6.09a19.1,19.1,0,0,0-6.06-10.24c2.52.92,5.27,1.6,7.59.11a.39.39,0,0,0,.05-.56,21.4,21.4,0,0,0-3.33-3.33,24.55,24.55,0,0,0,4.26-.52c1.1-.25,2.86-.58,3.51-1.67,1.42-2.35-.82-5.54-2.22-7.36-.78-1-1.64-2.07-2.58-3.07a7.28,7.28,0,0,0,4,.73.42.42,0,0,0,.33-.46,12.5,12.5,0,0,0-2.33-5,20.15,20.15,0,0,0,7.74,1,.4.4,0,0,0,.29-.56c-1.11-2.2-3.19-3.57-5.23-4.9,3.25.8,8.38,1.89,7.66-2.05-.64-3.53-3-6.56-5.87-9.12,1.27-.48,1.47-2.08,1.31-3.33-.53-3.85-3.57-8.35-7.66-8.58,3.18-1.83,6.74-3.17,9.18-6a.41.41,0,0,0-.18-.61,16.86,16.86,0,0,0-5.12-.95c2.32-1.53,5.08-2.33,7.1-4.31a.4.4,0,0,0-.11-.68A14.93,14.93,0,0,0,240,95.94c.9-1.71,1.47-3.72.66-5.31,3.24,1.33,9.37,3.32,9.68.05.17-1.79-3-2.93-4.21-3.39a33.07,33.07,0,0,0-5.34-1.65c2.23-.54,4.63-.29,6.72-1.41a.4.4,0,0,0,.14-.61,9.43,9.43,0,0,0-4.27-3.08c.74-1.73,1.39-3.52,2.22-5.19a3,3,0,0,0,.22.9c1.41,3.09,7.06.49,10.42-.93a30.68,30.68,0,0,0-3.5,3.9c-1,1.31-2.63,3.41-1.79,5.16.94,2,3.76.7,4.94-.17a41.76,41.76,0,0,0,4.9-4.78,17,17,0,0,0,1.87,14.11.4.4,0,0,0,.68-.11c.76-2.22,1.39-4.49,2.08-6.74,0,5.32,1.79,10.88,5.34,14.24a.41.41,0,0,0,.63,0,6.28,6.28,0,0,0,1.08-3.84,31.53,31.53,0,0,0,4.14,9.72.4.4,0,0,0,.68-.11,15.84,15.84,0,0,0,.41-2.35c0,.26.07.51.11.77.3,1.58.72,3.84,2.18,4.81,3.7,2.47,7.61-3.4,9.06-6a50.86,50.86,0,0,0,5.6-14.79l.26-1.24a30.08,30.08,0,0,0,2.28,8.45.4.4,0,0,0,.73,0,33.5,33.5,0,0,0,.9-5.6c.46,2.57,1,5.15,1.69,7.67.93,3.32,2.11,8.36,5.42,10.16s5.78-2.51,5.78-5.33a27.77,27.77,0,0,0-2.6-11c3,3.11,6.25,6.37,10.33,7.66.27.08.63-.13.54-.44a40.37,40.37,0,0,0-2.88-6.53,17.79,17.79,0,0,0,5.26,6.13.39.39,0,0,0,.55-.09,10.15,10.15,0,0,0,1.25-3.17c-.08,1.25-.11,2.51-.07,3.75.11,3.23.46,6.67,2.33,9.4a.4.4,0,0,0,.48.1,10.76,10.76,0,0,0,4.27-5.76,26.48,26.48,0,0,0,4.67,13.18.41.41,0,0,0,.63,0c3.08-3.32,3.54-8.85,2.51-13.71.6.76,1.22,1.5,1.85,2.17a21.83,21.83,0,0,0,7.17,5.6.4.4,0,0,0,.53-.44c-.48-3-1.79-5.75-2.38-8.69a24.65,24.65,0,0,0,6,8.93.4.4,0,0,0,.61-.18,15.83,15.83,0,0,0,.68-6.22,17.08,17.08,0,0,0,1.43,3.49c.74,1.3,1.85,2.74,3.48,2.85a4.33,4.33,0,0,0,1.08-.07,28,28,0,0,0-6.26,10.16.41.41,0,0,0,.34.53c3.16.34,6.11-1,8.79-2.74.35,0,.69-.07,1-.13a22,22,0,0,0-6.38,9.52c-.88,2.94-2.31,6.89-1.51,10s3.44,1.34,4.6-.5a59.9,59.9,0,0,0,3.29-7.14c-1.9,7.51-5,16.56.83,22.74a.42.42,0,0,0,.56,0c1.27-1.19,2.56-2.37,3.84-3.56a3.3,3.3,0,0,0,2.14,1.54,13.64,13.64,0,0,0,5,.44c-.12.11-.25.21-.37.33-1.91,1.78-4.54,4.27-4.68,7.1-.17,3.54,2,4.46,4.85,4.46a17,17,0,0,0-3.44,7.1.4.4,0,0,0,.36.43,19.34,19.34,0,0,0,5.15-1.16,13.38,13.38,0,0,0-1.35,2.34c-1,2.18-1.34,5.58.91,7.19,2.45,1.75,6.1,1.45,8.92.56-.33,1.81-1,3.54-1.25,5.37a.41.41,0,0,0,.47.43,5.84,5.84,0,0,0,4.22-2.57c-.72,2.31-1.11,4.71-1.67,7.1a.4.4,0,0,0,.54.5A21.42,21.42,0,0,0,400,180.42a2.93,2.93,0,0,0,1.85,1.13c1.93.42,3.31-1.05,4.3-3-.32,3.27.06,6.56,2.74,6.44,2.35-.11,3.39-2.85,4-4.75.22-.67.4-1.34.57-2,1.48,7,4.75,13.82,11.65,14.61a.39.39,0,0,0,.43-.36,12.47,12.47,0,0,0-.94-7.15c2.44,2.62,5.62,4.8,9,4.83a.4.4,0,0,0,.39-.57,22.85,22.85,0,0,0-5.33-6.67c4.64,3.29,9.78,6.14,15.12,7.16,2.31.44,7.64.8,8.65-2.24.68-2-1.19-3.89-3.07-5.41a13.36,13.36,0,0,0,5.27,1.68.41.41,0,0,0,.43-.46,11.3,11.3,0,0,0-.73-2.31l.53.16c6,1.71,15.14,3.93,19.92-1.59a.39.39,0,0,0,0-.49,11,11,0,0,0-3.78-3.26,22,22,0,0,0,6,.66.37.37,0,0,0,.32-.34c.31-2.83-1.35-5.58-3.53-7.71a14.68,14.68,0,0,0,6.6,1.73.4.4,0,0,0,.43-.46,20.33,20.33,0,0,0-.67-3.56A3.42,3.42,0,0,1,481.2,170a4.76,4.76,0,0,1-2.26,3.09c2,.69,3.71,1.91,2.66,4.13s-3.83,2.63-6.51,2.43c1.88,1.9,2.66,4.43-.77,6.18-5.18,2.66-11.23,1.47-16.39-1,1.08,3.21,1,6.68-2.26,8.92a9.52,9.52,0,0,1-3.69,1.53,6.21,6.21,0,0,1-.35.86c-.83,1.52-3.28,2-6,1.94a11.2,11.2,0,0,1-7.32,1.28,32,32,0,0,1,4.92,3.76c.89.86,2.72,3.54,1.18,4.74s-4.19.4-5.75.22c-2.18-.24-7.79-2.59-5.82,1.28,1.59,3.15.88,8.43-3.71,8.31-3.72-.1-5.84-3.34-7.26-6.54-.88,3.68-2.56,8.91-6.53,8.68-3.81-.21-4.77-4-4.48-7.4.45-5.39-1.21-.86-3.27,1-1.5,1.34-3.68,3.23-5.92,2.16a6.23,6.23,0,0,1-3.35-3.5c-2.35,3.56-5.62,5.56-10.72,5.68a6.72,6.72,0,0,1-4.61-1.58c-1.5,3-5.34,4.24-8.83,3-3.86-1.37-2.93-7.17-2.49-10.94-2.56,1.68-5.51,3.81-7.86.75a5.53,5.53,0,0,1-.85-4.68l.1-.25a8.5,8.5,0,0,1-1.94-.9c-.95-.63-1.2-1-1.14-1.33-.35.67-.72,1.34-1.14,2-.93,1.45-2.31,4.09-4.33,4.3s-1.59-3.63-1.53-4.45c.26-2.88,2.53-4.79,4.71-6.33,1-.72.63-1-.1-1.41.64-.54,1.29-1.07,2-1.57a.4.4,0,0,0-.22-.7,14.85,14.85,0,0,1-7.21-3.71h0a8.38,8.38,0,0,1-2.38-3.88c-.67-2.63.8-3.84,2.87-4.35,0-1.18,1.07-2.61,2.09-3.87-1.92,1.05-4.26,2.16-5.44.62-.72-.92-.26-1.94.35-2.79s1.28-1.42,1.85-2.19.35-.61-.68.11c-.42.31-.87.57-1.3.87a3.33,3.33,0,0,1-3,.12,2.14,2.14,0,0,1-.89-2.18c.11-3.6,2.69-5.93,4.67-8.69a6.13,6.13,0,0,1-4.2.86,3,3,0,0,1-2.53-2.2c-.55-1.72.77-4,1.51-5.52a22.16,22.16,0,0,1,2.06-3.18,2.85,2.85,0,0,0,.23-.37c-1.54,1-3.24,1.76-3.78.13-.46-1.4.24-3.22.49-4.62.1-.6.16-1.22.24-1.82s.11-1,.13-1.52v-.05c-.47,1.47-.19,2.84-1.4,4-.68.66-1.85-.43-2.29-.84l-1.16-1.11c.4,1.11.81,2.24,1.26,3.33a1.58,1.58,0,0,1-.07,1.69c-.08.12-.21.09-.31.05-1-.42-1.56-1.53-2.27-2.29a32.53,32.53,0,0,1-3.06-4.14,25.52,25.52,0,0,1-3.23-6c0,.94.07,1.9.05,2.85,0,1.19,0,3.2-1,4s-1.81-1-2.05-1.61a14.36,14.36,0,0,1-1.27-3.74,38.16,38.16,0,0,1-.11-5.55,11.66,11.66,0,0,1-1.89,2.32,5.83,5.83,0,0,1-4.31,1.65,2.41,2.41,0,0,1-1-.35c.46,2.46,1.31,4.89,1.82,7.3.13.62,1,5.09-.67,4.83-1.41-.22-2.46-1.83-3.22-2.88-.65-.9-1.3-1.79-2-2.68-.91-1.19-1.65-2.49-2.45-3.74.6,2.81,1.47,8.22-1.09,6.76-1.46-.82-2.16-3.51-2.68-4.95a36.54,36.54,0,0,1-1.74-7.31c-.46.71-.76,1.53-1.15,2.27a10.26,10.26,0,0,1-1.72,1.94c-1.2,1.27-2.81,2.17-4.49,1.44-1.31-.56-1.05-2.16-1-3.31a17,17,0,0,1,.81-4.09,9.38,9.38,0,0,1-3.52,3.27,2.67,2.67,0,0,1-.33.12c.41.79.8,1.6,1.15,2.43.94,2.25,2.23,4.92,2,7.41-.41,3.59-3.79,1.7-6.24-.39,1.46,2,3.2,4.28,1.92,5.63-1.1,1.17-4-1.52-4.78-2.1a18.08,18.08,0,0,1-3.35-2.87c-.53-.65-1.22-1.25-1.75-1.92a5.11,5.11,0,0,1-1.48,3.19,3.25,3.25,0,0,1-4.78-.37c-3.7-4.66-2.59-10.57-.81-15.87-2,2.8-5,7-7.67,4.72a3.44,3.44,0,0,1-.67-.81,16.2,16.2,0,0,1,.39,3.24c0,1.36.67,2.69-.27,3.88-.67.84-1.82.43-2.83-.18a2.6,2.6,0,0,1-.06,1.43c-.47,1.49-3.36.75-4.24.31-.32-.17-.65-.33-1-.51a13.85,13.85,0,0,1,1.05,1.43c.5.79,1.21,3-.5,2.94-2.63-.07-5.26-1.56-7.55-2.88a23.9,23.9,0,0,1,4.07,7.24c.3.93.21,2.56-.94,2.92a4.94,4.94,0,0,1-3.57-.72,14.49,14.49,0,0,1-4.34-3.48l-.72-.77a3.71,3.71,0,0,1-1.32,2.69,6,6,0,0,1-4.67,1.09c.53.81,1,1.64,1.49,2.46a7.83,7.83,0,0,1,.43.87c.36,0,.73,0,1.15,0,1.3,0,4.1-.21,5,1s.31,2.8-.76,3.88c-.72.74-1.49,1.51-2.31,2.22h0a15.07,15.07,0,0,1,1.54.15c.86.12,2.42.88,2.16,2-.31,1.3-3.32,2.23-4.41,2.58a14.07,14.07,0,0,1-2.75.49,42.1,42.1,0,0,1,4.62,1.87c1.08.52,6.08,2.74,4.66,4.76-1,1.36-2.95,1.36-4.59,1.47,3.44,1.71,6.46,4,5.36,5.17-.9,1-2.47,1-3.72,1.22a17.53,17.53,0,0,1-5.21-.19,10.67,10.67,0,0,1-1.37-.26c-.2.21-.15.5.36,1,1.86,1.91,3.75,4.2,3.47,7.09-.07.81-.41,4.66-2.3,4.09s-2.82-3.43-3.49-5c-.29-.7-.53-1.43-.75-2.15,0,.36-.31.66-1.36,1.1-.12,0-.25.06-.37.11.75,1.72,1.06,3.82-1.66,3.39-1.56-.26-8.56-2.52-6.72-.5a7.74,7.74,0,0,1,2.34,5.43c.14,4-6,.54-7.2-.16-2-1.19-.58-.38-1.15,1.58a11.27,11.27,0,0,1-1.62,3.95,3.55,3.55,0,0,1-4,1.51c-4.41-1.54-6.38-6.16-5.45-10.71.23-1.14-3.62,1.67-3.71,1.73a14.31,14.31,0,0,1-4.3,1.47,7.67,7.67,0,0,1-6.11-1.06c-3.4-1.9-1.76-5.32,0-7.95-3.93,1.5-9.45,3.62-11.69.31a4.54,4.54,0,0,1-.63-4.08c-3.56,1-7.7,1.06-10.56-.7-.25,3.33-5.6,5.66-7.09-.66-1.49,1.38-3.67,2.75-5.34,1.37-3.19-2.63-2.81-5.79-2.27-9.22-5.29,2.67-14.35,4.83-14.62-3.53-.05-2,4.8-4.17,5.54-6.17a9.16,9.16,0,0,1-4.7-2.54c-2.83-2.8-2.24-6.22-.61-9.18-5.52,1.49-11.68,1.56-16.29-2-3.05-2.34-1.83-4.68.35-6.22-2.66-.28-5.31-1.14-6-3.56s1.27-3.27,3.38-3.58a4.77,4.77,0,0,1-1.66-3.44c-.42-3.27,4.38-4.69,7.49-5.83-3.23-1-6.29-2.09-8.12-5.29-2.6-4.57,2.91-7.4,6.25-9.48-3.76-1.14-9-2.06-10.08-6.1C123.16,105.4,130.66,104.73,135.1,104.14Z" transform="translate(-48.35 0)"/><path class="as" d="M168,118.27c2.28,1.46,4.11,3.25,6.79,4a20.05,20.05,0,0,0,7.9.6,47,47,0,0,0,6.62-1.19c-.29,1.88-.45,3.8-.57,5.69-.21,3.08-.4,8.6,2,11,2.81,2.82,6.06-1.49,7.76-3.69a3.15,3.15,0,0,1,.22-.29c-.25,3.81-.5,8.75,2.29,11.29,2.5,2.28,5,0,6.8-3.54q.12,1.17.3,2.34c.62,3.65,1.79,7.62,5.32,9.4,3.7,1.88,5.77-4.88,5.71-7.28a27.4,27.4,0,0,0-1.66-8.69,30.21,30.21,0,0,0,5,5.45c2.16,1.77,6.84,4.31,9.17,1.36,3.29-4.16-.28-9.66-4.52-13.68,2.31.55,4.33.07,4.36-2.59,0-2.48-3-5.26-4.8-6.55-.79-.54-1.65-1.19-2.57-1.83a27.31,27.31,0,0,0,6.54.39c1.56-.09,7.4-.33,6.93-2.95-.31-1.74-4.48-3.39-5.76-3.87a34.05,34.05,0,0,0-3.65-1.14,23.78,23.78,0,0,0,2.83-1.14c1.73-.84,5.11-2.84,4.44-5.28s-3.33-3.4-5.71-3.9a13.11,13.11,0,0,0-5.1-.33c-1.5.28-3.55,1.29-5.36,1.56a16.08,16.08,0,0,0,3.44-2.16,29.21,29.21,0,0,0,4.15-4.53c1.23-1.73,3-4.51,1.64-6.63-2.51-4-7.28-1.94-10.68.92a19,19,0,0,0,.33-7c-.63-3.83-1.28-7.8-4.2-10.58-2.73-2.62-5.5-.44-7.21,2.24a13.73,13.73,0,0,0-2,5.7,9.91,9.91,0,0,0-2.58-2.5c-2.21-1.46-5.82-.53-6.24,2.39-.58,4,1.82,8,3.87,11.3l0,0c-1-1.1-2-2.19-2.85-3.36-2.13-2.83-5.24-5.93-8.63-7.22-2.84-1.08-3.7.72-3,3.28a16.89,16.89,0,0,0,2.13,4.38A25.09,25.09,0,0,0,180,84.53c-2.56-1.11-8.23-2.55-8.22,2.09,0,4.38,3.87,8.22,6.89,11.29l-.88-.35c-1.88-.81-7.25-2.21-8.35.5s1.05,5.32,3.51,7.44c-3.38-.74-6.93-1-9.84,0-5,1.59.71,6.15,2.93,7.66C163.38,114,166.37,117.21,168,118.27Z" transform="translate(-48.35 0)"/><path class="as" d="M49.71,181.44a12.16,12.16,0,0,0,5.56,3.6c-1.74.7-2.65,1.89-1.84,3.79,1,2.31,3.46,4.07,6.4,5.22-3.14,2-4.68,5.34-1.28,8.88,1.53,1.6,4.51,2.38,7.63,2.38-.81,2.33-.89,4.73.89,6.35a3.67,3.67,0,0,0,4.86.06.7.7,0,0,0,.1-.08c-.16.29-.31.58-.46.88-.65,1.31-2.45,5-1.45,6.49s2.43,2.16,4.11,1.37a16.29,16.29,0,0,0,2.58-1.5c-.29,1.74-.19,3.55,1,4.73,2.2,2.23,4.48.55,5.76-1.77.15-.26.27-.54.4-.82a15.91,15.91,0,0,0,1.21,4c.66,1.43,2.07,3.16,3.82,3.12,1.23,0,1.65-1.62,1.79-2.88l.07.18a26.22,26.22,0,0,0,1.85,3.76c.95,1.73,3,3.91,5.22,2.93,1.75-.77,1.46-3.63,1.79-5.16.13-.59.28-1.2.43-1.8a5.42,5.42,0,0,0,1.16,1.13c2.59,1.81,6.38.31,9.41-2.18-.14.41-.27.82-.38,1.24-.76,3.17-1.36,6.24,1.87,8.23,1.9,1.16,3.78-.09,5.25-1.5a11.62,11.62,0,0,0-.29,2c-.17,3.31,1.27,7.62,5.17,8.11,4.15.51,6.81-4,8.31-7.25.06-.1.11-.22.17-.34a9.07,9.07,0,0,0,4.64,4.36c2,.83,2.58-2.14,2.73-3.76,1.83,3.24,4,5.87,7.81,6.83,4.05,1,4.24-5.62,3.22-11.38a4.94,4.94,0,0,0,.08-1.62c2.13,1.34,4.49,2.27,6.79,1.85,4.52-.82,2.64-5.54-.44-10a2.08,2.08,0,0,0,.56-.32c.64-.57.32-1.39-.29-2.19,1.59.69,3.28,1.07,4.13,0,1.73-2.21.23-5.62-1.38-8.45a10.86,10.86,0,0,0,7.09,3.25c4.74,0,3.21-6,.73-11.29a42.57,42.57,0,0,0,4.64,3.29c2,1.21,9.85,4.48,11.85,1.78s-.08-6.59-3.19-9.84c5.72,2.3,12.52,4.29,13.43,1.34s-1.46-5.71-4.58-7.78c5.49-1.09,10.64-3.67,8.71-8.62-1.06-2.71-4.28-4.12-7.78-4.56,2.46-1.88,4.82-4.23,4-7.53-.94-4-4.52-5.17-8.47-5.06l.31-.21c3.19-2.3,8.27-7,6.38-11.51s-6.5-4.75-10.83-3.46c.6-1,1.18-2,1.71-3,1.29-2.45,4-7.52,2.52-10.32s-4.65-4.35-7.61-3a20.27,20.27,0,0,0-6.51,5.05,1.48,1.48,0,0,0-1.16-1.28,5.5,5.5,0,0,0-4.37.91.23.23,0,0,1-.34-.23,34.43,34.43,0,0,0,1-8.08,9.89,9.89,0,0,0-.49-4.12c-.66-1.53-2.18-.12-2.87.61a.22.22,0,0,1-.37-.2c.33-1.37.64-3.5-1.21-3.88-1.57-.32-3,.88-4,1.89a23.26,23.26,0,0,0-4.47,6.66c-.09.22-.37.11-.41-.09-.47-2.66-1.24-5.73-3.31-7.62-2.34-2.14-5.32-.38-7.28,1.36a.23.23,0,0,1-.38-.2,24.48,24.48,0,0,0,.24-5.13c-.31-2.63-2.81-.57-3.88.38a.22.22,0,0,1-.38-.19c.21-1.2,0-2.24-1.44-1.94a5.94,5.94,0,0,0-2,1,9.15,9.15,0,0,0-2.82,3.76,30.13,30.13,0,0,0-2.23,8.86c0,.27-.39.19-.43,0a8.9,8.9,0,0,0-3.27-5.53c-.59-.46-1.58-1-2.21-.31-.77.83-.4,2.6-.25,3.58,0,.22-.28.3-.4.13-1.15-1.75-2.63-4.2-4.75-4.85a1.51,1.51,0,0,0-1.57.42c-.48.5-.06,1.53.14,2.07a12.59,12.59,0,0,0,1.09,2.13,9,9,0,0,1,.66,1c.13.24-.21.48-.37.24s-.38-.58-.63-1a4.2,4.2,0,0,0-3.75-2,34.91,34.91,0,0,0,3.27,5.31.22.22,0,0,1-.32.29c-2.36-2-5.7-2.87-8.71-3.29-.5-.07-1-.12-1.55-.16a13.6,13.6,0,0,0-1.67.42c-2.21.72-6.66,2.35-5.29,4l.37.38c.11,1.83.59,3.52-1,1.06-.85-1.3-1.6-3.2-3.3-3.43a.4.4,0,0,0-.46.2c-1.31,1.87.41,7.39-2.65,4.57-.52-.49-2.79-1.54-3.55-1.18-1.12.52-2.55,1.09-2.17,2.75,0,.18.08.37.13.56-2.73-1.59-7-3.72-8.71-.37-.81,1.59,1.05,3.52,2.58,4.94-3.43-.36-9.18-1.24-9.1,3.25.06,3.22,3.83,4.87,6.44,6.42-2.6.86-6.63,1.85-6.57,4.9A19.61,19.61,0,0,0,65,153c-3-1.34-3.92.85-4.12,3.38a11.79,11.79,0,0,0,1.77,6.32c-3.23-2.45-7.47-4.82-8.17-1.45-.53,2.56,1.69,5.52,4.43,7.81-2.86-.36-5.56,0-5.46,2.46A4.72,4.72,0,0,0,55.07,175C50.36,175.3,46.09,176.87,49.71,181.44Z" transform="translate(-48.35 0)"/><path class="av" d="M49.71,181.44a12.16,12.16,0,0,0,5.56,3.6c-1.74.7-2.65,1.89-1.84,3.79,1,2.31,3.46,4.07,6.4,5.22-3.14,2-4.68,5.34-1.28,8.88,1.53,1.6,4.51,2.38,7.63,2.38-.81,2.33-.89,4.73.89,6.35a3.67,3.67,0,0,0,4.86.06.7.7,0,0,0,.1-.08c-.16.29-.31.58-.46.88-.65,1.31-2.45,5-1.45,6.49s2.43,2.16,4.11,1.37a16.29,16.29,0,0,0,2.58-1.5c-.29,1.74-.19,3.55,1,4.73,2.2,2.23,4.48.55,5.76-1.77.15-.26.27-.54.4-.82a15.91,15.91,0,0,0,1.21,4c.66,1.43,2.07,3.16,3.82,3.12,1.23,0,1.65-1.62,1.79-2.88l.07.18a26.22,26.22,0,0,0,1.85,3.76c.95,1.73,3,3.91,5.22,2.93,1.75-.77,1.46-3.63,1.79-5.16.13-.59.28-1.2.43-1.8a5.42,5.42,0,0,0,1.16,1.13c2.59,1.81,6.38.31,9.41-2.18-.14.41-.27.82-.38,1.24-.76,3.17-1.36,6.24,1.87,8.23,1.9,1.16,3.78-.09,5.25-1.5a11.62,11.62,0,0,0-.29,2c-.17,3.31,1.27,7.62,5.17,8.11,4.15.51,6.81-4,8.31-7.25.06-.1.11-.22.17-.34a9.07,9.07,0,0,0,4.64,4.36c2,.83,2.58-2.14,2.73-3.76,1.83,3.24,4,5.87,7.81,6.83,4.05,1,4.24-5.62,3.22-11.38a4.94,4.94,0,0,0,.08-1.62c2.13,1.34,4.49,2.27,6.79,1.85,4.52-.82,2.64-5.54-.44-10a2.08,2.08,0,0,0,.56-.32c.64-.57.32-1.39-.29-2.19,1.59.69,3.28,1.07,4.13,0,1.73-2.21.23-5.62-1.38-8.45a10.86,10.86,0,0,0,7.09,3.25c4.74,0,3.21-6,.73-11.29a42.57,42.57,0,0,0,4.64,3.29c2,1.21,9.85,4.48,11.85,1.78s-.08-6.59-3.19-9.84c5.72,2.3,12.52,4.29,13.43,1.34s-1.46-5.71-4.58-7.78c5.49-1.09,10.64-3.67,8.71-8.62-1.06-2.71-4.28-4.12-7.78-4.56,2.46-1.88,4.82-4.23,4-7.53-.94-4-4.52-5.17-8.47-5.06l.31-.21c3.19-2.3,8.27-7,6.38-11.51s-6.5-4.75-10.83-3.46c.6-1,1.18-2,1.71-3,1.29-2.45,4-7.52,2.52-10.32s-4.65-4.35-7.61-3a20.27,20.27,0,0,0-6.51,5.05,1.48,1.48,0,0,0-1.16-1.28,5.5,5.5,0,0,0-4.37.91.23.23,0,0,1-.34-.23,34.43,34.43,0,0,0,1-8.08,9.89,9.89,0,0,0-.49-4.12c-.66-1.53-2.18-.12-2.87.61a.22.22,0,0,1-.37-.2c.33-1.37.64-3.5-1.21-3.88-1.57-.32-3,.88-4,1.89a23.26,23.26,0,0,0-4.47,6.66c-.09.22-.37.11-.41-.09-.47-2.66-1.24-5.73-3.31-7.62-2.34-2.14-5.32-.38-7.28,1.36a.23.23,0,0,1-.38-.2,24.48,24.48,0,0,0,.24-5.13c-.31-2.63-2.81-.57-3.88.38a.22.22,0,0,1-.38-.19c.21-1.2,0-2.24-1.44-1.94a5.94,5.94,0,0,0-2,1,9.15,9.15,0,0,0-2.82,3.76,30.13,30.13,0,0,0-2.23,8.86c0,.27-.39.19-.43,0a8.9,8.9,0,0,0-3.27-5.53c-.59-.46-1.58-1-2.21-.31-.77.83-.4,2.6-.25,3.58,0,.22-.28.3-.4.13-1.15-1.75-2.63-4.2-4.75-4.85a1.51,1.51,0,0,0-1.57.42c-.48.5-.06,1.53.14,2.07a12.59,12.59,0,0,0,1.09,2.13,9,9,0,0,1,.66,1c.13.24-.21.48-.37.24s-.38-.58-.63-1a4.2,4.2,0,0,0-3.75-2,34.91,34.91,0,0,0,3.27,5.31.22.22,0,0,1-.32.29c-2.36-2-5.7-2.87-8.71-3.29-.5-.07-1-.12-1.55-.16a13.6,13.6,0,0,0-1.67.42c-2.21.72-6.66,2.35-5.29,4l.37.38c.11,1.83.59,3.52-1,1.06-.85-1.3-1.6-3.2-3.3-3.43a.4.4,0,0,0-.46.2c-1.31,1.87.41,7.39-2.65,4.57-.52-.49-2.79-1.54-3.55-1.18-1.12.52-2.55,1.09-2.17,2.75,0,.18.08.37.13.56-2.73-1.59-7-3.72-8.71-.37-.81,1.59,1.05,3.52,2.58,4.94-3.43-.36-9.18-1.24-9.1,3.25.06,3.22,3.83,4.87,6.44,6.42-2.6.86-6.63,1.85-6.57,4.9A19.61,19.61,0,0,0,65,153c-3-1.34-3.92.85-4.12,3.38a11.79,11.79,0,0,0,1.77,6.32c-3.23-2.45-7.47-4.82-8.17-1.45-.53,2.56,1.69,5.52,4.43,7.81-2.86-.36-5.56,0-5.46,2.46A4.72,4.72,0,0,0,55.07,175C50.36,175.3,46.09,176.87,49.71,181.44ZM84,159.39a17.1,17.1,0,0,1,8-1c-2.9-1.75-5.44-3.91-4.3-5.65a2.93,2.93,0,0,1,2.59-1.12l-.77-.74c-2-2-2.32-5.07,1-5.8,4.46-1,9.14,1.81,12.71,4.32-.8-2.68-2-7.07.6-8.34s5.19.86,7.35,3.82c.1-1.39.91-2.21,3-1.71a6.81,6.81,0,0,1,3.62,2.75c-.78-4.17-.35-8,3.15-9.34,2.75-1.09,4.76.43,6.22,3,.17-2,.79-3.73,2.52-3.53,3,.33,4.28,3.57,5,6.94.07-1.45.16-2.9.33-4.35.3-2.69.74-7.38,3.67-8.62,3.13-1.34,5.11,3.28,5.61,5.47a19.61,19.61,0,0,1,.39,5c2.3-3.81,5.53-7.94,8.44-6.82,5.24,2,1.42,8.38-2.23,13l.12,0a7.83,7.83,0,0,1,3.37,3.95c.2-3.72,1.08-7.68,4.44-6.38,2.45.94,3.1,4.78,3.1,8.48,1.66-4.45,4.26-9.12,7.53-8.2a2.71,2.71,0,0,1,1.54,1,27,27,0,0,1,2.3-4.48c1.21-1.87,4.45-3.81,5.81-.82,1.65,3.63-1.33,8.74-3,11.86A31.79,31.79,0,0,1,174,155.9a15.11,15.11,0,0,1,1.94-1,15.69,15.69,0,0,1,8.52-.84.7.7,0,0,1,.55.4c2.14,5.68-6.67,8.69-14.72,10.12,1.08.11,2.16.24,3.23.4,3.36.49,8.81,1.68,9.71,5.62.66,2.85-3.79,3.73-8.22,4a27.16,27.16,0,0,1,4.56,2c1.5.83,5.8,4.37,2.54,6-3.07,1.57-8-.59-10.94-1.58-2.54-.85-5-1.92-7.51-2.92a18,18,0,0,1,5.26,7c1.23,3.32-1.07,6.34-4.23,7.19-3.77,1-8-2.08-10.81-4.16a85.06,85.06,0,0,1-7-6.16,17.45,17.45,0,0,1,2.25,8c0,2.15-.83,5.68-3.43,6.17-3.07.58-6-1.88-8.4-4.72,1.38,6.34,2.09,13.22-3.55,14.24-3.63.66-5.74-3.7-6.86-8.48-.19.75-.4,1.48-.64,2.18-.87,2.48-3.6,5.6-6.53,3.91s-2.57-6.09-2.31-9c-1.57,2.09-3.53,3.39-5.79,2.72s-2.59-3.13-2.07-6c-3.23,1.45-6.72,2.18-9.64,1.27-4.73-1.47-4.93-5.37-2.88-8.26-1,.15-2,.27-2.89.36-2.07.23-6.48.6-7.59-1.82-1.3-2.85.86-4.6,3.93-5.67-5.47-.8-10.72-3.06-12.22-7.68C76.92,164.79,80.23,160.91,84,159.39Z" transform="translate(-48.35 0)"/><path class="av" d="M55.07,175a4.72,4.72,0,0,1-1.65-3.53c-.1-2.43,2.6-2.82,5.46-2.46-2.74-2.29-5-5.25-4.43-7.81.7-3.37,4.94-1,8.17,1.45a11.79,11.79,0,0,1-1.77-6.32c.2-2.53,1.12-4.72,4.12-3.38a19.61,19.61,0,0,1,6,4.46c0-2.55,2.76-3.66,5.21-4.46a10,10,0,0,1,1.87.82c-5.59.88-4.07,6.52-1.69,11-2.14-1.51-4.73-2.93-6.62-1.81a3.63,3.63,0,0,0-1.75,3.79,3.57,3.57,0,0,0-3.5-1.09c-1.79.53-1.91,3.22-1.42,4.64,1.27,3.65,4.31,6.78,7.55,9.38-4.34-1.45-9.2-2-8.21,3.79.52,3,4.31,4.77,6.8,5.71a60.07,60.07,0,0,0,6.8,2c-5.45.92-12.7,3.42-8.09,9.34,2.51,3.23,7.39,3.89,11.62,2.71-.92,1.68-1.12,3.41.34,4.85,1.77,1.76,4.4.35,6.61-1.54a6.57,6.57,0,0,0,.17,2.53,3.58,3.58,0,0,0,4.48,2.29c3.33-1.15,5.58-4,8.3-6l.83-.64c-1.42,3.64-1.73,7.28,1.07,9.13,4.27,2.81,8.11.5,11.23-3.05-.71,3.07-.43,6,2.09,7.39,3.35,1.91,6.11.51,8-2,.13,5.25,1.81,10.33,6.37,9.21,3.59-.89,4.1-6.19,4.18-9.12,0-1.58,0-3.16-.12-4.73.4,1.1.81,2.18,1.22,3.19,1.59,3.89,3.92,9.72,8.35,11.16s6.62-4,6.39-7.39a30.63,30.63,0,0,0-2.73-10c2.69,3.12,6,5.86,8.17,3.53,1.61-1.72,1-4.45-.49-7.16,2.31,1.46,4.61,2.15,6.12.71,2.26-2.17,1.36-6.3.12-8.76-.11-.2-.22-.39-.32-.59l.09.07c3.75,2.54,8.81,6.12,13.59,5.85,3.75-.21,5.16-3.36,3.17-6.47l-.23-.34c2.85,1.17,6.23,2.14,8.72.93a.7.7,0,0,0,.34-.9,12.86,12.86,0,0,0-5-5.53c4.76.69,9.73.36,12-2.93,1.72-2.51.19-5.51-2.49-6.34a24.65,24.65,0,0,0-6.46-.74,16.78,16.78,0,0,0,5.21-4.45c3.15-4.34.68-7.15-3.06-9.09a15.1,15.1,0,0,0,2.42-1.08c2.62.5,4.72,1.9,5.41,4.84.78,3.3-1.58,5.65-4,7.53,3.5.44,6.72,1.85,7.78,4.56,1.93,5-3.22,7.53-8.71,8.62,3.12,2.07,5.47,4.89,4.58,7.78s-7.71,1-13.43-1.34c3.11,3.25,5.28,7,3.19,9.84s-9.88-.57-11.85-1.78a42.57,42.57,0,0,1-4.64-3.29c2.48,5.24,4,11.33-.73,11.29a10.86,10.86,0,0,1-7.09-3.25c1.61,2.83,3.11,6.24,1.38,8.45-.85,1.09-2.54.71-4.13,0,.61.8.93,1.62.29,2.19a2.08,2.08,0,0,1-.56.32c3.08,4.49,5,9.21.44,10-2.3.42-4.66-.51-6.79-1.85a4.94,4.94,0,0,1-.08,1.62c1,5.76.83,12.41-3.22,11.38-3.82-1-6-3.59-7.81-6.83-.15,1.62-.7,4.59-2.73,3.76a9.07,9.07,0,0,1-4.64-4.36c-.06.12-.11.24-.17.34-1.5,3.25-4.16,7.76-8.31,7.25-3.9-.49-5.34-4.8-5.17-8.11a11.62,11.62,0,0,1,.29-2c-1.47,1.41-3.35,2.66-5.25,1.5-3.23-2-2.63-5.06-1.87-8.23.11-.42.24-.83.38-1.24-3,2.49-6.82,4-9.41,2.18a5.42,5.42,0,0,1-1.16-1.13c-.15.6-.3,1.21-.43,1.8-.33,1.53,0,4.39-1.79,5.16-2.19,1-4.27-1.2-5.22-2.93a26.22,26.22,0,0,1-1.85-3.76l-.07-.18c-.14,1.26-.56,2.84-1.79,2.88-1.75,0-3.16-1.69-3.82-3.12a15.91,15.91,0,0,1-1.21-4c-.13.28-.25.56-.4.82-1.28,2.32-3.56,4-5.76,1.77-1.16-1.18-1.26-3-1-4.73a16.29,16.29,0,0,1-2.58,1.5c-1.68.79-3.13,0-4.11-1.37s.8-5.18,1.45-6.49c.15-.3.3-.59.46-.88a.7.7,0,0,1-.1.08,3.67,3.67,0,0,1-4.86-.06c-1.78-1.62-1.7-4-.89-6.35-3.12,0-6.1-.78-7.63-2.38-3.4-3.54-1.86-6.86,1.28-8.88-2.94-1.15-5.44-2.91-6.4-5.22-.81-1.9.1-3.09,1.84-3.79a12.16,12.16,0,0,1-5.56-3.6C46.09,176.87,50.36,175.3,55.07,175Z" transform="translate(-48.35 0)"/></g></svg>