<svg xmlns="http://www.w3.org/2000/svg" xmlns:xlink="http://www.w3.org/1999/xlink" viewBox="0 0 450 103.21"><defs><style>.a,.iu{mix-blend-mode:multiply;}.a{fill:url(#a);}.b{fill:none;}.c{isolation:isolate;}.d{clip-path:url(#b);}.e{fill:url(#c);}.f{fill:url(#d);}.g{fill:url(#e);}.h{fill:url(#f);}.i{fill:url(#g);}.j{fill:url(#h);}.k{fill:url(#i);}.l{fill:url(#j);}.m{fill:url(#k);}.n{fill:url(#l);}.o{fill:url(#m);}.p{fill:url(#n);}.q{fill:url(#o);}.r{fill:url(#p);}.s{fill:url(#q);}.t{fill:url(#r);}.u{fill:url(#s);}.v{fill:url(#t);}.w{fill:url(#u);}.x{fill:url(#v);}.y{fill:url(#w);}.z{fill:url(#x);}.aa{fill:url(#y);}.ab{fill:url(#z);}.ac{fill:url(#aa);}.ad{fill:url(#ab);}.ae{fill:url(#ac);}.af{fill:url(#ad);}.ag{fill:url(#ae);}.ah{fill:url(#af);}.ai{fill:url(#ag);}.aj{fill:url(#ah);}.ak{fill:url(#ai);}.al{fill:url(#aj);}.am{fill:url(#ak);}.an{fill:url(#al);}.ao{fill:url(#am);}.ap{fill:url(#an);}.aq{fill:url(#ao);}.ar{fill:url(#ap);}.as{fill:url(#aq);}.at{fill:url(#ar);}.au{fill:url(#as);}.av{fill:url(#at);}.aw{fill:url(#au);}.ax{fill:url(#av);}.ay{fill:url(#aw);}.az{fill:url(#ax);}.ba{fill:url(#ay);}.bb{fill:url(#az);}.bc{fill:url(#ba);}.bd{fill:url(#bb);}.be{fill:url(#bc);}.bf{fill:url(#bd);}.bg{fill:url(#be);}.bh{fill:url(#bf);}.bi{fill:url(#bg);}.bj{fill:url(#bh);}.bk{fill:url(#bi);}.bl{fill:url(#bj);}.bm{fill:url(#bk);}.bn{fill:url(#bl);}.bo{fill:url(#bm);}.bp{fill:url(#bn);}.bq{fill:url(#bo);}.br{fill:url(#bp);}.bs{fill:url(#bq);}.bt{fill:url(#br);}.bu{fill:url(#bs);}.bv{fill:url(#bt);}.bw{fill:url(#bu);}.bx{fill:url(#bv);}.by{fill:url(#bw);}.bz{fill:url(#bx);}.ca{fill:url(#by);}.cb{fill:url(#bz);}.cc{fill:url(#ca);}.cd{fill:url(#cb);}.ce{fill:url(#cc);}.cf{fill:url(#cd);}.cg{fill:url(#ce);}.ch{fill:url(#cf);}.ci{fill:url(#cg);}.cj{fill:url(#ch);}.ck{fill:url(#ci);}.cl{fill:url(#cj);}.cm{fill:url(#ck);}.cn{fill:url(#cl);}.co{fill:url(#cm);}.cp{fill:url(#cn);}.cq{fill:url(#co);}.cr{fill:url(#cp);}.cs{fill:url(#cq);}.ct{fill:url(#cr);}.cu{fill:url(#cs);}.cv{fill:url(#ct);}.cw{fill:url(#cu);}.cx{fill:url(#cv);}.cy{fill:url(#cw);}.cz{fill:url(#cx);}.da{fill:url(#cy);}.db{fill:url(#cz);}.dc{fill:url(#da);}.dd{fill:url(#db);}.de{fill:url(#dc);}.df{fill:url(#dd);}.dg{fill:url(#de);}.dh{fill:url(#df);}.di{fill:url(#dg);}.dj{fill:url(#dh);}.dk{fill:url(#di);}.dl{fill:url(#dj);}.dm{fill:url(#dk);}.dn{fill:url(#dl);}.do{fill:url(#dm);}.dp{fill:url(#dn);}.dq{fill:url(#do);}.dr{fill:url(#dp);}.ds{fill:url(#dq);}.dt{fill:url(#dr);}.du{fill:url(#ds);}.dv{fill:url(#dt);}.dw{fill:url(#du);}.dx{fill:url(#dv);}.dy{fill:url(#dw);}.dz{fill:url(#dx);}.ea{fill:url(#dy);}.eb{fill:url(#dz);}.ec{fill:url(#ea);}.ed{fill:url(#eb);}.ee{fill:url(#ec);}.ef{fill:url(#ed);}.eg{fill:url(#ee);}.eh{fill:url(#ef);}.ei{fill:url(#eg);}.ej{fill:url(#eh);}.ek{fill:url(#ei);}.el{fill:url(#ej);}.em{fill:url(#ek);}.en{fill:url(#el);}.eo{fill:url(#em);}.ep{fill:url(#en);}.eq{fill:url(#eo);}.er{fill:url(#ep);}.es{fill:url(#eq);}.et{fill:url(#er);}.eu{fill:url(#es);}.ev{fill:url(#et);}.ew{fill:url(#eu);}.ex{fill:url(#ev);}.ey{fill:url(#ew);}.ez{fill:url(#ex);}.fa{fill:url(#ey);}.fb{fill:url(#ez);}.fc{fill:url(#fa);}.fd{fill:url(#fb);}.fe{fill:url(#fc);}.ff{fill:url(#fd);}.fg{fill:url(#fe);}.fh{fill:url(#ff);}.fi{fill:url(#fg);}.fj{fill:url(#fh);}.fk{fill:url(#fi);}.fl{fill:url(#fj);}.fm{fill:url(#fk);}.fn{fill:url(#fl);}.fo{fill:url(#fm);}.fp{fill:url(#fn);}.fq{fill:url(#fo);}.fr{fill:url(#fp);}.fs{fill:url(#fq);}.ft{fill:url(#fr);}.fu{fill:url(#fs);}.fv{fill:url(#ft);}.fw{fill:url(#fu);}.fx{fill:url(#fv);}.fy{fill:url(#fw);}.fz{fill:url(#fx);}.ga{fill:url(#fy);}.gb{fill:url(#fz);}.gc{fill:url(#ga);}.gd{fill:url(#gb);}.ge{fill:url(#gc);}.gf{fill:url(#gd);}.gg{fill:url(#ge);}.gh{fill:url(#gf);}.gi{fill:url(#gg);}.gj{fill:url(#gh);}.gk{fill:url(#gi);}.gl{fill:url(#gj);}.gm{fill:url(#gk);}.gn{fill:url(#gl);}.go{fill:url(#gm);}.gp{fill:url(#gn);}.gq{fill:url(#go);}.gr{fill:url(#gp);}.gs{fill:url(#gq);}.gt{fill:url(#gr);}.gu{fill:url(#gs);}.gv{fill:url(#gt);}.gw{fill:url(#gu);}.gx{fill:url(#gv);}.gy{fill:url(#gw);}.gz{fill:url(#gx);}.ha{fill:url(#gy);}.hb{fill:url(#gz);}.hc{fill:url(#ha);}.hd{fill:url(#hb);}.he{fill:url(#hc);}.hf{fill:url(#hd);}.hg{fill:url(#he);}.hh{fill:url(#hf);}.hi{fill:url(#hg);}.hj{fill:url(#hh);}.hk{fill:url(#hi);}.hl{fill:url(#hj);}.hm{fill:url(#hk);}.hn{fill:url(#hl);}.ho{fill:url(#hm);}.hp{fill:url(#hn);}.hq{fill:url(#ho);}.hr{fill:url(#hp);}.hs{fill:url(#hq);}.ht{fill:url(#hr);}.hu{fill:url(#hs);}.hv{fill:url(#ht);}.hw{fill:url(#hu);}.hx{fill:url(#hv);}.hy{fill:url(#hw);}.hz{fill:url(#hx);}.ia{fill:url(#hy);}.ib{fill:url(#hz);}.ic{fill:url(#ia);}.id{fill:url(#ib);}.ie{fill:url(#ic);}.if{fill:url(#id);}.ig{fill:url(#ie);}.ih{fill:url(#if);}.ii{fill:url(#ig);}.ij{fill:url(#ih);}.ik{fill:url(#ii);}.il{fill:url(#ij);}.im{fill:url(#ik);}.in{fill:url(#il);}.io{fill:url(#im);}.ip{fill:url(#in);}.iq{fill:url(#io);}.ir{fill:url(#ip);}.is{fill:url(#iq);}.it{mask:url(#ir);}.iu{opacity:0.61;fill:url(#is);}</style><linearGradient id="a" x1="225.98" y1="406.01" x2="225.98" y2="368.7" gradientUnits="userSpaceOnUse"><stop offset="0" stop-color="#fff"/><stop offset="0.39" stop-color="#fff"/><stop offset="0.47" stop-color="#bfbfbf"/><stop offset="0.55" stop-color="#868686"/><stop offset="0.63" stop-color="#565656"/><stop offset="0.7" stop-color="#313131"/><stop offset="0.77" stop-color="#161616"/><stop offset="0.83" stop-color="#060606"/><stop offset="0.88"/></linearGradient><clipPath id="b" transform="translate(0 -307.53)"><rect class="b" y="283.56" width="450" height="116.41"/></clipPath><linearGradient id="c" x1="412.31" y1="292.92" x2="412.31" y2="349.89" gradientTransform="translate(-36.19 111.85) rotate(-7.71)" gradientUnits="userSpaceOnUse"><stop offset="0" stop-color="#9ccf00"/><stop offset="0.15" stop-color="#99d100"/><stop offset="0.31" stop-color="#7fba00"/><stop offset="0.58" stop-color="#569700"/><stop offset="0.72" stop-color="#478a00"/></linearGradient><linearGradient id="d" x1="410.75" y1="330.87" x2="410.75" y2="397.26" gradientTransform="matrix(1, 0, 0, 1, 0, 0)" xlink:href="#c"/><linearGradient id="e" x1="540.71" y1="401.65" x2="540.71" y2="455.13" gradientTransform="matrix(0.99, -0.14, 0.16, 1.16, -162.53, -55.15)" xlink:href="#c"/><linearGradient id="f" x1="393.06" y1="312.69" x2="394.36" y2="391.17" gradientUnits="userSpaceOnUse"><stop offset="0" stop-color="#b8de00"/><stop offset="0.23" stop-color="#9ccf00"/><stop offset="0.43" stop-color="#80bf00"/><stop offset="0.65" stop-color="#63a000"/><stop offset="0.88" stop-color="#478200"/></linearGradient><linearGradient id="g" x1="171.65" y1="270.21" x2="177.04" y2="219.42" gradientTransform="matrix(-0.99, 0.11, -0.11, -0.99, 494.86, 605.56)" xlink:href="#c"/><linearGradient id="h" x1="284.59" y1="315.46" x2="284.59" y2="402.52" gradientUnits="userSpaceOnUse"><stop offset="0" stop-color="#bf0"/><stop offset="0.49" stop-color="#85c900"/><stop offset="0.74" stop-color="#6eb100"/><stop offset="1" stop-color="#599c00"/></linearGradient><linearGradient id="i" x1="405.66" y1="312.46" x2="406.96" y2="390.92" xlink:href="#f"/><linearGradient id="j" x1="415.38" y1="320.82" x2="415.38" y2="401.7" gradientTransform="translate(-27.24 16.58) rotate(-1.83)" gradientUnits="userSpaceOnUse"><stop offset="0" stop-color="#b8de00"/><stop offset="0.09" stop-color="#a9d600"/><stop offset="0.27" stop-color="#92c900"/><stop offset="0.44" stop-color="#85c200"/><stop offset="0.59" stop-color="#80bf00"/><stop offset="0.67" stop-color="#73b100"/><stop offset="0.83" stop-color="#518c00"/><stop offset="0.87" stop-color="#478200"/></linearGradient><linearGradient id="k" x1="406.12" y1="412.45" x2="406.12" y2="484.69" gradientTransform="matrix(1, -0.03, 0.03, 0.82, -27.54, 15.55)" xlink:href="#c"/><linearGradient id="l" x1="-68.91" y1="155.96" x2="-61.8" y2="95.6" gradientTransform="matrix(-0.99, -0.11, 0.11, -0.99, 362.79, 493.59)" xlink:href="#h"/><linearGradient id="m" x1="319.78" y1="314.07" x2="321.08" y2="392.56" xlink:href="#f"/><linearGradient id="n" x1="310.8" y1="314.24" x2="312.1" y2="392.73" xlink:href="#f"/><linearGradient id="o" x1="279.52" y1="327.82" x2="279.52" y2="404.7" xlink:href="#h"/><linearGradient id="p" x1="323.64" y1="313.99" x2="324.94" y2="392.5" xlink:href="#f"/><linearGradient id="q" x1="465.65" y1="416.56" x2="465.65" y2="472.38" gradientTransform="matrix(0.74, -0.21, 0.28, 0.99, -77.84, 30.33)" xlink:href="#c"/><linearGradient id="r" x1="349.59" y1="370.39" x2="349.59" y2="402.78" xlink:href="#h"/><linearGradient id="s" x1="367.21" y1="313.16" x2="368.5" y2="391.67" xlink:href="#f"/><linearGradient id="t" x1="288.71" y1="336.92" x2="288.71" y2="404.44" xlink:href="#h"/><linearGradient id="u" x1="296.01" y1="332.92" x2="296.01" y2="404.7" xlink:href="#h"/><linearGradient id="v" x1="338.88" y1="344.44" x2="338.88" y2="401.09" gradientTransform="matrix(1, 0, 0, 1, 0, 0)" xlink:href="#c"/><linearGradient id="w" x1="256.01" y1="339.22" x2="256.01" y2="395.87" gradientTransform="matrix(1, 0, 0, 1, 0, 0)" xlink:href="#c"/><linearGradient id="x" x1="360.38" y1="346.1" x2="360.38" y2="404.7" xlink:href="#h"/><linearGradient id="y" x1="308.32" y1="322.37" x2="308.32" y2="405.19" xlink:href="#h"/><linearGradient id="z" x1="335.94" y1="334.28" x2="335.94" y2="400.67" gradientTransform="matrix(1, 0, 0, 1, 0, 0)" xlink:href="#c"/><linearGradient id="aa" x1="302.49" y1="314.41" x2="303.79" y2="392.89" xlink:href="#f"/><linearGradient id="ab" x1="329.91" y1="313.87" x2="331.21" y2="392.37" xlink:href="#f"/><linearGradient id="ac" x1="367.44" y1="309.24" x2="368.8" y2="391.17" xlink:href="#f"/><linearGradient id="ad" x1="420.3" y1="282.69" x2="410.85" y2="202.34" gradientTransform="matrix(0.99, -0.12, -0.12, -0.99, -30.39, 664.3)" gradientUnits="userSpaceOnUse"><stop offset="0" stop-color="#b8de00"/><stop offset="0.04" stop-color="#a9d600"/><stop offset="0.11" stop-color="#92c900"/><stop offset="0.18" stop-color="#85c200"/><stop offset="0.24" stop-color="#80bf00"/><stop offset="0.43" stop-color="#73b100"/><stop offset="0.78" stop-color="#518c00"/><stop offset="0.87" stop-color="#478200"/></linearGradient><linearGradient id="ae" x1="371.74" y1="274.79" x2="363.66" y2="212.39" gradientTransform="matrix(0.99, -0.13, -0.13, -0.99, -25.89, 666.58)" xlink:href="#h"/><linearGradient id="af" x1="308.57" y1="321.28" x2="308.57" y2="404.7" gradientUnits="userSpaceOnUse"><stop offset="0" stop-color="#bf0"/><stop offset="0.27" stop-color="#85c900"/><stop offset="0.35" stop-color="#7ec200"/><stop offset="0.7" stop-color="#63a600"/><stop offset="0.91" stop-color="#599c00"/></linearGradient><linearGradient id="ag" x1="290.67" y1="324.39" x2="290.67" y2="404.7" xlink:href="#h"/><linearGradient id="ah" x1="349.87" y1="327.91" x2="349.87" y2="404.92" xlink:href="#h"/><linearGradient id="ai" x1="355.29" y1="373.7" x2="355.29" y2="398.36" xlink:href="#h"/><linearGradient id="aj" x1="300.2" y1="332.43" x2="300.2" y2="404.7" xlink:href="#h"/><linearGradient id="ak" x1="382.08" y1="312.88" x2="383.37" y2="391.38" xlink:href="#f"/><linearGradient id="al" x1="348.93" y1="313.53" x2="350.23" y2="392.01" xlink:href="#f"/><linearGradient id="am" x1="483.7" y1="506.88" x2="483.7" y2="549.42" gradientTransform="matrix(0.95, -0.3, 0.5, 1.57, -318.63, -318.2)" xlink:href="#c"/><linearGradient id="an" x1="318.9" y1="330.12" x2="318.9" y2="404.35" xlink:href="#h"/><linearGradient id="ao" x1="317.64" y1="265.21" x2="317.64" y2="329.93" gradientTransform="matrix(0.99, -0.15, 0.15, 0.99, 15.81, 126.68)" gradientUnits="userSpaceOnUse"><stop offset="0" stop-color="#b8de00"/><stop offset="0.04" stop-color="#a9d600"/><stop offset="0.12" stop-color="#92c900"/><stop offset="0.19" stop-color="#85c200"/><stop offset="0.26" stop-color="#80bf00"/><stop offset="0.44" stop-color="#73b100"/><stop offset="0.79" stop-color="#518c00"/><stop offset="0.87" stop-color="#478200"/></linearGradient><linearGradient id="ap" x1="287.44" y1="314.73" x2="288.73" y2="393.17" xlink:href="#f"/><linearGradient id="aq" x1="385.57" y1="366.65" x2="385.57" y2="456.07" gradientTransform="matrix(0.98, -0.21, 0.19, 0.88, -129.33, 83.25)" xlink:href="#h"/><linearGradient id="ar" x1="487.67" y1="452.47" x2="487.67" y2="526.63" gradientTransform="matrix(0.98, -0.21, 0.2, 0.91, -161.72, 29.3)" xlink:href="#h"/><linearGradient id="as" x1="517.23" y1="401.71" x2="517.23" y2="455.85" gradientTransform="matrix(0.99, -0.14, 0.16, 1.16, -162.53, -55.15)" xlink:href="#c"/><linearGradient id="at" x1="432.35" y1="311.97" x2="433.65" y2="390.42" xlink:href="#f"/><linearGradient id="au" x1="454.62" y1="231.81" x2="445.36" y2="153.11" gradientTransform="matrix(1.24, -0.27, -0.27, -1.06, -77.82, 697.08)" gradientUnits="userSpaceOnUse"><stop offset="0" stop-color="#b8de00"/><stop offset="0.14" stop-color="#acd700"/><stop offset="0.4" stop-color="#8cc600"/><stop offset="0.49" stop-color="#80bf00"/><stop offset="0.6" stop-color="#73b100"/><stop offset="0.82" stop-color="#518c00"/><stop offset="0.87" stop-color="#478200"/></linearGradient><linearGradient id="av" x1="468.03" y1="364.98" x2="468.03" y2="454.2" gradientTransform="translate(-111.8 47.63) rotate(-10.67)" xlink:href="#h"/><linearGradient id="aw" x1="319.61" y1="314.08" x2="320.91" y2="392.56" xlink:href="#f"/><linearGradient id="ax" x1="302.87" y1="314.38" x2="304.17" y2="392.89" xlink:href="#f"/><linearGradient id="ay" x1="443.21" y1="340.04" x2="443.21" y2="431.46" gradientTransform="matrix(0.97, -0.24, 0.24, 0.97, -144.19, 88.61)" xlink:href="#h"/><linearGradient id="az" x1="283.89" y1="314.79" x2="285.19" y2="393.24" xlink:href="#f"/><linearGradient id="ba" x1="103.07" y1="286.02" x2="113.11" y2="200.74" gradientTransform="translate(498.73 602.14) rotate(173.29)" xlink:href="#h"/><linearGradient id="bb" x1="294.62" y1="314.57" x2="295.91" y2="393.03" xlink:href="#f"/><linearGradient id="bc" x1="386.31" y1="337.13" x2="386.31" y2="406.45" gradientUnits="userSpaceOnUse"><stop offset="0" stop-color="#c7ed61"/><stop offset="0.38" stop-color="#abe84a"/><stop offset="0.48" stop-color="#9edc3f"/><stop offset="0.66" stop-color="#7dbe21"/><stop offset="0.82" stop-color="#599c00"/></linearGradient><linearGradient id="bd" x1="406.89" y1="565.99" x2="406.89" y2="604.08" gradientTransform="matrix(1.73, -0.55, 0.55, 1.72, -623.68, -414.47)" xlink:href="#h"/><linearGradient id="be" x1="375.03" y1="267.16" x2="367.77" y2="211.08" gradientTransform="matrix(0.99, -0.13, -0.13, -0.99, -25.89, 666.58)" xlink:href="#h"/><linearGradient id="bf" x1="133.83" y1="318.27" x2="147.67" y2="200.68" gradientTransform="matrix(-0.98, 0.19, -0.19, -0.88, 550.68, 566.9)" gradientUnits="userSpaceOnUse"><stop offset="0" stop-color="#b8de00"/><stop offset="0.09" stop-color="#a9d600"/><stop offset="0.26" stop-color="#92c900"/><stop offset="0.42" stop-color="#85c200"/><stop offset="0.57" stop-color="#80bf00"/><stop offset="0.77" stop-color="#63a000"/><stop offset="1" stop-color="#478200"/></linearGradient><linearGradient id="bg" x1="252.52" y1="328.87" x2="264.61" y2="226.19" gradientTransform="matrix(-0.98, 0.17, -0.18, -0.73, 547.3, 527.14)" xlink:href="#c"/><linearGradient id="bh" x1="30.44" y1="292.51" x2="47.75" y2="145.46" gradientTransform="translate(498.73 602.14) rotate(173.29)" xlink:href="#h"/><linearGradient id="bi" x1="445.02" y1="137.67" x2="445.02" y2="192.82" gradientTransform="matrix(0.83, -0.55, 0.49, 0.75, -36.79, 498.63)" xlink:href="#bc"/><linearGradient id="bj" x1="469.89" y1="148.82" x2="469.89" y2="203.98" gradientTransform="matrix(0.83, -0.55, 0.49, 0.75, -36.79, 498.63)" xlink:href="#bc"/><linearGradient id="bk" x1="413.46" y1="300.31" x2="402.1" y2="203.81" gradientTransform="matrix(0.99, -0.12, -0.12, -0.99, -30.39, 664.3)" gradientUnits="userSpaceOnUse"><stop offset="0" stop-color="#b8de00"/><stop offset="0.05" stop-color="#a9d600"/><stop offset="0.14" stop-color="#92c900"/><stop offset="0.23" stop-color="#85c200"/><stop offset="0.3" stop-color="#80bf00"/><stop offset="0.48" stop-color="#6ba800"/><stop offset="0.73" stop-color="#518c00"/><stop offset="0.87" stop-color="#478200"/></linearGradient><linearGradient id="bl" x1="249.43" y1="334.72" x2="249.43" y2="402.87" gradientTransform="matrix(1, 0, 0, 1, 0, 0)" xlink:href="#j"/><linearGradient id="bm" x1="233.31" y1="338.03" x2="233.31" y2="402.87" gradientUnits="userSpaceOnUse"><stop offset="0" stop-color="#b8de00"/><stop offset="0.01" stop-color="#b2da00"/><stop offset="0.06" stop-color="#9cce00"/><stop offset="0.12" stop-color="#8cc600"/><stop offset="0.18" stop-color="#83c100"/><stop offset="0.27" stop-color="#80bf00"/><stop offset="0.45" stop-color="#73b100"/><stop offset="0.79" stop-color="#518c00"/><stop offset="0.87" stop-color="#478200"/></linearGradient><linearGradient id="bn" x1="262.7" y1="331.81" x2="262.7" y2="398.95" gradientTransform="matrix(1, 0, 0, 1, 0, 0)" xlink:href="#c"/><linearGradient id="bo" x1="273.25" y1="375.33" x2="273.25" y2="397.59" xlink:href="#h"/><linearGradient id="bp" x1="264.9" y1="349.99" x2="264.9" y2="402.87" xlink:href="#h"/><linearGradient id="bq" x1="273.9" y1="345.08" x2="273.9" y2="402.87" xlink:href="#h"/><linearGradient id="br" x1="310.92" y1="311.08" x2="302.94" y2="243.31" gradientTransform="matrix(0.99, -0.16, -0.16, -0.99, -1.43, 694.05)" xlink:href="#c"/><linearGradient id="bs" x1="269.71" y1="315.02" x2="271.01" y2="393.52" xlink:href="#f"/><linearGradient id="bt" x1="347.35" y1="292.57" x2="337.89" y2="212.21" gradientTransform="matrix(0.99, -0.12, -0.12, -0.99, -30.39, 664.3)" xlink:href="#bc"/><linearGradient id="bu" x1="269.4" y1="321.84" x2="269.4" y2="402.87" xlink:href="#h"/><linearGradient id="bv" x1="275.23" y1="371.67" x2="275.23" y2="402.87" xlink:href="#h"/><linearGradient id="bw" x1="254.42" y1="315.44" x2="254.42" y2="402.61" xlink:href="#h"/><linearGradient id="bx" x1="238.57" y1="319.43" x2="238.57" y2="402.52" xlink:href="#h"/><linearGradient id="by" x1="353.88" y1="295.91" x2="353.88" y2="355.46" gradientTransform="translate(-172.36 128.83) rotate(-12.01)" xlink:href="#bk"/><linearGradient id="bz" x1="219.58" y1="295.32" x2="231.85" y2="191.09" gradientTransform="translate(498.73 602.14) rotate(173.29)" xlink:href="#c"/><linearGradient id="ca" x1="171.63" y1="289.16" x2="180.7" y2="212.06" gradientTransform="matrix(0.98, 0.2, 0.2, -0.98, 217.4, 591.65)" xlink:href="#bc"/><linearGradient id="cb" x1="104.91" y1="259.98" x2="115.64" y2="168.83" gradientTransform="matrix(0.92, 0.39, 0.39, -0.92, 239.89, 535.1)" xlink:href="#h"/><linearGradient id="cc" x1="67.66" y1="262.6" x2="75.88" y2="192.77" gradientTransform="matrix(0.98, 0.2, 0.2, -0.98, 217.4, 591.65)" gradientUnits="userSpaceOnUse"><stop offset="0" stop-color="#d1f259"/><stop offset="0.43" stop-color="#a3de00"/><stop offset="0.48" stop-color="#9cd800"/><stop offset="0.83" stop-color="#6cad00"/><stop offset="1" stop-color="#599c00"/></linearGradient><linearGradient id="cd" x1="11.72" y1="210.7" x2="21.03" y2="131.61" gradientTransform="matrix(0.92, 0.39, 0.39, -0.92, 239.89, 535.1)" xlink:href="#h"/><linearGradient id="ce" x1="359.54" y1="315.81" x2="359.54" y2="404.34" xlink:href="#h"/><linearGradient id="cf" x1="366.26" y1="313.17" x2="367.56" y2="391.7" xlink:href="#f"/><linearGradient id="cg" x1="316.35" y1="543.94" x2="316.35" y2="574.71" gradientTransform="matrix(1.73, -0.55, 0.55, 1.72, -623.68, -414.47)" xlink:href="#h"/><linearGradient id="ch" x1="470.47" y1="361.31" x2="470.47" y2="410.25" gradientTransform="matrix(-1, -0.08, -0.08, 1, 762.55, 29.98)" xlink:href="#h"/><linearGradient id="ci" x1="-1.79" y1="239.95" x2="5" y2="182.25" gradientTransform="matrix(0.98, 0.2, 0.2, -0.98, 217.4, 591.65)" xlink:href="#bc"/><linearGradient id="cj" x1="477.2" y1="359.44" x2="477.2" y2="412.84" gradientTransform="matrix(-1, -0.08, -0.08, 1, 762.55, 29.98)" xlink:href="#h"/><linearGradient id="ck" x1="117.98" y1="228.01" x2="123.98" y2="177.05" gradientTransform="translate(480.82 544.92) rotate(161.61)" gradientUnits="userSpaceOnUse"><stop offset="0" stop-color="#bbe000"/><stop offset="0.16" stop-color="#addf00"/><stop offset="0.32" stop-color="#a3de00"/><stop offset="0.58" stop-color="#7bba00"/><stop offset="0.82" stop-color="#599c00"/></linearGradient><linearGradient id="cl" x1="157.28" y1="106.34" x2="157.28" y2="151.35" gradientTransform="translate(94.79 334.95) rotate(-26.49)" xlink:href="#bc"/><linearGradient id="cm" x1="180.99" y1="560.86" x2="180.99" y2="587.84" gradientTransform="matrix(1.07, -0.34, 0.57, 1.78, -181.66, -585.17)" xlink:href="#bc"/><linearGradient id="cn" x1="295.19" y1="330.73" x2="295.19" y2="363.7" gradientTransform="matrix(-0.97, -0.23, -0.29, 1.21, 751.21, 33.34)" xlink:href="#bc"/><linearGradient id="co" x1="96.25" y1="253.33" x2="102.46" y2="200.57" gradientTransform="matrix(0.98, 0.2, 0.2, -0.98, 217.4, 591.65)" gradientUnits="userSpaceOnUse"><stop offset="0" stop-color="#bf0"/><stop offset="0.51" stop-color="#a3de00"/><stop offset="0.82" stop-color="#71b200"/><stop offset="1" stop-color="#599c00"/></linearGradient><linearGradient id="cp" x1="119.01" y1="66.4" x2="126.87" y2="-0.39" gradientTransform="matrix(0.9, 0.23, 0.42, -0.65, 221.6, 383.51)" gradientUnits="userSpaceOnUse"><stop offset="0" stop-color="#bbe800"/><stop offset="0.32" stop-color="#a3de00"/><stop offset="0.45" stop-color="#88c600"/><stop offset="0.6" stop-color="#6eaf00"/><stop offset="0.75" stop-color="#5ea100"/><stop offset="0.86" stop-color="#599c00"/></linearGradient><linearGradient id="cq" x1="158.22" y1="262.32" x2="164.17" y2="211.81" xlink:href="#cc"/><linearGradient id="cr" x1="101.57" y1="228.76" x2="108.32" y2="171.43" gradientTransform="matrix(0.92, 0.39, 0.39, -0.92, 239.89, 535.1)" xlink:href="#h"/><linearGradient id="cs" x1="251.71" y1="585.2" x2="251.71" y2="604.67" gradientTransform="matrix(1.07, -0.34, 0.57, 1.78, -181.66, -585.17)" xlink:href="#bc"/><linearGradient id="ct" x1="201.89" y1="90.41" x2="209.37" y2="26.84" xlink:href="#cp"/><linearGradient id="cu" x1="380" y1="343.2" x2="380" y2="407.22" gradientTransform="matrix(-1, -0.08, -0.08, 1, 762.55, 29.98)" xlink:href="#h"/><linearGradient id="cv" x1="1033.88" y1="614.44" x2="1039.88" y2="563.45" gradientTransform="matrix(-0.9, 0.47, -0.44, -1.11, 1582.47, 557.83)" xlink:href="#bc"/><linearGradient id="cw" x1="980.06" y1="505.3" x2="987.61" y2="441.15" gradientTransform="matrix(-0.87, 0.34, -0.51, -0.73, 1493.34, 410.35)" gradientUnits="userSpaceOnUse"><stop offset="0" stop-color="#bf0"/><stop offset="0.07" stop-color="#b3f400"/><stop offset="0.21" stop-color="#a7e400"/><stop offset="0.32" stop-color="#a3de00"/><stop offset="0.65" stop-color="#82c000"/><stop offset="1" stop-color="#599c00"/></linearGradient><linearGradient id="cx" x1="-621.58" y1="167.29" x2="-621.58" y2="214.71" gradientTransform="translate(908.27 13.77) rotate(-17.43)" xlink:href="#h"/><linearGradient id="cy" x1="399.49" y1="370.19" x2="399.49" y2="404.67" gradientUnits="userSpaceOnUse"><stop offset="0" stop-color="#bbe300"/><stop offset="0.03" stop-color="#b9e10d"/><stop offset="0.08" stop-color="#b7e01e"/><stop offset="0.13" stop-color="#b5de28"/><stop offset="0.2" stop-color="#b5de2b"/><stop offset="0.36" stop-color="#9fd01f"/><stop offset="0.68" stop-color="#69ad00"/></linearGradient><linearGradient id="cz" x1="287.38" y1="370.05" x2="287.38" y2="405.42" gradientUnits="userSpaceOnUse"><stop offset="0" stop-color="#bbed00"/><stop offset="0.51" stop-color="#a3de00"/><stop offset="0.67" stop-color="#9bd000"/><stop offset="1" stop-color="#8cb800"/></linearGradient><linearGradient id="da" x1="411.66" y1="366.6" x2="411.66" y2="404.48" xlink:href="#cy"/><linearGradient id="db" x1="396.55" y1="321.39" x2="409.83" y2="405.29" xlink:href="#cy"/><linearGradient id="dc" x1="435.37" y1="338.55" x2="435.37" y2="375.75" gradientTransform="matrix(0.98, -0.21, 0.21, 0.98, -172.89, 127.61)" xlink:href="#h"/><linearGradient id="dd" x1="136.47" y1="258.75" x2="144.79" y2="188.1" gradientTransform="matrix(-0.99, 0.12, -0.12, -0.99, 498.22, 602.11)" xlink:href="#h"/><linearGradient id="de" x1="195.57" y1="122.39" x2="201.44" y2="72.57" gradientTransform="matrix(-0.74, 0.18, -0.13, -1.32, 478, 485.24)" xlink:href="#bc"/><linearGradient id="df" x1="439.35" y1="369.38" x2="439.35" y2="404.75" xlink:href="#cz"/><linearGradient id="dg" x1="89.99" y1="549.87" x2="89.99" y2="569.95" gradientTransform="matrix(1.07, -0.34, 0.57, 1.78, -181.66, -585.17)" xlink:href="#bc"/><linearGradient id="dh" x1="-0.83" y1="193.17" x2="5.93" y2="135.7" gradientTransform="matrix(0.98, 0.18, 0.19, -0.89, 221.39, 533.04)" xlink:href="#co"/><linearGradient id="di" x1="53.74" y1="-30.52" x2="61.29" y2="-94.71" gradientTransform="matrix(0.9, 0.19, 0.43, -0.58, 215.77, 344.35)" xlink:href="#cp"/><linearGradient id="dj" x1="484.65" y1="360.74" x2="484.65" y2="413.83" gradientTransform="matrix(-1, -0.08, -0.08, 1, 762.55, 29.98)" xlink:href="#h"/><linearGradient id="dk" x1="1155.64" y1="608.5" x2="1162.45" y2="550.66" gradientTransform="translate(1565.36 439.72) rotate(155.85)" xlink:href="#bc"/><linearGradient id="dl" x1="1087.88" y1="613.65" x2="1095.43" y2="549.57" gradientTransform="matrix(-0.83, 0.43, -0.56, -0.54, 1515.55, 238.38)" xlink:href="#cw"/><linearGradient id="dm" x1="229.77" y1="336.86" x2="229.77" y2="403.86" xlink:href="#bm"/><linearGradient id="dn" x1="232.24" y1="336.13" x2="232.24" y2="336.86" xlink:href="#bm"/><linearGradient id="do" x1="226.95" y1="324.89" x2="226.95" y2="388.07" xlink:href="#h"/><linearGradient id="dp" x1="227.56" y1="309.79" x2="227.96" y2="416.94" gradientTransform="matrix(1, 0, 0, 1, 0, 0)" xlink:href="#cc"/><linearGradient id="dq" x1="227.5" y1="312.2" x2="227.5" y2="481.23" xlink:href="#h"/><linearGradient id="dr" x1="228.33" y1="340.34" x2="228.33" y2="405.26" xlink:href="#h"/><linearGradient id="ds" x1="448.43" y1="386.39" x2="448.43" y2="403.86" xlink:href="#bm"/><linearGradient id="dt" x1="446.1" y1="296.57" x2="446.1" y2="372.59" xlink:href="#h"/><linearGradient id="du" x1="445.42" y1="323.05" x2="445.42" y2="492.11" xlink:href="#h"/><linearGradient id="dv" x1="444.92" y1="308.62" x2="445.32" y2="415.77" gradientTransform="matrix(1, 0, 0, 1, 0, 0)" xlink:href="#cc"/><linearGradient id="dw" x1="189.35" y1="262.75" x2="189.35" y2="319.72" xlink:href="#c"/><linearGradient id="dx" x1="185.75" y1="330.87" x2="185.75" y2="397.26" gradientTransform="matrix(1, 0, 0, 1, 0, 0)" xlink:href="#c"/><linearGradient id="dy" x1="317.94" y1="374.85" x2="317.94" y2="428.33" gradientTransform="matrix(0.99, -0.14, 0.16, 1.16, -162.53, -55.15)" xlink:href="#c"/><linearGradient id="dz" x1="168.13" y1="316.98" x2="169.43" y2="395.46" xlink:href="#f"/><linearGradient id="ea" x1="395.41" y1="293.93" x2="400.79" y2="243.13" gradientTransform="matrix(-0.99, 0.11, -0.11, -0.99, 494.86, 605.56)" xlink:href="#c"/><linearGradient id="eb" x1="59.59" y1="315.46" x2="59.59" y2="402.52" xlink:href="#h"/><linearGradient id="ec" x1="180.73" y1="316.75" x2="182.03" y2="395.21" xlink:href="#f"/><linearGradient id="ed" x1="190.5" y1="313.65" x2="190.5" y2="394.53" xlink:href="#j"/><linearGradient id="ee" x1="182.24" y1="403.96" x2="182.24" y2="480.5" gradientTransform="matrix(1, -0.03, 0.03, 0.82, -27.54, 15.55)" gradientUnits="userSpaceOnUse"><stop offset="0" stop-color="#9ccf00"/><stop offset="0.31" stop-color="#99d100"/><stop offset="0.39" stop-color="#94cc00"/><stop offset="0.49" stop-color="#84bf00"/><stop offset="0.6" stop-color="#6ba900"/><stop offset="0.72" stop-color="#488a00"/><stop offset="0.72" stop-color="#478a00"/></linearGradient><linearGradient id="ef" x1="214.3" y1="316.1" x2="215.6" y2="394.56" xlink:href="#f"/><linearGradient id="eg" x1="94.85" y1="318.35" x2="96.15" y2="396.85" xlink:href="#f"/><linearGradient id="eh" x1="85.87" y1="318.53" x2="87.17" y2="397.02" xlink:href="#f"/><linearGradient id="ei" x1="98.71" y1="318.28" x2="100.01" y2="396.78" xlink:href="#f"/><linearGradient id="ej" x1="183.19" y1="356.49" x2="183.19" y2="412.31" gradientTransform="matrix(0.74, -0.21, 0.28, 0.99, -77.84, 30.33)" xlink:href="#c"/><linearGradient id="ek" x1="124.59" y1="370.39" x2="124.59" y2="402.78" xlink:href="#h"/><linearGradient id="el" x1="142.28" y1="317.45" x2="143.57" y2="395.96" xlink:href="#f"/><linearGradient id="em" x1="63.71" y1="336.92" x2="63.71" y2="404.44" gradientTransform="matrix(1, 0, 0, 1, 0, 0)" xlink:href="#bk"/><linearGradient id="en" x1="71.01" y1="332.92" x2="71.01" y2="404.7" gradientUnits="userSpaceOnUse"><stop offset="0" stop-color="#91cf00"/><stop offset="0.16" stop-color="#8ccc00"/><stop offset="0.49" stop-color="#85c900"/><stop offset="0.74" stop-color="#6eb100"/><stop offset="1" stop-color="#599c00"/></linearGradient><linearGradient id="eo" x1="113.88" y1="344.44" x2="113.88" y2="401.09" gradientTransform="matrix(1, 0, 0, 1, 0, 0)" xlink:href="#c"/><linearGradient id="ep" x1="135.38" y1="346.1" x2="135.38" y2="404.7" xlink:href="#h"/><linearGradient id="eq" x1="83.32" y1="322.37" x2="83.32" y2="405.19" xlink:href="#h"/><linearGradient id="er" x1="245.67" y1="552.9" x2="245.67" y2="582.58" gradientTransform="matrix(0.96, -0.27, 0.41, 1.43, -294.74, -360.46)" xlink:href="#h"/><linearGradient id="es" x1="110.94" y1="334.28" x2="110.94" y2="400.67" gradientTransform="matrix(1, 0, 0, 1, 0, 0)" xlink:href="#c"/><linearGradient id="et" x1="77.56" y1="318.7" x2="78.86" y2="397.17" xlink:href="#f"/><linearGradient id="eu" x1="104.98" y1="318.16" x2="106.28" y2="396.65" xlink:href="#f"/><linearGradient id="ev" x1="142.68" y1="317.43" x2="143.98" y2="395.94" xlink:href="#f"/><linearGradient id="ew" x1="196.84" y1="308.99" x2="187.38" y2="228.65" xlink:href="#ad"/><linearGradient id="ex" x1="148.59" y1="303.68" x2="140.51" y2="241.28" gradientTransform="matrix(0.99, -0.13, -0.13, -0.99, -25.89, 666.58)" xlink:href="#h"/><linearGradient id="ey" x1="83.57" y1="321.28" x2="83.57" y2="404.7" xlink:href="#af"/><linearGradient id="ez" x1="65.67" y1="324.39" x2="65.67" y2="404.7" xlink:href="#h"/><linearGradient id="fa" x1="124.87" y1="327.91" x2="124.87" y2="404.92" xlink:href="#h"/><linearGradient id="fb" x1="130.29" y1="373.7" x2="130.29" y2="398.36" xlink:href="#h"/><linearGradient id="fc" x1="75.2" y1="332.43" x2="75.2" y2="404.7" xlink:href="#h"/><linearGradient id="fd" x1="157.15" y1="317.17" x2="158.45" y2="395.67" xlink:href="#f"/><linearGradient id="fe" x1="125" y1="331.31" x2="125" y2="403.28" xlink:href="#h"/><linearGradient id="ff" x1="269.4" y1="465.36" x2="269.4" y2="507.89" gradientTransform="matrix(0.95, -0.3, 0.5, 1.57, -318.63, -318.2)" xlink:href="#c"/><linearGradient id="fg" x1="93.9" y1="330.12" x2="93.9" y2="404.35" xlink:href="#h"/><linearGradient id="fh" x1="95.27" y1="230.9" x2="95.27" y2="295.61" xlink:href="#ao"/><linearGradient id="fi" x1="62.51" y1="319.01" x2="63.8" y2="397.45" xlink:href="#f"/><linearGradient id="fj" x1="165.87" y1="287.94" x2="165.87" y2="377.31" gradientTransform="translate(-132.29 69.88) rotate(-12.25)" xlink:href="#h"/><linearGradient id="fk" x1="267.87" y1="400.89" x2="267.87" y2="475.05" gradientTransform="matrix(0.98, -0.21, 0.2, 0.91, -161.72, 29.3)" xlink:href="#h"/><linearGradient id="fl" x1="294.46" y1="374.92" x2="294.46" y2="429.06" gradientTransform="matrix(0.99, -0.14, 0.16, 1.16, -162.53, -55.15)" xlink:href="#c"/><linearGradient id="fm" x1="207.42" y1="316.26" x2="208.72" y2="394.71" xlink:href="#f"/><linearGradient id="fn" x1="281.96" y1="275.49" x2="272.7" y2="196.79" xlink:href="#au"/><linearGradient id="fo" x1="160.6" y1="317.11" x2="161.9" y2="395.6" xlink:href="#f"/><linearGradient id="fp" x1="246.91" y1="323.33" x2="246.91" y2="412.55" gradientTransform="translate(-111.8 47.63) rotate(-10.67)" xlink:href="#h"/><linearGradient id="fq" x1="93.56" y1="318.38" x2="94.86" y2="396.87" xlink:href="#f"/><linearGradient id="fr" x1="77.95" y1="318.67" x2="79.24" y2="397.17" xlink:href="#f"/><linearGradient id="fs" x1="224.55" y1="287.01" x2="224.55" y2="378.42" gradientTransform="matrix(0.97, -0.24, 0.24, 0.97, -144.19, 88.61)" xlink:href="#h"/><linearGradient id="ft" x1="57.66" y1="319.1" x2="58.95" y2="397.54" xlink:href="#f"/><linearGradient id="fu" x1="326.54" y1="312.33" x2="336.57" y2="227.05" gradientTransform="translate(498.73 602.14) rotate(173.29)" xlink:href="#h"/><linearGradient id="fv" x1="69.69" y1="318.85" x2="70.98" y2="397.32" xlink:href="#f"/><linearGradient id="fw" x1="161.31" y1="337.13" x2="161.31" y2="406.45" xlink:href="#bc"/><linearGradient id="fx" x1="152.19" y1="297.35" x2="144.81" y2="240.31" gradientTransform="matrix(0.99, -0.13, -0.13, -0.99, -25.89, 666.58)" xlink:href="#h"/><linearGradient id="fy" x1="353.99" y1="365.66" x2="367.83" y2="248.06" xlink:href="#bf"/><linearGradient id="fz" x1="472.18" y1="380.54" x2="484.27" y2="277.86" gradientTransform="matrix(-0.98, 0.17, -0.18, -0.73, 547.3, 527.14)" xlink:href="#c"/><linearGradient id="ga" x1="253.91" y1="318.81" x2="271.22" y2="171.76" gradientTransform="translate(498.73 602.14) rotate(173.29)" xlink:href="#h"/><linearGradient id="gb" x1="257.14" y1="-0.83" x2="257.14" y2="54.32" gradientTransform="matrix(0.83, -0.55, 0.49, 0.75, -36.79, 498.63)" xlink:href="#bc"/><linearGradient id="gc" x1="216.17" y1="316.06" x2="217.47" y2="394.54" xlink:href="#f"/><linearGradient id="gd" x1="189.99" y1="326.62" x2="178.64" y2="230.12" xlink:href="#bk"/><linearGradient id="ge" x1="24.43" y1="334.72" x2="24.43" y2="402.87" xlink:href="#h"/><linearGradient id="gf" x1="8.31" y1="338.03" x2="8.31" y2="402.87" xlink:href="#bm"/><linearGradient id="gg" x1="37.7" y1="331.37" x2="37.7" y2="402.52" gradientTransform="matrix(1, 0, 0, 1, 0, 0)" xlink:href="#bk"/><linearGradient id="gh" x1="48.25" y1="375.33" x2="48.25" y2="397.59" xlink:href="#h"/><linearGradient id="gi" x1="39.9" y1="349.99" x2="39.9" y2="402.87" xlink:href="#h"/><linearGradient id="gj" x1="48.9" y1="345.08" x2="48.9" y2="402.87" xlink:href="#h"/><linearGradient id="gk" x1="87.57" y1="341.7" x2="80.23" y2="279.32" gradientTransform="matrix(0.99, -0.16, -0.16, -0.99, -1.43, 694.05)" xlink:href="#c"/><linearGradient id="gl" x1="44.78" y1="319.31" x2="46.08" y2="397.81" xlink:href="#f"/><linearGradient id="gm" x1="123.88" y1="318.88" x2="114.42" y2="238.52" gradientTransform="matrix(0.99, -0.12, -0.12, -0.99, -30.39, 664.3)" xlink:href="#bc"/><linearGradient id="gn" x1="43" y1="321.84" x2="43" y2="402.87" xlink:href="#h"/><linearGradient id="go" x1="50.23" y1="371.67" x2="50.23" y2="402.87" xlink:href="#h"/><linearGradient id="gp" x1="29.78" y1="325.32" x2="29.78" y2="402.61" gradientUnits="userSpaceOnUse"><stop offset="0" stop-color="#b8de00"/><stop offset="0.27" stop-color="#9acd00"/><stop offset="0.53" stop-color="#80bf00"/><stop offset="0.64" stop-color="#6ba800"/><stop offset="0.79" stop-color="#518c00"/><stop offset="0.87" stop-color="#478200"/></linearGradient><linearGradient id="gq" x1="13.57" y1="319.43" x2="13.57" y2="402.52" gradientTransform="matrix(1, 0, 0, 1, 0, 0)" xlink:href="#bk"/><linearGradient id="gr" x1="133.8" y1="249.09" x2="133.8" y2="307.85" gradientTransform="translate(-172.36 128.83) rotate(-12.01)" xlink:href="#bk"/><linearGradient id="gs" x1="443.05" y1="321.63" x2="455.32" y2="217.39" gradientTransform="translate(498.73 602.14) rotate(173.29)" xlink:href="#c"/><linearGradient id="gt" x1="-49.05" y1="245.14" x2="-39.97" y2="168.04" gradientTransform="matrix(0.98, 0.2, 0.2, -0.98, 217.4, 591.65)" xlink:href="#bc"/><linearGradient id="gu" x1="-102.28" y1="172.23" x2="-91.55" y2="81.08" gradientTransform="matrix(0.92, 0.39, 0.39, -0.92, 239.89, 535.1)" xlink:href="#h"/><linearGradient id="gv" x1="-153.01" y1="218.58" x2="-144.79" y2="148.75" xlink:href="#cc"/><linearGradient id="gw" x1="-195.47" y1="122.95" x2="-186.16" y2="43.86" gradientTransform="matrix(0.92, 0.39, 0.39, -0.92, 239.89, 535.1)" xlink:href="#h"/><linearGradient id="gx" x1="134.54" y1="315.81" x2="134.54" y2="404.34" xlink:href="#h"/><linearGradient id="gy" x1="141.33" y1="317.46" x2="142.63" y2="395.99" xlink:href="#f"/><linearGradient id="gz" x1="198.61" y1="506.06" x2="198.61" y2="536.83" gradientTransform="matrix(1.73, -0.55, 0.55, 1.72, -623.68, -414.47)" xlink:href="#h"/><linearGradient id="ha" x1="694.76" y1="379.22" x2="694.76" y2="428.16" gradientTransform="matrix(-1, -0.08, -0.08, 1, 762.55, 29.98)" xlink:href="#h"/><linearGradient id="hb" x1="-222.46" y1="195.93" x2="-215.67" y2="138.24" gradientTransform="matrix(0.98, 0.2, 0.2, -0.98, 217.4, 591.65)" xlink:href="#bc"/><linearGradient id="hc" x1="-259.64" y1="86.18" x2="-251.92" y2="20.55" gradientTransform="matrix(0.92, 0.39, 0.39, -0.92, 239.89, 535.1)" xlink:href="#bc"/><linearGradient id="hd" x1="701.49" y1="377.36" x2="701.49" y2="430.76" gradientTransform="matrix(-1, -0.08, -0.08, 1, 762.55, 29.98)" xlink:href="#h"/><linearGradient id="he" x1="331.49" y1="299.01" x2="337.49" y2="248.04" xlink:href="#ck"/><linearGradient id="hf" x1="-44.1" y1="5.98" x2="-44.1" y2="50.99" gradientTransform="translate(94.79 334.95) rotate(-26.49)" xlink:href="#bc"/><linearGradient id="hg" x1="-10.45" y1="524.23" x2="-10.45" y2="551.21" gradientTransform="matrix(1.07, -0.34, 0.57, 1.78, -181.66, -585.17)" xlink:href="#bc"/><linearGradient id="hh" x1="514.16" y1="372.52" x2="514.16" y2="405.5" gradientTransform="matrix(-0.97, -0.23, -0.29, 1.21, 751.21, 33.34)" xlink:href="#bc"/><linearGradient id="hi" x1="-124.42" y1="209.31" x2="-118.21" y2="156.56" xlink:href="#co"/><linearGradient id="hj" x1="-94.73" y1="-10.01" x2="-86.87" y2="-76.79" xlink:href="#cp"/><linearGradient id="hk" x1="-62.45" y1="218.31" x2="-56.5" y2="167.79" xlink:href="#cc"/><linearGradient id="hl" x1="-105.61" y1="141" x2="-98.86" y2="83.68" gradientTransform="matrix(0.92, 0.39, 0.39, -0.92, 239.89, 535.1)" xlink:href="#h"/><linearGradient id="hm" x1="60.27" y1="548.57" x2="60.27" y2="568.04" gradientTransform="matrix(1.07, -0.34, 0.57, 1.78, -181.66, -585.17)" xlink:href="#bc"/><linearGradient id="hn" x1="-11.85" y1="14.01" x2="-4.37" y2="-49.56" xlink:href="#cp"/><linearGradient id="ho" x1="604.29" y1="361.12" x2="604.29" y2="425.13" gradientTransform="matrix(-1, -0.08, -0.08, 1, 762.55, 29.98)" xlink:href="#h"/><linearGradient id="hp" x1="1242.83" y1="701.88" x2="1248.83" y2="650.89" gradientTransform="matrix(-0.9, 0.47, -0.44, -1.11, 1582.47, 557.83)" xlink:href="#bc"/><linearGradient id="hq" x1="1178.26" y1="603.56" x2="1185.81" y2="539.41" xlink:href="#cw"/><linearGradient id="hr" x1="-836.26" y1="99.87" x2="-836.26" y2="147.29" gradientTransform="translate(908.27 13.77) rotate(-17.43)" xlink:href="#h"/><linearGradient id="hs" x1="174.49" y1="381" x2="174.49" y2="404.67" xlink:href="#cy"/><linearGradient id="ht" x1="62.38" y1="370.05" x2="62.38" y2="405.42" xlink:href="#cz"/><linearGradient id="hu" x1="186.66" y1="366.6" x2="186.66" y2="404.48" xlink:href="#cy"/><linearGradient id="hv" x1="171.55" y1="321.39" x2="184.83" y2="405.29" xlink:href="#cy"/><linearGradient id="hw" x1="215.23" y1="291.97" x2="215.23" y2="329.17" gradientTransform="matrix(0.98, -0.21, 0.21, 0.98, -172.89, 127.61)" xlink:href="#h"/><linearGradient id="hx" x1="99.72" y1="544.49" x2="99.72" y2="574.7" gradientTransform="matrix(1, -0.03, 0.05, 1.48, -40.73, -443.55)" xlink:href="#bc"/><linearGradient id="hy" x1="359.97" y1="284.8" x2="368.29" y2="214.16" gradientTransform="matrix(-0.99, 0.12, -0.12, -0.99, 498.22, 602.11)" xlink:href="#h"/><linearGradient id="hz" x1="491.81" y1="162.51" x2="497.67" y2="112.7" gradientTransform="matrix(-0.74, 0.18, -0.13, -1.32, 478, 485.24)" xlink:href="#bc"/><linearGradient id="ia" x1="214.35" y1="369.38" x2="214.35" y2="404.75" xlink:href="#cz"/><linearGradient id="ib" x1="-101.45" y1="513.24" x2="-101.45" y2="533.32" gradientTransform="matrix(1.07, -0.34, 0.57, 1.78, -181.66, -585.17)" xlink:href="#bc"/><linearGradient id="ic" x1="-221.31" y1="147.39" x2="-214.54" y2="89.92" gradientTransform="matrix(0.98, 0.18, 0.19, -0.89, 221.39, 533.04)" xlink:href="#co"/><linearGradient id="id" x1="-162.74" y1="-102.23" x2="-155.18" y2="-166.42" gradientTransform="matrix(0.9, 0.19, 0.43, -0.58, 215.77, 344.35)" xlink:href="#cp"/><linearGradient id="ie" x1="708.95" y1="378.65" x2="708.95" y2="431.74" gradientTransform="matrix(-1, -0.08, -0.08, 1, 762.55, 29.98)" xlink:href="#h"/><linearGradient id="if" x1="1360.97" y1="700.56" x2="1367.77" y2="642.73" gradientTransform="translate(1565.36 439.72) rotate(155.85)" xlink:href="#bc"/><linearGradient id="ig" x1="1265" y1="754.54" x2="1272.54" y2="690.46" gradientTransform="matrix(-0.83, 0.43, -0.56, -0.54, 1515.55, 238.38)" xlink:href="#cw"/><linearGradient id="ih" x1="3.71" y1="336.86" x2="3.71" y2="403.86" xlink:href="#bm"/><linearGradient id="ii" x1="7.24" y1="336.13" x2="7.24" y2="336.86" xlink:href="#bm"/><linearGradient id="ij" x1="1.95" y1="324.89" x2="1.95" y2="388.07" xlink:href="#h"/><linearGradient id="ik" x1="2.56" y1="309.79" x2="2.96" y2="416.94" gradientTransform="matrix(1, 0, 0, 1, 0, 0)" xlink:href="#cc"/><linearGradient id="il" x1="2.5" y1="312.2" x2="2.5" y2="481.23" xlink:href="#h"/><linearGradient id="im" x1="3.33" y1="340.34" x2="3.33" y2="405.26" xlink:href="#h"/><linearGradient id="in" x1="223.43" y1="386.39" x2="223.43" y2="403.86" xlink:href="#bm"/><linearGradient id="io" x1="221.1" y1="296.57" x2="221.1" y2="372.59" xlink:href="#h"/><linearGradient id="ip" x1="220.42" y1="323.05" x2="220.42" y2="492.11" xlink:href="#h"/><linearGradient id="iq" x1="219.92" y1="308.62" x2="220.32" y2="415.77" gradientTransform="matrix(1, 0, 0, 1, 0, 0)" xlink:href="#cc"/><mask id="ir" x="-2.96" y="61.17" width="457.88" height="37.32" maskUnits="userSpaceOnUse"><g transform="translate(0 -307.53)"><rect class="a" x="-2.96" y="368.7" width="457.88" height="37.32"/></g></mask><linearGradient id="is" x1="225" y1="62.54" x2="225" y2="92.47" gradientUnits="userSpaceOnUse"><stop offset="0" stop-color="#fff"/><stop offset="0.65" stop-color="#80a800"/><stop offset="0.7" stop-color="#7ca200"/><stop offset="0.78" stop-color="#719100"/><stop offset="0.86" stop-color="#607600"/><stop offset="0.95" stop-color="#475000"/><stop offset="1" stop-color="#363600"/></linearGradient></defs><title>bottombg</title><g class="c"><g class="d"><path class="e" d="M418.91,345.86a227.09,227.09,0,0,1-1.58,25.79c-.92,7.58-2.29,16.32-4,25.45-.35,2.39-.87,4.78-1.45,7.21l5.54-1c.37-1.81.72-3.69,1-5.61C421.12,380.59,422.46,362.56,418.91,345.86Z" transform="translate(0 -307.53)"/><path class="f" d="M417.92,330.87c-2.23,8.91-4,17.89-5.73,26.81s-3.58,17.71-5.55,26.5c-.95,4.28-2,8.68-3.06,13.08h5.66c.94-3.7,2-7.91,2.86-12.4A332.61,332.61,0,0,0,417.92,330.87Z" transform="translate(0 -307.53)"/><path class="g" d="M447.86,358.58a110.25,110.25,0,0,0-3.38-22.73c2.3,24.13-3.1,42.09-2.92,63.43l5.11-.25c.13-4.85.62-9.81.54-14.59C447.05,376.37,448.39,366.69,447.86,358.58Z" transform="translate(0 -307.53)"/><path class="h" d="M397,365.63c-.85-9.68-1.66-19.4-2.64-29.07-1.35,20.05-3.05,55.9-5,65.91-.77,3.91,2.8.33,3,3.77l7.72-.87c-.15-3.69-.33-7.5-.63-10.95C398.52,384.88,397.79,375.22,397,365.63Z" transform="translate(0 -307.53)"/><path class="i" d="M294.48,355c-.81,9.71-.18,19.45.84,29.16.44,5.28-3.12,15.27-2.64,17.49h6.06c-1.68-8.52.57-23.6-1.36-32.13C295.62,361,294.48,355,294.48,355Z" transform="translate(0 -307.53)"/><path class="j" d="M298.31,315.46c-9.36,22.5-17.72,52.78-24.19,75.85-1.1,3.93-2.2,7.7-3.25,11.21h5.52Q283,380,288,357.25C290.45,345.61,295.79,327.09,298.31,315.46Z" transform="translate(0 -307.53)"/><path class="k" d="M404.07,347.54c.79,10.19.38,12.14-.17,20a343.06,343.06,0,0,0-.55,35.53l6,3c-.11-3.54,1.61-6.67,1.55-11C410.69,378.73,408,366.42,404.07,347.54Z" transform="translate(0 -307.53)"/><path class="l" d="M392.15,324.18c2.45,11.58,4.13,23.32,5.44,34.93,1.28,11.46,0,29.52.84,41,.22,3.16-.87,1.47-.56,4.78l8.86-1.16c-.26-3.1-.58-6.34-.94-9.67C404.26,370.57,401.37,346.35,392.15,324.18Z" transform="translate(0 -307.53)"/><path class="m" d="M392.07,368.24c-.66-8.86-1.32-17.72-2.25-26.55-2.29,17.81-2.36,35.82-1.71,53.51.05,1.73.1,3.39.12,5l5.6.82a63.08,63.08,0,0,0-.26-6.53C393.16,385.74,392.73,377,392.07,368.24Z" transform="translate(0 -307.53)"/><path class="n" d="M441.21,344.67c-7.21,13.17-5.73,30-3.26,46.25.65,4.28,1.19,8.21,1.64,11.68l5.45,1.85c-1.57-12.2-3.67-24.55-4.68-36.57A89.36,89.36,0,0,1,441.21,344.67Z" transform="translate(0 -307.53)"/><path class="o" d="M321.86,397.32c1.29-8.69,2.34-17,3-24.25,1.29-14.45,1.47-24.54,1.47-24.54-4.25,16.13-7,32.42-9.78,48.68-.44,2.64-.84,5.16-1.22,7.51h5.41C321.12,402.21,321.5,399.77,321.86,397.32Z" transform="translate(0 -307.53)"/><path class="p" d="M317.45,336.66c-.09,0-1.53,12-4.25,29C311.84,374.13,310,384,308.08,394c-.67,3.59-1.43,7-2.15,10.67h6.17c.55-2.9,1.16-6,1.73-9.36A279.12,279.12,0,0,0,317.45,336.66Z" transform="translate(0 -307.53)"/><path class="q" d="M276.59,327.82s-.69,13.29-.62,32.43c0,9.55.4,20.58.94,32.12.2,4.06.42,8.11.67,12.33h5.49c-.21-3.75-.43-7.84-.72-12.2C281,370.91,279.53,349.29,276.59,327.82Z" transform="translate(0 -307.53)"/><path class="r" d="M329.56,367.36a114.82,114.82,0,0,0-.72-23.57c-2.22,20.35-6.82,40.67-9.18,61l5.17-.22c.7-4.62,1.79-9.36,2.26-13.89C327.9,383,329.15,375.09,329.56,367.36Z" transform="translate(0 -307.53)"/><path class="s" d="M396.09,339.46c.17,9.48-1.69,19.06-3.5,28.43-1.84,9.54-4.53,19.12-7.14,28.63-.52,1.89-1,3.81-1.55,5.74l4.73-1.19c.34-1.25.68-2.53,1-3.81C394.54,378.54,399.23,358.44,396.09,339.46Z" transform="translate(0 -307.53)"/><path class="t" d="M344.87,402.78h4.7c2.18-10.52,4.33-22.35,4.75-32.39C354,371.85,349.48,385.92,344.87,402.78Z" transform="translate(0 -307.53)"/><path class="u" d="M374.25,330.53A233.63,233.63,0,0,1,371,361.72c-1.66,10.26-4,20.85-6.33,31.17-1,4.48-2.15,9.12-3.34,13.74l5.91-1.56c1-3.79,2-7.94,2.86-12.26C374.28,371.34,376.63,351,374.25,330.53Z" transform="translate(0 -307.53)"/><path class="v" d="M291.63,336.92c-1.48,8.79-2.4,17.62-3.24,26.42s-1.56,17.35-2.48,26c-.87,4.8-1,10.1-1.39,15.08h5.63C292.8,382,294,359.32,291.63,336.92Z" transform="translate(0 -307.53)"/><path class="w" d="M294.75,360.67a152.17,152.17,0,0,1,10.61-27.75c-13.92,17.55-20.26,36.89-18.36,55.84.34,6.16.58,11.34.86,15.94h5.55c-.19-5.49-.16-10.92-.64-16.25A79.81,79.81,0,0,1,294.75,360.67Z" transform="translate(0 -307.53)"/><path class="x" d="M345,344.44a220.1,220.1,0,0,1-4.13,25.27c-1.66,7.35-3.9,15.76-6.5,24.5-.58,2.3-1.33,4.58-2.16,6.88h5.6c.55-1.72,1.08-3.52,1.57-5.38C343.73,379.25,346.86,361.62,345,344.44Z" transform="translate(0 -307.53)"/><path class="y" d="M262.13,339.22A223.24,223.24,0,0,1,258,364.49c-1.66,7.34-3.9,15.76-6.5,24.49-.58,2.31-1.34,4.59-2.16,6.89h5.6c.54-1.73,1.08-3.53,1.57-5.38C260.86,374,264,356.4,262.13,339.22Z" transform="translate(0 -307.53)"/><path class="z" d="M368.84,346.1c-.07,0-2.43,11.16-7.07,26.87-2.32,7.86-5.16,16.92-8.14,26.37q-.84,2.66-1.71,5.36h5.63c.39-1.31.8-2.66,1.18-4C363.82,382.55,367.5,364.79,368.84,346.1Z" transform="translate(0 -307.53)"/><path class="aa" d="M310,388.14c-.09-10.88-.06-21.77-.08-32.6,0-11-.11-22.11-.53-33.17-2.64,27.36-3.22,55.28-2.8,82.82h3.44C310.09,399.74,310.27,393.69,310,388.14Z" transform="translate(0 -307.53)"/><path class="ab" d="M343.11,334.28c-2.23,8.91-4,17.88-5.73,26.81s-3.58,17.71-5.55,26.5c-.95,4.27-2,8.68-3.06,13.08h5.65c.95-3.7,2-7.91,2.87-12.4A333.73,333.73,0,0,0,343.11,334.28Z" transform="translate(0 -307.53)"/><path class="ac" d="M306.41,339.05c-.08,0-1.22,12.79-3.1,31-.94,9.11-1.92,19.68-2.74,30.85-.12,1.18-.21,2.38-.31,3.56h5.17A596.82,596.82,0,0,0,306.41,339.05Z" transform="translate(0 -307.53)"/><path class="ad" d="M337,333.71c-.1,0-2.24,13.88-5.7,33.78-1.73,9.94-3.82,21.46-6,33.38-.22,1.15-.43,2.32-.64,3.47h6.48c.14-.85.28-1.69.43-2.56C335.27,379.43,337.74,356.45,337,333.71Z" transform="translate(0 -307.53)"/><path class="ae" d="M369.84,373.94c-2.61,7.72-5.8,16.82-8.83,26.49-.24.77-.49,1.55-.73,2.35h5.55c5.24-17.95,10.9-39,10.9-58.44C376.11,349.27,375.07,358.41,369.84,373.94Z" transform="translate(0 -307.53)"/><path class="af" d="M360.12,334.43c-.11.9-2.81,12.91-5.61,29.95-1.45,8.88-3.12,19.1-5,29.74a102.62,102.62,0,0,0-1.66,10.22h5.64c.41-3,.83-6.17,1.4-9.43C358.33,375.14,359.56,354.64,360.12,334.43Z" transform="translate(0 -307.53)"/><path class="ag" d="M313.8,346.34s-2.44,8.37-5.07,20.48c-2.89,12.59-4.85,25.29-7.57,37.9h5.54c1.21-5.75,3.08-15,3.27-16.55C312,374.28,313.62,360.32,313.8,346.34Z" transform="translate(0 -307.53)"/><path class="ah" d="M318.55,321.28a91.74,91.74,0,0,0-10.2,23.19,290.69,290.69,0,0,0-7.77,40.42c-.87,7.37-1.52,14.23-2,19.81h5.54c1.91-19.73,4.8-42.14,6.9-62.25C311.81,334.9,317.93,324.29,318.55,321.28Z" transform="translate(0 -307.53)"/><path class="ai" d="M293.37,384.82c-1.25-10.75-2.41-21.05-3.22-30a302.87,302.87,0,0,1-1.22-30.44c-4.45,20.17-3.16,41.17-1.08,61.49.4,7,1,13.63,1.89,18.82h5.66c-.16-1.16-.3-2.34-.44-3.52C294.34,395.83,294,390.41,293.37,384.82Z" transform="translate(0 -307.53)"/><path class="aj" d="M352.55,363.77c2.43-11.46,3.67-30.19,9.7-35.86-7.34,3.4-18.25,49.55-24.77,76.79l10.08.22C348.64,400.87,350.15,375.09,352.55,363.77Z" transform="translate(0 -307.53)"/><path class="ak" d="M357.38,373.7a66.06,66.06,0,0,1-3.26,18.14c-.58,2.06-1.21,4.24-1.86,6.52h4.16C358.07,389.87,359.22,380.91,357.38,373.7Z" transform="translate(0 -307.53)"/><path class="al" d="M293.11,332.43c5.83,24,6.28,48.13,8.13,72.27h6.05c0-16.17-.68-32.38-4.84-48.43A104.39,104.39,0,0,0,293.11,332.43Z" transform="translate(0 -307.53)"/><path class="am" d="M381.56,392.46c-.35,5-3.56,9.22-3.7,13.41l9.66-.45c1.27-24.09-1.87-55.48.53-79.52C382.24,345.33,383,372.47,381.56,392.46Z" transform="translate(0 -307.53)"/><path class="an" d="M350.82,331.31c4,6.55,1.22,38.82-1.18,50-1.23,6.73-3,14.11-4.77,21.94h5.05C352.71,388.42,359.57,340.87,350.82,331.31Z" transform="translate(0 -307.53)"/><path class="ao" d="M408.4,389.28c.05,3.68.09,7.52.12,11.42l6.33-1.46c-1.57-23.17-4.27-46.95-8.34-71C406.4,328.14,407.88,353.72,408.4,389.28Z" transform="translate(0 -307.53)"/><path class="ap" d="M322.5,330.12a412.58,412.58,0,0,0-6.8,53.79c-.52,8.09-.75,15.24-.86,20.44h5.73C321.93,379.68,323.85,354.78,322.5,330.12Z" transform="translate(0 -307.53)"/><path class="aq" d="M373.75,372.76c-1.62,11-3.09,22.1-4.6,33.23l5.46-1.22c2.37-21.72,3.62-44.15,6.48-66.1A252.36,252.36,0,0,0,373.75,372.76Z" transform="translate(0 -307.53)"/><path class="ar" d="M289.69,348.83a75.46,75.46,0,0,0-8.81-21.33c.44,2.74,11.61,24.83,9.25,76.84h5.56c-.11-5.55-.32-11.92-.74-18.82A231.17,231.17,0,0,0,289.69,348.83Z" transform="translate(0 -307.53)"/><path class="as" d="M327.2,322.51c-.2,25-1.38,56-2,83l5.56-1.6C331.76,376.92,331.59,348.12,327.2,322.51Z" transform="translate(0 -307.53)"/><path class="at" d="M417.37,395.3c-.52-10.8-1.17-21.09-2-30-1.67-17.75-3.54-29.92-3.54-29.92-.89,20.57-.3,40.93.31,61.23.1,3.31.22,6.44.33,9.37l5.28-1.5C417.64,401.39,417.52,398.36,417.37,395.3Z" transform="translate(0 -307.53)"/><path class="au" d="M424.28,364a130.28,130.28,0,0,0-3.65-24.72c.31,21.34-1.75,42.68-1.57,64l5.11-.25c.13-4.85.62-9.81.54-14.59C424.55,380.41,424.81,372.13,424.28,364Z" transform="translate(0 -307.53)"/><path class="av" d="M425.11,344.6A240,240,0,0,1,430.48,371c1.16,8,2.18,17.29,3,27.14.32,2.54.46,5.16.55,7.84l7.65-1.6c-.12-2-.3-4-.52-6.06C439.12,380.09,432.94,359.64,425.11,344.6Z" transform="translate(0 -307.53)"/><path class="aw" d="M430.13,328.39c-.13,0,.91,11.81-1.58,34-1.24,11.11-5.22,27.63-6.88,41-.16,1.27-.31,2.58-.47,3.89l8.14-1.22c.1-.94.2-1.9.3-2.85C432.25,378.28,433.21,352.9,430.13,328.39Z" transform="translate(0 -307.53)"/><path class="ax" d="M424,318.1c-1.32,29.82.32,60.28-.33,90l2.88.3C427.62,378.72,428.45,346.64,424,318.1Z" transform="translate(0 -307.53)"/><path class="ay" d="M323.7,359.51a178.25,178.25,0,0,1,1.4-18c-1.32,2-1.46,4.5-2.83,10-2.2,13.73-4.5,24.53-5.37,38.29-.34,5.47-.62,10.53-.82,14.67h5.53c.38-5.06.64-10,.91-14.93C323.06,379.54,323.37,369.49,323.7,359.51Z" transform="translate(0 -307.53)"/><path class="az" d="M301.27,402.83c.16-5.05.28-10.09.46-15,.33-9.05.6-18.15,1.64-27.21a93.7,93.7,0,0,1,4.15-19.52,16.51,16.51,0,0,1,4.41-6.76c-8.81,7.76-10.33,16.74-12.81,25.81A222.93,222.93,0,0,0,296,387.94c-.28,6.12-.33,11.88-.41,16.5h5.63C301.27,403.9,301.29,403.34,301.27,402.83Z" transform="translate(0 -307.53)"/><path class="ba" d="M382.05,310.86c2.6,32.53-4.9,60.21-8.46,90.09-.26,2.13-.51,4.19-.75,6.21l5.49-1.79c2.15-16.84,4.2-33.72,5.29-50.16C384.61,340.24,384.83,325.21,382.05,310.86Z" transform="translate(0 -307.53)"/><path class="bb" d="M281,339c-.81,15.78-.18,31.6.84,47.38.44,8.58.87,14,1.35,17.62h6c-1.67-13.88-2.72-27.79-4.64-41.64C282.88,348.55,281,339,281,339Z" transform="translate(0 -307.53)"/><path class="bc" d="M364.84,364.52c2.6-11.46,5.55-23,9.24-34.38-11.43,21.53-17,45.36-21.16,68.65-.39,1.75-.76,3.5-1.12,5.21h5.5c.36-1.71.7-3.43,1-5.08C360.41,387.54,362.28,375.83,364.84,364.52Z" transform="translate(0 -307.53)"/><path class="bd" d="M297.67,373c-.79-16.69-1.19-28.4-1.26-28.41-2.39,19.75-2.94,39.73-2.86,59.63h5.1c0-1,0-2-.09-3C298.41,391,298.06,381.34,297.67,373Z" transform="translate(0 -307.53)"/><path class="be" d="M388.05,375c7.45-22.4,13.38-37.87,13.33-37.9-12.7,22.06-21.85,45.71-30.14,69.32h6.36C382.62,391.5,384.26,386.43,388.05,375Z" transform="translate(0 -307.53)"/><path class="bf" d="M407.3,330.93c-11.55,7.55-2.59,51.84-6.3,74.37l3.17-1.49C406.39,382.28,399.69,341.88,407.3,330.93Z" transform="translate(0 -307.53)"/><path class="bg" d="M317,353.49s.19,13.57-2.43,24.64c-2.9,11.51-5.34,16.3-8.06,27.82H312c1.21-5.25,3.08-13.75,3.28-15.11C317.31,378.15,316.79,366.27,317,353.49Z" transform="translate(0 -307.53)"/><path class="bh" d="M363.64,310.72a171.83,171.83,0,0,1-2.35,76.92Q359,396.31,356.43,405l5.09-.62c5.51-17.43,9.78-35.1,9.38-52.28C370.61,340.42,367.77,321.86,363.64,310.72Z" transform="translate(0 -307.53)"/><path class="bi" d="M246,329.14c4.35,17.71,1.88,36.8-4.4,55.09-1.58,4.56-3.24,9.14-5,13.72l5.09-.59c5.67-13.8,10.11-27.78,9.86-41.27C251.32,346.92,250,337.81,246,329.14Z" transform="translate(0 -307.53)"/><path class="bj" d="M440.81,315.21c-5.15,34.92-8.94,62.29-13,92.18h2.1q2.33-18.06,4.52-36.25Q437.75,343.62,440.81,315.21Z" transform="translate(0 -307.53)"/><path class="bk" d="M414.22,406l3.69-.58c-.1-19.44.28-39.31-.83-58.5C415.19,367.74,414.75,385.28,414.22,406Z" transform="translate(0 -307.53)"/><path class="bl" d="M440.47,400.66l3.69-.58c-.1-19.45.28-39.31-.83-58.5C441.44,362.39,441,379.93,440.47,400.66Z" transform="translate(0 -307.53)"/><path class="bm" d="M350.06,317.72c-4.13,23-4.58,63.83-10.11,86.62h3.59c.69-2.53,1.42-5.19,2.12-8C350.69,376.73,350.5,338.06,350.06,317.72Z" transform="translate(0 -307.53)"/><path class="bn" d="M250.48,393.9c1.27-10.56,2.33-20.65,3-29.42,1.29-17.53,1.47-29.76,1.47-29.76-4.25,19.56-7,39.32-9.77,59-.45,3.22-.85,6.26-1.22,9.12h5.41C249.74,399.83,250.11,396.87,250.48,393.9Z" transform="translate(0 -307.53)"/><path class="bo" d="M238.25,338c-.07,0-1.33,11.46-3.72,27.63-1.2,8.09-2.84,17.44-4.49,27-.59,3.4-1.26,6.67-1.89,10.16h5.41c.49-2.77,1-5.73,1.52-8.92A288.91,288.91,0,0,0,238.25,338Z" transform="translate(0 -307.53)"/><path class="bp" d="M269.6,331.81c-.05,0-1.85,11.18-4.59,27-1.37,7.92-3.3,17.14-5.56,26.5-1,4.21-2.59,9.1-3.85,13.61h5.79c1.14-3.76,2.29-8,3.43-12.63C269.16,368.52,270.3,350,269.6,331.81Z" transform="translate(0 -307.53)"/><path class="bq" d="M268.53,397.59h4.7c2.17-7.23,4.33-15.36,4.75-22.26C277.69,376.33,273.14,386,268.53,397.59Z" transform="translate(0 -307.53)"/><path class="br" d="M271,350a196.71,196.71,0,0,1-4.14,23.59c-1.66,6.85-3.9,14.71-6.51,22.85a62.35,62.35,0,0,1-2.15,6.44h5.6q.82-2.43,1.58-5C269.74,382.48,272.88,366,271,350Z" transform="translate(0 -307.53)"/><path class="bs" d="M280.15,345.08c-4.49,19.19-8.34,38.53-12.53,57.79h5.87C277.64,383.87,280.5,364.41,280.15,345.08Z" transform="translate(0 -307.53)"/><path class="bt" d="M266,337.6c-.1,0-3.51,22.45-6.51,36.94-1.5,7.24-7.1,13.62-9,22.31-.19.84-.37,1.69-.55,2.53l6.46-.33c.13-.62.25-1.24.37-1.87C259.93,380.91,267.25,353.93,266,337.6Z" transform="translate(0 -307.53)"/><path class="bu" d="M277.56,333.85c-4.13,23-8.42,45.87-13.95,68.67H269c.69-2.55,1.41-5.2,2.12-8C276.18,374.89,278,354.18,277.56,333.85Z" transform="translate(0 -307.53)"/><path class="bv" d="M284.41,333.14c-.07.91-1.85,12.91-3.7,30-.95,8.86-2,19.08-3.31,29.73-.5,3.33-.81,6.79-1.1,10.22H280c.26-3,.54-6.18.92-9.44C283.23,373.86,284,353.35,284.41,333.14Z" transform="translate(0 -307.53)"/><path class="bw" d="M274.42,356.46c2.44-11.46,4.7-23,6.55-34.62-8.88,26.71-16.61,53.79-23.13,81h5.69c1.07-4.05,2.16-8.23,3-12.36C269.32,379.19,272,367.81,274.42,356.46Z" transform="translate(0 -307.53)"/><path class="bx" d="M279.37,371.67a98.87,98.87,0,0,1-3.9,16.1c-1.23,4.63-3,9.71-4.77,15.1h5.06C278.54,392.65,280.65,382.18,279.37,371.67Z" transform="translate(0 -307.53)"/><path class="by" d="M261,315.44c-5.52,29-8.29,58.12-13.13,87.17h5.67A461.84,461.84,0,0,0,261,315.44Z" transform="translate(0 -307.53)"/><path class="bz" d="M241.67,343.17c.23-9.21.76-17.31,1.41-23.74-1.32,2.69-7.33,45.53-8.2,63.69-.35,7.23-.62,13.92-.82,19.4h5.53c.38-6.7.64-13.26.91-19.73C241,369.62,241.36,356.36,241.67,343.17Z" transform="translate(0 -307.53)"/><path class="ca" d="M237.47,404.24l6.56-.6c1.62-24,1-45,1.42-61.18C242.79,358.34,240.29,378.57,237.47,404.24Z" transform="translate(0 -307.53)"/><path class="cb" d="M245.32,334.52c-.14,16.62-.15,37.81-.07,65.35h1.83c-.22-11.63-.44-22.12-.68-31.58C246.08,355.64,245.74,344.44,245.32,334.52Z" transform="translate(0 -307.53)"/><path class="cc" d="M434,341c1.13,30,7.33,42.78,11.35,61.58.1.47.21,1,.31,1.43l-4.56-.53q-2.82-14.37-5.79-28.68C431.86,358.23,434,341,434,341Z" transform="translate(0 -307.53)"/><path class="cd" d="M420.93,331.69c7.11,20.89,12.56,53.82,14.75,75.63l-4.41-1.61c-.9-10.52-1.7-20.51-2.49-29.25C427,356.11,420.88,331.71,420.93,331.69Z" transform="translate(0 -307.53)"/><path class="ce" d="M325.09,346.59a550.66,550.66,0,0,1,15.26,56c.11.47.21.95.31,1.43l-4.56-.53c-1.87-9.58-3.82-19.13-5.79-28.68C326.89,358.26,325.08,346.58,325.09,346.59Z" transform="translate(0 -307.53)"/><path class="cf" d="M318.77,341.56c7.1,20.89,9.36,43.44,11.56,65.26l-4.41-1.61c-.9-10.52-1.7-20.51-2.49-29.25C321.6,355.6,318.72,341.58,318.77,341.56Z" transform="translate(0 -307.53)"/><path class="cg" d="M371.85,315.81c-9.36,24.85-14.92,50.7-21.39,76.16-1.1,4.37-2.19,8.51-3.24,12.37h5.52q6.66-24.84,11.56-50Q368,335.11,371.85,315.81Z" transform="translate(0 -307.53)"/><path class="ch" d="M379.23,307.53c-4.46,44.54-15.73,62.86-24.5,98.39l4.69-.57c1.18-4.59,2.46-9.5,3.79-14.68C370.91,360.76,376.87,348.68,379.23,307.53Z" transform="translate(0 -307.53)"/><path class="ci" d="M236,343.81c-3.54,20-3.36,40.18-6,60.37l5.24-2.28C236.86,382.6,235,363.2,236,343.81Z" transform="translate(0 -307.53)"/><path class="cj" d="M263.72,377.28c1.28,8.15,2.49,16.42,3.71,24.71l-3.33-.45c-2-16.21-3.44-33.05-5.78-49.38A220.5,220.5,0,0,1,263.72,377.28Z" transform="translate(0 -307.53)"/><path class="ck" d="M255.17,355.42c4.32,15.23,8,30.68,10.91,46.16l.21,1.18-3.25-.43q-2-11.83-4.15-23.64C256.45,365,255.16,355.41,255.17,355.42Z" transform="translate(0 -307.53)"/><path class="cl" d="M255,379.22c-3.68-17.54-6.71-29.71-6.67-29.73,6.86,17.7,11.52,36.31,15.67,54.82l-3.84-.51C257.66,392.1,256.85,388.13,255,379.22Z" transform="translate(0 -307.53)"/><path class="cm" d="M307,363.7c-6.73,13.06-9.58,27.58-12.34,41.61l3.67-.71c1.2-6.78,2.3-13.22,3.34-18.85A195.36,195.36,0,0,1,307,363.7Z" transform="translate(0 -307.53)"/><path class="cn" d="M294.57,380.85c1.38-16.33,2.84-28.07,2.8-28.05-4.69,19.16-6.95,37.15-8.69,54.62l3.94-3.66C293.57,392.84,293.86,389.16,294.57,380.85Z" transform="translate(0 -307.53)"/><path class="co" d="M339.23,349.81c-1.78,16.93-.48,35.22-1.51,52.64l4.17-.5C342.1,385,339.5,367,339.23,349.81Z" transform="translate(0 -307.53)"/><path class="cp" d="M365.92,384.45c.42,7,.74,14.07,1.07,21.16l-4.08-.92c-.21-13.82.46-28.06-.1-42A130.59,130.59,0,0,1,365.92,384.45Z" transform="translate(0 -307.53)"/><path class="cq" d="M352.67,361.37a370.89,370.89,0,0,1,13.69,42.5c.09.38.18.73.27,1.09l-4.08-.4q-2.54-10.89-5.21-21.76C354.28,370.23,352.66,361.36,352.67,361.37Z" transform="translate(0 -307.53)"/><path class="cr" d="M344.65,366.08c5.87,11.85,7.38,24.94,8.85,37.58l-3.9-.7c-.57-6.11-1.06-11.92-1.56-17A141.94,141.94,0,0,0,344.65,366.08Z" transform="translate(0 -307.53)"/><path class="cs" d="M417,364.82c4.09,13.35,7.6,26.89,10.32,40.47l.21,1-3.09-.39c-1.26-6.91-2.58-13.81-3.91-20.71C418.19,373.25,417,364.81,417,364.82Z" transform="translate(0 -307.53)"/><path class="ct" d="M412.71,361.19c4.8,15.08,6.33,31.38,7.81,47.14l-3-1.17c-.61-7.6-1.15-14.81-1.68-21.12C414.62,371.33,412.67,361.2,412.71,361.19Z" transform="translate(0 -307.53)"/><path class="cu" d="M426.16,369.82c-1.2,12.24-.32,25.45-1,38l2.82-.37C428.11,395.26,426.35,382.23,426.16,369.82Z" transform="translate(0 -307.53)"/><path class="cv" d="M431.33,370c4,11.15,5,23.48,6,35.38l-2.64-.66c-.38-5.75-.71-11.22-1.05-16A181.68,181.68,0,0,0,431.33,370Z" transform="translate(0 -307.53)"/><path class="cw" d="M352.44,376.52c-4.62-21-8.41-35.65-8.37-35.67,8.6,21.23,14.45,43.56,19.66,65.78l-4.82-.61C355.8,392,354.79,387.22,352.44,376.52Z" transform="translate(0 -307.53)"/><path class="cx" d="M387.62,351.86a528.52,528.52,0,0,0-5.1,52.77c0,.45,0,.89-.06,1.33l3.89-1.72q.36-13.22.86-26.46C387.77,362.47,387.63,351.84,387.62,351.86Z" transform="translate(0 -307.53)"/><path class="cy" d="M394.54,367.16c-5.37,15.57-5.27,29-5.66,43.58l3.84-1.26c0-7,0-13.61.12-19.41A184.28,184.28,0,0,1,394.54,367.16Z" transform="translate(0 -307.53)"/><path class="cz" d="M374.28,383.8c1.79-16.5,3.6-28.12,3.56-28.12-5.65,17.77-8.47,35.55-10.68,53.06l4.62-1.81C373,395.91,373.37,392.19,374.28,383.8Z" transform="translate(0 -307.53)"/><path class="da" d="M400.89,404.67c.35-3.5,1.22-28.6.7-31.89s-10.14,8.43-10.14,8.43,7.87-12.34,11.89-10.9c1.57,7,4.2,33.74,4.2,33.74Z" transform="translate(0 -307.53)"/><path class="db" d="M288.28,405.42c.23-3.59.79-29.34.45-32.72s-6.56,8.66-6.56,8.66,5.09-12.67,7.7-11.19c1,7.18,2.71,34.62,2.71,34.62Z" transform="translate(0 -307.53)"/><path class="dc" d="M406.24,404.48c.35-6.2,3.14-36.17,4.37-37.62s3.32,3.52,6.47,6.2c-1.57.21-3.85-4.34-4.9-3.51s-1.37,34.87-1.37,34.87Z" transform="translate(0 -307.53)"/><path class="dd" d="M405.15,405.17c-.29,0-.51-.39-.49-.8h0c.53-11.11,1.32-23.43,1.32-35.87h0c-.05-30.77-8.62-49-8.39-49.27h0c.23-.25,9.19,14.53,9.44,49.27h0c0,12.54-.79,24.89-1.32,36h0c0,.4-.25.7-.52.7h0Z" transform="translate(0 -307.53)"/><path class="de" d="M323.49,406.64l4.25-1.35c1.41-15.31,2.31-27.79,2.68-38.15C328.08,377.48,325.92,390.39,323.49,406.64Z" transform="translate(0 -307.53)"/><path class="df" d="M332,360.93c-.13,11.26-.15,25.62-.1,44.28h1.57c-.17-7.88-.36-15-.56-21.39C332.64,375.24,332.35,367.66,332,360.93Z" transform="translate(0 -307.53)"/><path class="dg" d="M311.49,405l3.29-.15c4.14-19.62,7.1-34.68,9.37-46.57C320.37,369.76,316.42,384.89,311.49,405Z" transform="translate(0 -307.53)"/><path class="dh" d="M440.25,404.75c.23-3.58.79-29.34.46-32.72s-6.57,8.66-6.57,8.66,5.09-12.67,7.7-11.19c1,7.18,2.71,34.62,2.71,34.62Z" transform="translate(0 -307.53)"/><path class="di" d="M234,361.88c-1.78,12.53-.48,26.07-1.51,39l4.17-.37C236.83,387.94,234.22,374.6,234,361.88Z" transform="translate(0 -307.53)"/><path class="dj" d="M248.2,360.09a368.06,368.06,0,0,1,13.92,42.13c.1.37.19.72.28,1.08l-4.08-.43q-2.6-10.8-5.33-21.56C249.85,368.86,248.19,360.08,248.2,360.09Z" transform="translate(0 -307.53)"/><path class="dk" d="M238.66,370.68c5.73,10,7.1,21.12,8.43,31.88l-3.88-.52c-.5-5.2-.94-10.14-1.38-14.46A104.56,104.56,0,0,0,238.66,370.68Z" transform="translate(0 -307.53)"/><path class="dl" d="M247.16,379.76c-4.62-17.54-8.41-29.71-8.37-29.73,8.6,17.7,14.46,36.31,19.66,54.83l-4.81-.51C250.52,392.64,249.51,388.68,247.16,379.76Z" transform="translate(0 -307.53)"/><path class="dm" d="M272.1,354.13a471.25,471.25,0,0,0-6.19,49.39c0,.42-.06.83-.08,1.23l3.91-1.72q.63-12.34,1.41-24.71C272,364,272.11,354.12,272.1,354.13Z" transform="translate(0 -307.53)"/><path class="dn" d="M286.38,368.07c-3.95,13-3.47,25.81-3,38.17l3.7-1.91c-.36-5.92-.75-11.54-1-16.47A139.08,139.08,0,0,1,286.38,368.07Z" transform="translate(0 -307.53)"/><path class="do" d="M232.35,394.06a183.81,183.81,0,0,0-.1-57.2,266.2,266.2,0,0,1-2.69,27.37c-.93,6.72-2.94,14.3-4.56,22.16v17.47h2.28C227.77,400.92,231.85,397.46,232.35,394.06Z" transform="translate(0 -307.53)"/><path class="dp" d="M232.23,336.13c0,.24,0,.48,0,.73A4.1,4.1,0,0,0,232.23,336.13Z" transform="translate(0 -307.53)"/><path class="dq" d="M227.59,324.89c1,7,.14,14.25-1.4,31.11a58.75,58.75,0,0,1-1.19,7.55v24.52c.25-2.54.5-5.05.76-7.38C230.41,350,228.86,331.31,227.59,324.89Z" transform="translate(0 -307.53)"/><path class="dr" d="M230.79,403.51c-.1-.5-.21-1-.31-1.52Q228,389.78,225,377.62v18.76c.41,2.19.83,4.38,1.23,6.57Z" transform="translate(0 -307.53)"/><path class="ds" d="M225,363.83v8.05c2.55-13.11,5-21.66,5-21.67A143.11,143.11,0,0,0,225,363.83Z" transform="translate(0 -307.53)"/><path class="dt" d="M231,340.34c-3.55,21.22-2.9,43.45-5.55,64.92l5.25-2.43C232.26,382.31,230,361,231,340.34Z" transform="translate(0 -307.53)"/><path class="du" d="M448.75,393.06c-.59,3.62-1.26,7.09-1.89,10.8H450V386.39C449.55,388.6,449.11,390.82,448.75,393.06Z" transform="translate(0 -307.53)"/><path class="dv" d="M445.74,381.63c-1,5.91-1.67,11.66-2.63,17.3-.29,1.65-.59,3.33-.91,4.93H448c.86-4.13,1.46-10,2-15.79V363.55C448.8,369,447.1,373.68,445.74,381.63Z" transform="translate(0 -307.53)"/><path class="dw" d="M444.62,403.14c1.48-8.75,2.84-17.07,4.1-24.34.42-2.43.85-4.73,1.28-6.92v-8.05c-4.15,13.24-6.69,27-9.16,40.49Z" transform="translate(0 -307.53)"/><path class="dx" d="M440.22,342.4s1.79,12.42,5.22,30.05q2.32,12,4.56,23.93V377.62Q445.62,359.91,440.22,342.4Z" transform="translate(0 -307.53)"/><path class="dy" d="M193.91,345.86a227.09,227.09,0,0,1-1.58,25.79c-.92,7.58-2.29,16.32-4,25.45-.35,2.39-.87,4.78-1.45,7.21l5.54-1c.37-1.81.72-3.69,1-5.61C196.12,380.59,197.46,362.56,193.91,345.86Z" transform="translate(0 -307.53)"/><path class="dz" d="M192.92,330.87c-2.23,8.91-4,17.89-5.73,26.81s-3.58,17.71-5.55,26.5c-.95,4.28-2,8.68-3.06,13.08h5.66c.94-3.7,2-7.91,2.86-12.4A332.61,332.61,0,0,0,192.92,330.87Z" transform="translate(0 -307.53)"/><path class="ea" d="M222.86,358.58a110.25,110.25,0,0,0-3.38-22.73c2.3,24.13-3.1,42.09-2.92,63.43l5.11-.25c.13-4.85.62-9.81.54-14.59C222.05,376.37,223.39,366.69,222.86,358.58Z" transform="translate(0 -307.53)"/><path class="eb" d="M172,365.63c-.85-9.68-1.66-19.4-2.64-29.07-1.35,20.05-3.05,55.9-5,65.91-.77,3.91,2.8.33,3,3.77l7.72-.87c-.15-3.69-.33-7.5-.63-10.95C173.52,384.88,172.79,375.22,172,365.63Z" transform="translate(0 -307.53)"/><path class="ec" d="M69.48,355c-.81,9.71-.18,19.45.84,29.16.44,5.28-3.12,15.27-2.64,17.49h6.06c-1.68-8.52.57-23.6-1.36-32.13C70.62,361,69.48,355,69.48,355Z" transform="translate(0 -307.53)"/><path class="ed" d="M73.31,315.46C64,338,55.59,368.24,49.12,391.31c-1.1,3.93-2.2,7.7-3.25,11.21h5.52Q58.05,380,63,357.25C65.45,345.61,70.79,327.09,73.31,315.46Z" transform="translate(0 -307.53)"/><path class="ee" d="M179.07,347.54c.79,10.19.38,12.14-.17,20a343.06,343.06,0,0,0-.55,35.53l6,3c-.11-3.54,1.61-6.67,1.55-11C185.69,378.73,183,366.42,179.07,347.54Z" transform="translate(0 -307.53)"/><path class="ef" d="M167.15,324.18c2.45,11.58,4.13,23.32,5.44,34.93,1.28,11.46,0,29.52.84,41,.22,3.16-.87,1.47-.56,4.78l8.86-1.16c-.26-3.1-.58-6.34-.94-9.67C179.26,370.57,176.37,346.35,167.15,324.18Z" transform="translate(0 -307.53)"/><path class="eg" d="M168.2,370c-.67-9.39-1.32-18.78-2.25-28.13-2.29,18.87-2.36,37.95-1.72,56.69.06,1.84.1,3.6.13,5.31l5.6.86c0-2.37-.06-4.7-.26-6.92C169.29,388.52,168.85,379.22,168.2,370Z" transform="translate(0 -307.53)"/><path class="eh" d="M216.21,344.67c-7.21,13.17-5.73,30-3.26,46.25.65,4.28,1.19,8.21,1.64,11.68l5.45,1.85c-1.57-12.2-3.67-24.55-4.68-36.57A89.36,89.36,0,0,1,216.21,344.67Z" transform="translate(0 -307.53)"/><path class="ei" d="M96.86,397.32c1.29-8.69,2.34-17,3-24.25,1.29-14.45,1.47-24.54,1.47-24.54-4.25,16.13-7,32.42-9.78,48.68-.44,2.64-.84,5.16-1.22,7.51h5.41C96.12,402.21,96.5,399.77,96.86,397.32Z" transform="translate(0 -307.53)"/><path class="ej" d="M92.45,336.66c-.09,0-1.53,12-4.25,29C86.84,374.13,85,384,83.08,394c-.67,3.59-1.43,7-2.15,10.67H87.1c.55-2.9,1.16-6,1.73-9.36A279.12,279.12,0,0,0,92.45,336.66Z" transform="translate(0 -307.53)"/><path class="ek" d="M104.56,367.36a114.82,114.82,0,0,0-.72-23.57c-2.22,20.35-6.82,40.67-9.18,61l5.17-.22c.7-4.62,1.79-9.36,2.26-13.89C102.9,383,104.15,375.09,104.56,367.36Z" transform="translate(0 -307.53)"/><path class="el" d="M171.09,339.46c.17,9.48-1.69,19.06-3.5,28.43-1.84,9.54-4.53,19.12-7.14,28.63-.52,1.89-1,3.81-1.55,5.74l4.73-1.19c.34-1.25.68-2.53,1-3.81C169.54,378.54,174.23,358.44,171.09,339.46Z" transform="translate(0 -307.53)"/><path class="em" d="M119.87,402.78h4.7c2.18-10.52,4.33-22.35,4.75-32.39C129,371.85,124.48,385.92,119.87,402.78Z" transform="translate(0 -307.53)"/><path class="en" d="M149.25,330.53A233.63,233.63,0,0,1,146,361.72c-1.66,10.26-4,20.85-6.33,31.17-1,4.48-2.15,9.12-3.34,13.74l5.91-1.56c1-3.79,2-7.94,2.86-12.26C149.28,371.34,151.63,351,149.25,330.53Z" transform="translate(0 -307.53)"/><path class="eo" d="M66.63,336.92c-1.48,8.79-2.4,17.62-3.24,26.42s-1.56,17.35-2.48,26c-.87,4.8-1,10.1-1.39,15.08h5.63C67.8,382,69,359.32,66.63,336.92Z" transform="translate(0 -307.53)"/><path class="ep" d="M69.75,360.67a152.17,152.17,0,0,1,10.61-27.75C66.44,350.47,60.1,369.81,62,388.76c.34,6.16.58,11.34.86,15.94h5.55c-.19-5.49-.16-10.92-.64-16.25A79.81,79.81,0,0,1,69.75,360.67Z" transform="translate(0 -307.53)"/><path class="eq" d="M120,344.44a220.1,220.1,0,0,1-4.13,25.27c-1.66,7.35-3.9,15.76-6.5,24.5-.58,2.3-1.33,4.58-2.16,6.88h5.6c.55-1.72,1.08-3.52,1.57-5.38C118.73,379.25,121.86,361.62,120,344.44Z" transform="translate(0 -307.53)"/><path class="er" d="M143.84,346.1c-.07,0-2.43,11.16-7.07,26.87-2.32,7.86-5.16,16.92-8.14,26.37q-.84,2.66-1.71,5.36h5.63c.39-1.31.8-2.66,1.18-4C138.82,382.55,142.5,364.79,143.84,346.1Z" transform="translate(0 -307.53)"/><path class="es" d="M85,388.14c-.09-10.88-.06-21.77-.08-32.6,0-11-.11-22.11-.53-33.17-2.64,27.36-3.22,55.28-2.8,82.82h3.44C85.09,399.74,85.27,393.69,85,388.14Z" transform="translate(0 -307.53)"/><path class="et" d="M169.85,405.39l4.51-1.66c.42-14.92.41-30-.35-45.28Q171.78,381.84,169.85,405.39Z" transform="translate(0 -307.53)"/><path class="eu" d="M118.11,334.28c-2.23,8.91-4,17.88-5.73,26.81s-3.58,17.71-5.55,26.5c-1,4.27-2,8.68-3.06,13.08h5.65c1-3.7,2-7.91,2.87-12.4A333.73,333.73,0,0,0,118.11,334.28Z" transform="translate(0 -307.53)"/><path class="ev" d="M81.41,339.05c-.08,0-1.22,12.79-3.1,31-.94,9.11-1.92,19.68-2.74,30.85-.12,1.18-.21,2.38-.31,3.56h5.17A596.82,596.82,0,0,0,81.41,339.05Z" transform="translate(0 -307.53)"/><path class="ew" d="M112,333.71c-.1,0-2.24,13.88-5.7,33.78-1.73,9.94-3.82,21.46-6,33.38-.22,1.15-.43,2.32-.64,3.47h6.48c.14-.85.28-1.69.43-2.56C110.27,379.43,112.74,356.45,112,333.71Z" transform="translate(0 -307.53)"/><path class="ex" d="M144.84,373.94c-2.61,7.72-5.8,16.82-8.83,26.49-.24.77-.49,1.55-.73,2.35h5.55c5.24-17.95,11.15-36.56,11.15-56A201.15,201.15,0,0,1,144.84,373.94Z" transform="translate(0 -307.53)"/><path class="ey" d="M135.12,334.43c-.11.9-2.81,12.91-5.61,29.95-1.45,8.88-3.12,19.1-5,29.74a102.62,102.62,0,0,0-1.66,10.22h5.64c.41-3,.83-6.17,1.4-9.43C133.33,375.14,134.56,354.64,135.12,334.43Z" transform="translate(0 -307.53)"/><path class="ez" d="M88.8,346.34s-2.44,8.37-5.07,20.48c-2.89,12.59-4.85,25.29-7.57,37.9H81.7c1.21-5.75,3.08-15,3.27-16.55C87,374.28,88.62,360.32,88.8,346.34Z" transform="translate(0 -307.53)"/><path class="fa" d="M93.55,321.28a91.74,91.74,0,0,0-10.2,23.19,290.69,290.69,0,0,0-7.77,40.42c-.87,7.37-1.52,14.23-2,19.81h5.54C81,385,83.93,362.56,86,342.45,86.81,334.9,92.93,324.29,93.55,321.28Z" transform="translate(0 -307.53)"/><path class="fb" d="M68.37,384.82c-1.25-10.75-2.41-21.05-3.22-30a302.87,302.87,0,0,1-1.22-30.44c-4.45,20.17-3.16,41.17-1.08,61.49.4,7,1,13.63,1.89,18.82H70.4c-.16-1.16-.3-2.34-.44-3.52C69.34,395.83,69,390.41,68.37,384.82Z" transform="translate(0 -307.53)"/><path class="fc" d="M127.55,363.77c2.43-11.46,3.67-30.19,9.7-35.86-7.34,3.4-18.25,49.55-24.77,76.79l10.08.22C123.64,400.87,125.15,375.09,127.55,363.77Z" transform="translate(0 -307.53)"/><path class="fd" d="M132.38,373.7a66.06,66.06,0,0,1-3.26,18.14c-.58,2.06-1.21,4.24-1.86,6.52h4.16C133.07,389.87,134.22,380.91,132.38,373.7Z" transform="translate(0 -307.53)"/><path class="fe" d="M68.11,332.43c5.83,24,6.28,48.13,8.13,72.27h6.05c0-16.17-.68-32.38-4.84-48.43A104.39,104.39,0,0,0,68.11,332.43Z" transform="translate(0 -307.53)"/><path class="ff" d="M156.56,392.46c-.35,5-3.56,9.22-3.7,13.41l9.66-.45c1.27-24.09-1.87-55.48.53-79.52C157.24,345.33,158,372.47,156.56,392.46Z" transform="translate(0 -307.53)"/><path class="fg" d="M125.82,331.31c4,6.55,1.22,38.82-1.18,50-1.23,6.73-3,14.11-4.77,21.94h5C127.71,388.42,134.57,340.87,125.82,331.31Z" transform="translate(0 -307.53)"/><path class="fh" d="M183.4,389.28c0,3.68.09,7.52.12,11.42l6.33-1.46c-1.57-23.17-4.27-46.95-8.34-71C181.4,328.14,182.88,353.72,183.4,389.28Z" transform="translate(0 -307.53)"/><path class="fi" d="M97.5,330.12a412.58,412.58,0,0,0-6.8,53.79c-.52,8.09-.75,15.24-.86,20.44h5.73C96.93,379.68,98.85,354.78,97.5,330.12Z" transform="translate(0 -307.53)"/><path class="fj" d="M148.75,372.76c-1.62,11-3.09,22.1-4.6,33.23l5.46-1.22c2.37-21.72,3.62-44.15,6.48-66.1A252.36,252.36,0,0,0,148.75,372.76Z" transform="translate(0 -307.53)"/><path class="fk" d="M64.69,348.83a75.46,75.46,0,0,0-8.81-21.33c.44,2.74,11.61,24.83,9.25,76.84h5.56c-.11-5.55-.32-11.92-.74-18.82A231.17,231.17,0,0,0,64.69,348.83Z" transform="translate(0 -307.53)"/><path class="fl" d="M100.59,314c.28,27.55-.29,61.77-.43,91.54l5.55-1.62C106.24,374.12,105.5,342.33,100.59,314Z" transform="translate(0 -307.53)"/><path class="fm" d="M192.37,395.3c-.52-10.8-1.17-21.09-2-30-1.67-17.75-3.54-29.92-3.54-29.92-.89,20.57-.3,40.93.31,61.23.1,3.31.22,6.44.33,9.37l5.28-1.5C192.64,401.39,192.52,398.36,192.37,395.3Z" transform="translate(0 -307.53)"/><path class="fn" d="M199.28,364a130.28,130.28,0,0,0-3.65-24.72c.31,21.34-1.75,42.68-1.57,64l5.11-.25c.13-4.85.62-9.81.54-14.59C199.55,380.41,199.81,372.13,199.28,364Z" transform="translate(0 -307.53)"/><path class="fo" d="M200.11,344.6A240,240,0,0,1,205.48,371c1.16,8,2.18,17.29,3,27.14.32,2.54.46,5.16.55,7.84l7.65-1.6c-.12-2-.3-4-.52-6.06C214.12,380.09,207.94,359.64,200.11,344.6Z" transform="translate(0 -307.53)"/><path class="fp" d="M205.13,328.39c-.13,0,.91,11.81-1.58,34-1.24,11.11-5.22,27.63-6.88,41-.16,1.27-.31,2.58-.47,3.89l8.14-1.22.3-2.85C207.25,378.28,208.21,352.9,205.13,328.39Z" transform="translate(0 -307.53)"/><path class="fq" d="M164.12,362.73c-.07-10.54,1.23-20.51,1-31.07-3.19,21.28-7.24,41.84-7.53,62.95-.06,4.37,1,8.66.81,12.38l5.49-1.07c.16-4,.3-8.1.28-11.87C164.13,383.67,164.18,373.18,164.12,362.73Z" transform="translate(0 -307.53)"/><path class="fr" d="M199,318.1c-1.32,29.82.32,60.28-.33,90l2.88.3C202.62,378.72,203.45,346.64,199,318.1Z" transform="translate(0 -307.53)"/><path class="fs" d="M97.57,359.51c.22-7,.76-13.12,1.4-18-1.32,2-1.46,4.5-2.83,10C94,365.21,91.64,376,90.77,389.77c-.34,5.47-.61,10.53-.82,14.67h5.54c.38-5.06.63-10,.9-14.93C96.93,379.54,97.25,369.49,97.57,359.51Z" transform="translate(0 -307.53)"/><path class="ft" d="M76.27,402.83c.16-5.05.28-10.09.46-15,.33-9.05.6-18.15,1.64-27.21a93.7,93.7,0,0,1,4.15-19.52,16.51,16.51,0,0,1,4.41-6.76c-8.81,7.76-10.33,16.74-12.81,25.81A222.93,222.93,0,0,0,71,387.94c-.28,6.12-.33,11.88-.41,16.5h5.63C76.27,403.9,76.29,403.34,76.27,402.83Z" transform="translate(0 -307.53)"/><path class="fu" d="M157.05,310.86c2.6,32.53-4.9,60.21-8.46,90.09-.26,2.13-.51,4.19-.75,6.21l5.49-1.79c2.15-16.84,4.2-33.72,5.29-50.16C159.61,340.24,159.83,325.21,157.05,310.86Z" transform="translate(0 -307.53)"/><path class="fv" d="M56,339c-.81,15.78-3.21,42.53-2.19,58.31.45,8.58,3.9,3.05,4.38,6.69h6.05c-1.67-13.88-2.72-27.79-4.64-41.64C57.88,348.55,56,339,56,339Z" transform="translate(0 -307.53)"/><path class="fw" d="M139.84,364.52c2.6-11.46,5.55-23,9.24-34.38-11.43,21.53-17,45.36-21.16,68.65-.39,1.75-.76,3.5-1.12,5.21h5.5c.36-1.71.7-3.43,1-5.08C135.41,387.54,137.28,375.83,139.84,364.52Z" transform="translate(0 -307.53)"/><path class="fx" d="M72.67,373c-.79-16.69-1.19-28.4-1.26-28.41-2.39,19.75-2.94,39.73-2.86,59.63h5.1c0-1,0-2-.09-3C73.41,391,73.06,381.34,72.67,373Z" transform="translate(0 -307.53)"/><path class="fy" d="M163.05,375c7.45-22.4,13.38-37.87,13.33-37.9-12.7,22.06-21.85,45.71-30.14,69.32h6.36C157.62,391.5,159.26,386.43,163.05,375Z" transform="translate(0 -307.53)"/><path class="fz" d="M93.18,352.16s-2.43,7.65-5.06,18.72c-2.89,11.51-4.86,23.12-7.58,34.64h5.54c1.21-5.26,3.08-13.76,3.28-15.11C91.37,377.72,93,364.94,93.18,352.16Z" transform="translate(0 -307.53)"/><path class="ga" d="M138.64,310.72a171.83,171.83,0,0,1-2.35,76.92Q134,396.31,131.43,405l5.09-.62c5.51-17.43,9.78-35.1,9.38-52.28C145.61,340.42,142.77,321.86,138.64,310.72Z" transform="translate(0 -307.53)"/><path class="gb" d="M21,329.14c4.35,17.71,1.88,36.8-4.4,55.09-1.58,4.56-3.24,9.14-5,13.72l5.09-.59c5.67-13.8,10.11-27.78,9.86-41.27C26.32,346.92,25,337.81,21,329.14Z" transform="translate(0 -307.53)"/><path class="gc" d="M215.81,315.21c-5.15,34.92-8.94,62.29-13,92.18h2.1q2.32-18.06,4.52-36.25Q212.75,343.62,215.81,315.21Z" transform="translate(0 -307.53)"/><path class="gd" d="M189.22,406l3.69-.58c-.1-19.44.28-39.31-.83-58.5C190.19,367.74,189.75,385.28,189.22,406Z" transform="translate(0 -307.53)"/><path class="ge" d="M215.47,400.66l3.69-.58c-.1-19.45.28-39.31-.83-58.5C216.44,362.39,216,379.93,215.47,400.66Z" transform="translate(0 -307.53)"/><path class="gf" d="M125.06,317.72c-4.13,23-4.58,63.83-10.11,86.62h3.59c.69-2.53,1.42-5.19,2.12-8C125.69,376.73,125.5,338.06,125.06,317.72Z" transform="translate(0 -307.53)"/><path class="gg" d="M25.48,393.9c1.27-10.56,2.33-20.65,3-29.42,1.29-17.53,1.47-29.76,1.47-29.76-4.25,19.56-7,39.32-9.77,59-.45,3.22-.85,6.26-1.22,9.12h5.41C24.74,399.83,25.11,396.87,25.48,393.9Z" transform="translate(0 -307.53)"/><path class="gh" d="M13.25,338c-.07,0-1.33,11.46-3.72,27.63-1.2,8.09-2.84,17.44-4.49,27-.59,3.4-1.26,6.67-1.89,10.16H8.56c.49-2.77,1-5.73,1.52-8.92A288.91,288.91,0,0,0,13.25,338Z" transform="translate(0 -307.53)"/><path class="gi" d="M44.6,331.37c-.05,0-1.85,11.85-4.59,28.65-1.37,8.39-3.3,18.16-5.56,28.08-1,4.46-2.59,9.64-3.85,14.42h5.79q1.71-6,3.43-13.38C44.16,370.27,45.3,350.67,44.6,331.37Z" transform="translate(0 -307.53)"/><path class="gj" d="M43.53,397.59h4.7c2.17-7.23,4.33-15.36,4.75-22.26C52.69,376.33,48.14,386,43.53,397.59Z" transform="translate(0 -307.53)"/><path class="gk" d="M46,350a196.71,196.71,0,0,1-4.14,23.59c-1.66,6.85-3.9,14.71-6.51,22.85a62.35,62.35,0,0,1-2.15,6.44h5.6q.82-2.43,1.58-5C44.74,382.48,47.88,366,46,350Z" transform="translate(0 -307.53)"/><path class="gl" d="M55.15,345.08c-4.49,19.19-8.34,38.53-12.53,57.79h5.87C52.64,383.87,55.5,364.41,55.15,345.08Z" transform="translate(0 -307.53)"/><path class="gm" d="M40.07,342.5c-.1,0-4.59,16.64-7.59,31.13-1.5,7.24-5.12,14.53-7,23.22-.19.84-.37,1.69-.55,2.53l6.46-.33c.13-.62.25-1.24.37-1.87C34.93,380.91,40.64,357.1,40.07,342.5Z" transform="translate(0 -307.53)"/><path class="gn" d="M52.56,333.85c-4.13,23-8.42,45.87-14,68.67H44c.69-2.55,1.41-5.2,2.12-8C51.18,374.89,53,354.18,52.56,333.85Z" transform="translate(0 -307.53)"/><path class="go" d="M59.41,333.14c-.07.91-1.85,12.91-3.7,30-1,8.86-2.05,19.08-3.31,29.73-.5,3.33-.81,6.79-1.1,10.22H55c.26-3,.54-6.18.92-9.44C58.23,373.86,59,353.35,59.41,333.14Z" transform="translate(0 -307.53)"/><path class="gp" d="M48,356.46c2.43-11.46,4.7-23,6.54-34.62-8.87,26.71-16.6,53.79-23.13,81h5.7c1.06-4.05,2.15-8.23,3-12.36C42.91,379.19,45.62,367.81,48,356.46Z" transform="translate(0 -307.53)"/><path class="gq" d="M54.37,371.67a98.87,98.87,0,0,1-3.9,16.1c-1.23,4.63-3,9.71-4.77,15.1h5.06C53.54,392.65,55.65,382.18,54.37,371.67Z" transform="translate(0 -307.53)"/><path class="gr" d="M36.7,325.32c-2,29.83-9,48.24-13.86,77.29h5.67C33.74,373.68,37,354.44,36.7,325.32Z" transform="translate(0 -307.53)"/><path class="gs" d="M16.67,343.17c.23-9.21.76-17.31,1.41-23.74-1.32,2.69-7.33,45.53-8.2,63.69-.35,7.23-.62,13.92-.82,19.4h5.53c.38-6.7.64-13.26.91-19.73C16,369.62,16.36,356.36,16.67,343.17Z" transform="translate(0 -307.53)"/><path class="gt" d="M12.47,404.24l4.91-2.11c1.62-24,2.65-43.47,3.07-59.67C17.79,358.34,15.29,378.57,12.47,404.24Z" transform="translate(0 -307.53)"/><path class="gu" d="M20.32,334.52c-.14,16.62-.15,37.81-.07,65.35h1.83c-.22-11.63-.44-22.12-.68-31.58C21.08,355.64,20.74,344.44,20.32,334.52Z" transform="translate(0 -307.53)"/><path class="gv" d="M209,341c1.13,30,7.33,42.78,11.35,61.58.1.47.21,1,.31,1.43l-4.56-.53q-2.82-14.37-5.79-28.68C206.86,358.23,209,341,209,341Z" transform="translate(0 -307.53)"/><path class="gw" d="M195.93,331.69c7.11,20.89,12.56,53.82,14.75,75.63l-4.41-1.61c-.9-10.52-1.7-20.51-2.49-29.25C202,356.11,195.88,331.71,195.93,331.69Z" transform="translate(0 -307.53)"/><path class="gx" d="M100.09,346.59a550.66,550.66,0,0,1,15.26,56c.11.47.21.95.31,1.43l-4.56-.53c-1.87-9.58-3.82-19.13-5.79-28.68C101.89,358.26,100.08,346.58,100.09,346.59Z" transform="translate(0 -307.53)"/><path class="gy" d="M93.77,341.56c7.1,20.89,9.36,43.44,11.56,65.26l-4.41-1.61c-.9-10.52-1.7-20.51-2.49-29.25C96.6,355.6,93.72,341.58,93.77,341.56Z" transform="translate(0 -307.53)"/><path class="gz" d="M146.85,315.81c-9.36,24.85-14.92,50.7-21.39,76.16-1.1,4.37-2.19,8.51-3.24,12.37h5.52q6.66-24.84,11.56-50Q143,335.11,146.85,315.81Z" transform="translate(0 -307.53)"/><path class="ha" d="M154.23,307.53c-4.46,44.54-15.73,62.86-24.5,98.39l4.69-.57c1.18-4.59,2.46-9.5,3.79-14.68C145.91,360.76,151.87,348.68,154.23,307.53Z" transform="translate(0 -307.53)"/><path class="hb" d="M11,343.81c-3.54,20-3.36,40.18-6,60.37l5.24-2.28C11.86,382.6,10,363.2,11,343.81Z" transform="translate(0 -307.53)"/><path class="hc" d="M38.72,377.28C40,385.43,41.21,393.7,42.43,402l-3.33-.45c-2-16.21-3.44-33.05-5.78-49.38A220.5,220.5,0,0,1,38.72,377.28Z" transform="translate(0 -307.53)"/><path class="hd" d="M30.17,355.42c4.32,15.23,8,30.68,10.91,46.16l.21,1.18L38,402.33q-2-11.83-4.15-23.64C31.45,365,30.16,355.41,30.17,355.42Z" transform="translate(0 -307.53)"/><path class="he" d="M23.4,351.28c5.07,17.2,6.69,35.79,8.26,53.76l-3.15-1.32c-.65-8.66-1.22-16.9-1.78-24.09C25.41,362.84,23.36,351.28,23.4,351.28Z" transform="translate(0 -307.53)"/><path class="hf" d="M30,379.22c-3.68-17.54-6.71-29.71-6.67-29.73,6.86,17.7,11.52,36.31,15.67,54.82l-3.84-.51C32.66,392.1,31.85,388.13,30,379.22Z" transform="translate(0 -307.53)"/><path class="hg" d="M82,363.7c-6.73,13.06-9.58,27.58-12.34,41.61l3.67-.71c1.2-6.78,2.3-13.22,3.34-18.85A195.36,195.36,0,0,1,82,363.7Z" transform="translate(0 -307.53)"/><path class="hh" d="M69.57,380.85c1.38-16.33,2.84-28.07,2.8-28.05-4.69,19.16-7,37.15-8.69,54.62l3.94-3.66C68.57,392.84,68.86,389.16,69.57,380.85Z" transform="translate(0 -307.53)"/><path class="hi" d="M114.23,349.81c-1.78,16.93-.48,35.22-1.51,52.64l4.17-.5C117.1,385,114.5,367,114.23,349.81Z" transform="translate(0 -307.53)"/><path class="hj" d="M140.92,384.45c.42,7,.74,14.07,1.07,21.16l-4.08-.92c-.21-13.82.46-28.06-.1-42A130.59,130.59,0,0,1,140.92,384.45Z" transform="translate(0 -307.53)"/><path class="hk" d="M127.67,361.37a370.89,370.89,0,0,1,13.69,42.5c.09.38.18.73.27,1.09l-4.08-.4q-2.53-10.89-5.21-21.76C129.28,370.23,127.66,361.36,127.67,361.37Z" transform="translate(0 -307.53)"/><path class="hl" d="M119.65,366.08c5.87,11.85,7.38,24.94,8.85,37.58l-3.9-.7c-.57-6.11-1.06-11.92-1.56-17A141.94,141.94,0,0,0,119.65,366.08Z" transform="translate(0 -307.53)"/><path class="hm" d="M192,364.82c4.09,13.35,7.6,26.89,10.32,40.47l.21,1-3.09-.39c-1.26-6.91-2.58-13.81-3.91-20.71C193.19,373.25,192,364.81,192,364.82Z" transform="translate(0 -307.53)"/><path class="hn" d="M187.71,361.19c4.8,15.08,6.33,31.38,7.81,47.14l-3-1.17c-.61-7.6-1.15-14.81-1.68-21.12C189.62,371.33,187.67,361.2,187.71,361.19Z" transform="translate(0 -307.53)"/><path class="ho" d="M201.16,369.82c-1.2,12.24-.32,25.45-1,38l2.82-.37C203.11,395.26,201.35,382.23,201.16,369.82Z" transform="translate(0 -307.53)"/><path class="hp" d="M206.33,370c4,11.15,5,23.48,6,35.38l-2.64-.66c-.38-5.75-.71-11.22-1-16A181.68,181.68,0,0,0,206.33,370Z" transform="translate(0 -307.53)"/><path class="hq" d="M127.44,376.52c-4.62-21-8.41-35.65-8.37-35.67,8.6,21.23,14.45,43.56,19.66,65.78l-4.82-.61C130.8,392,129.79,387.22,127.44,376.52Z" transform="translate(0 -307.53)"/><path class="hr" d="M160.37,351.86a528.52,528.52,0,0,0-5.1,52.77c0,.45,0,.89-.06,1.33l3.89-1.72q.36-13.22.86-26.46C160.52,362.47,160.38,351.84,160.37,351.86Z" transform="translate(0 -307.53)"/><path class="hs" d="M171.79,362c-4.86,14.11-5.27,29.1-5.66,43.58l3.84-1.26c.05-7,.05-13.61.12-19.41A184.52,184.52,0,0,1,171.79,362Z" transform="translate(0 -307.53)"/><path class="ht" d="M149.28,383.8c1.79-16.5,3.6-28.12,3.56-28.12-5.65,17.77-8.47,35.55-10.68,53.06l4.62-1.81C148,395.91,148.37,392.19,149.28,383.8Z" transform="translate(0 -307.53)"/><path class="hu" d="M175.89,404.67c.35-2.4,1.22-19.63.7-21.89s-10.14,5.79-10.14,5.79,7.87-8.48,11.89-7.49c1.57,4.8,4.2,23.16,4.2,23.16Z" transform="translate(0 -307.53)"/><path class="hv" d="M63.28,405.42c.23-3.59.79-29.34.45-32.72s-6.56,8.66-6.56,8.66,5.09-12.67,7.7-11.19c1,7.18,2.71,34.62,2.71,34.62Z" transform="translate(0 -307.53)"/><path class="hw" d="M181.24,404.48c.35-6.2,3.14-36.17,4.37-37.62s3.32,3.52,6.47,6.2c-1.57.21-3.85-4.34-4.9-3.51s-1.37,34.87-1.37,34.87Z" transform="translate(0 -307.53)"/><path class="hx" d="M180.15,405.17c-.29,0-.51-.39-.49-.8h0c.53-11.11,1.32-23.43,1.32-35.87h0c0-30.77-8.62-49-8.39-49.27h0c.23-.25,9.19,14.53,9.44,49.27h0c0,12.54-.79,24.89-1.32,36h0c0,.4-.25.7-.52.7h0Z" transform="translate(0 -307.53)"/><path class="hy" d="M98.49,406.64l4.25-1.35c1.41-15.31,2.31-27.79,2.68-38.15C103.08,377.48,100.92,390.39,98.49,406.64Z" transform="translate(0 -307.53)"/><path class="hz" d="M80.17,405.24l3.49-.16c1.92-11.28,4.52-36.21,5.29-44.92C86.74,368.61,83.05,393.6,80.17,405.24Z" transform="translate(0 -307.53)"/><path class="ia" d="M107,360.93c-.13,11.26-.15,25.62-.1,44.28h1.57c-.17-7.88-.36-15-.56-21.39C107.64,375.24,107.35,367.66,107,360.93Z" transform="translate(0 -307.53)"/><path class="ib" d="M86.49,405l3.29-.15c4.14-19.62,7.1-34.68,9.37-46.57C95.37,369.76,91.42,384.89,86.49,405Z" transform="translate(0 -307.53)"/><path class="ic" d="M215.25,404.75c.23-3.58.79-29.34.46-32.72s-6.57,8.66-6.57,8.66,5.09-12.67,7.7-11.19c1,7.18,2.71,34.62,2.71,34.62Z" transform="translate(0 -307.53)"/><path class="id" d="M9,361.88c-1.78,12.53-.48,26.07-1.51,39l4.17-.37C11.83,387.94,9.22,374.6,9,361.88Z" transform="translate(0 -307.53)"/><path class="ie" d="M23.2,360.09a368.06,368.06,0,0,1,13.92,42.13c.1.37.19.72.28,1.08l-4.08-.43q-2.59-10.8-5.33-21.56C24.85,368.86,23.19,360.08,23.2,360.09Z" transform="translate(0 -307.53)"/><path class="if" d="M13.66,370.68c5.73,10,7.1,21.12,8.43,31.88L18.21,402c-.5-5.2-.94-10.14-1.38-14.46A104.56,104.56,0,0,0,13.66,370.68Z" transform="translate(0 -307.53)"/><path class="ig" d="M22.16,379.76c-4.62-17.54-8.41-29.71-8.37-29.73,8.6,17.7,14.46,36.31,19.66,54.83l-4.81-.51C25.52,392.64,24.51,388.68,22.16,379.76Z" transform="translate(0 -307.53)"/><path class="ih" d="M47.1,354.13a471.25,471.25,0,0,0-6.19,49.39c0,.42-.06.83-.08,1.23L44.74,403q.63-12.34,1.41-24.71C47,364,47.11,354.12,47.1,354.13Z" transform="translate(0 -307.53)"/><path class="ii" d="M61.38,368.07c-4,13-3.47,25.81-3,38.17l3.7-1.91c-.36-5.92-.75-11.54-1-16.47A139.08,139.08,0,0,1,61.38,368.07Z" transform="translate(0 -307.53)"/><path class="ij" d="M3.79,394.37a313.37,313.37,0,0,0,3.46-57.51,266.2,266.2,0,0,1-2.69,27.37C3.63,371,1.62,378.53,0,386.39v17.47H2.28C2.77,400.92,3.29,397.77,3.79,394.37Z" transform="translate(0 -307.53)"/><path class="ik" d="M7.23,336.13c0,.24,0,.48,0,.73A4.1,4.1,0,0,0,7.23,336.13Z" transform="translate(0 -307.53)"/><path class="il" d="M2.59,324.89c1,7,.14,14.25-1.4,31.11A58.75,58.75,0,0,1,0,363.55v24.52c.25-2.54.5-5.05.76-7.38C5.41,350,3.86,331.31,2.59,324.89Z" transform="translate(0 -307.53)"/><path class="im" d="M5.79,403.51c-.1-.5-.21-1-.31-1.52Q3,389.78,0,377.62v18.76c.41,2.19.83,4.38,1.23,6.57Z" transform="translate(0 -307.53)"/><path class="in" d="M0,363.83v8.05c2.55-13.11,5-21.66,5-21.67A143.11,143.11,0,0,0,0,363.83Z" transform="translate(0 -307.53)"/><path class="io" d="M6,340.34c-3.55,21.22-2.9,43.45-5.55,64.92l5.25-2.43C7.26,382.31,5,361,6,340.34Z" transform="translate(0 -307.53)"/><path class="ip" d="M223.75,393.06c-.59,3.62-1.26,7.09-1.89,10.8H225V386.39C224.55,388.6,224.11,390.82,223.75,393.06Z" transform="translate(0 -307.53)"/><path class="iq" d="M220.74,381.63c-1,5.91-1.67,11.66-2.63,17.3-.29,1.65-.59,3.33-.91,4.93H223c.86-4.13,1.46-10,2-15.79V363.55C223.8,369,222.1,373.68,220.74,381.63Z" transform="translate(0 -307.53)"/><path class="ir" d="M219.62,403.14c1.48-8.75,2.84-17.07,4.1-24.34.42-2.43.85-4.73,1.28-6.92v-8.05c-4.15,13.24-6.69,27-9.16,40.49Z" transform="translate(0 -307.53)"/><path class="is" d="M215.22,342.4s1.79,12.42,5.22,30.05q2.33,12,4.56,23.93V377.62Q220.62,359.91,215.22,342.4Z" transform="translate(0 -307.53)"/></g><g class="it"><rect class="iu" y="62.54" width="450" height="29.93"/></g></g></svg>