<?xml version="1.0" encoding="utf-8"?>
<!-- Generator: Adobe Illustrator 22.1.0, SVG Export Plug-In . SVG Version: 6.00 Build 0)  -->
<svg version="1.1" id="Layer_1" xmlns="http://www.w3.org/2000/svg" xmlns:xlink="http://www.w3.org/1999/xlink" x="0px" y="0px"
	 viewBox="0 0 100 100" style="enable-background:new 0 0 100 100;" xml:space="preserve">
<style type="text/css">
	.st0{fill:url(#SVGID_1_);}
	.st1{fill:url(#SVGID_2_);}
	.st2{fill:url(#SVGID_3_);}
	.st3{fill:url(#SVGID_4_);}
	.st4{fill:url(#SVGID_5_);}
	.st5{fill:url(#SVGID_6_);}
	.st6{fill:url(#SVGID_7_);}
	.st7{fill:url(#SVGID_8_);}
	.st8{fill:url(#SVGID_9_);}
	.st9{fill:url(#SVGID_10_);}
	.st10{fill:url(#SVGID_11_);}
	.st11{fill:url(#SVGID_12_);}
	.st12{fill:url(#SVGID_13_);}
	.st13{fill:url(#SVGID_14_);}
	.st14{fill:url(#SVGID_15_);}
	.st15{fill:url(#SVGID_16_);}
	.st16{fill:url(#SVGID_17_);}
	.st17{fill:url(#SVGID_18_);}
	.st18{fill:url(#SVGID_19_);}
	.st19{fill:url(#SVGID_20_);}
	.st20{fill:url(#SVGID_21_);}
	.st21{fill:url(#SVGID_22_);}
	.st22{fill:url(#SVGID_23_);}
	.st23{fill:url(#SVGID_24_);}
	.st24{fill:url(#SVGID_25_);}
	.st25{fill:url(#SVGID_26_);}
	.st26{fill:url(#SVGID_27_);}
	.st27{fill:url(#SVGID_28_);}
	.st28{fill:url(#SVGID_29_);}
	.st29{fill:url(#SVGID_30_);}
	.st30{fill:url(#SVGID_31_);}
	.st31{fill:url(#SVGID_32_);}
	.st32{fill:url(#SVGID_33_);}
	.st33{fill:url(#SVGID_34_);}
	.st34{fill:url(#SVGID_35_);}
	.st35{fill:url(#SVGID_36_);}
	.st36{fill:url(#SVGID_37_);}
	.st37{fill:url(#SVGID_38_);}
	.st38{fill:url(#SVGID_39_);}
	.st39{fill:url(#SVGID_40_);}
	.st40{fill:url(#SVGID_41_);}
	.st41{fill:url(#SVGID_42_);}
	.st42{fill:url(#SVGID_43_);}
	.st43{fill:url(#SVGID_44_);}
	.st44{fill:url(#SVGID_45_);}
	.st45{fill:url(#SVGID_46_);}
	.st46{fill:url(#SVGID_47_);}
	.st47{opacity:0.7;fill:url(#SVGID_48_);}
	.st48{opacity:0.3;fill:url(#SVGID_49_);}
</style>
<g>
	<g>
		<g>
			<radialGradient id="SVGID_1_" cx="49.606" cy="17.0636" r="6.5667" gradientUnits="userSpaceOnUse">
				<stop  offset="0" style="stop-color:#FFE300"/>
				<stop  offset="0.2016" style="stop-color:#FFDD00"/>
				<stop  offset="0.4651" style="stop-color:#FFCD00"/>
				<stop  offset="0.7617" style="stop-color:#FFB200"/>
				<stop  offset="1" style="stop-color:#FF9700"/>
			</radialGradient>
			<path class="st0" d="M54.3,25.1l-8.2-0.1c0,0-3-5.2,0.6-8.8c0.7-0.7,1.2-1.3,1.7-1.8c0,0,0,0,0,0c2-2.5,2.2-4.2,1.6-5.2
				c-0.4-0.6,3.4,1.8,2.1,7.3c-0.1,0.2-0.1,0.4-0.1,0.6C50.9,21.5,51.8,22.1,54.3,25.1z"/>
			<radialGradient id="SVGID_2_" cx="50.3334" cy="13.0588" r="3.1671" gradientUnits="userSpaceOnUse">
				<stop  offset="0" style="stop-color:#FFB800"/>
				<stop  offset="1" style="stop-color:#FF9700"/>
			</radialGradient>
			<path class="st1" d="M52.1,16.4c-0.1,0.2-0.1,0.4-0.1,0.6c0.6-2.7-0.4-4.1-0.4-4.1c0,1.2-1.1,2.4-1,2.2c0.7-1.4,0.1-3.3,0.1-3.3
				c-0.1,0.8-2.3,2.4-2.4,2.4c2-2.5,2.2-4.2,1.6-5.2C49.6,8.5,53.4,11,52.1,16.4z"/>
		</g>
		<g>
			
				<radialGradient id="SVGID_3_" cx="43.3042" cy="16.4565" r="6.567" gradientTransform="matrix(0.9631 0.269 -0.269 0.9631 21.2443 -9.3128)" gradientUnits="userSpaceOnUse">
				<stop  offset="0" style="stop-color:#FFE300"/>
				<stop  offset="0.2016" style="stop-color:#FFDD00"/>
				<stop  offset="0.4651" style="stop-color:#FFCD00"/>
				<stop  offset="0.7617" style="stop-color:#FFB200"/>
				<stop  offset="1" style="stop-color:#FF9700"/>
			</radialGradient>
			<path class="st2" d="M60.9,27.2L53,24.8c0,0-1.5-5.8,2.9-8.3c0.8-0.5,1.5-0.9,2.1-1.3c0,0,0,0,0,0c2.6-1.9,3.3-3.5,3-4.5
				c-0.2-0.7,2.8,2.7,0,7.6c-0.1,0.2-0.2,0.4-0.3,0.6C58.6,22.8,59.3,23.7,60.9,27.2z"/>
			
				<radialGradient id="SVGID_4_" cx="44.0315" cy="12.4516" r="3.1672" gradientTransform="matrix(0.9631 0.269 -0.269 0.9631 21.2443 -9.3128)" gradientUnits="userSpaceOnUse">
				<stop  offset="0" style="stop-color:#FFB800"/>
				<stop  offset="1" style="stop-color:#FF9700"/>
			</radialGradient>
			<path class="st3" d="M61.1,18.2c-0.1,0.2-0.2,0.4-0.3,0.6c1.3-2.5,0.7-4,0.7-4c-0.3,1.1-1.7,2-1.5,1.9c1.1-1.2,1-3.2,1-3.2
				c-0.3,0.7-2.8,1.7-2.9,1.7c2.6-1.9,3.3-3.5,3-4.5C60.8,10,63.8,13.3,61.1,18.2z"/>
		</g>
		<g>
			
				<radialGradient id="SVGID_5_" cx="36.0575" cy="16.8293" r="6.5665" gradientTransform="matrix(0.8553 0.5182 -0.5182 0.8553 44.6919 -11.4146)" gradientUnits="userSpaceOnUse">
				<stop  offset="0" style="stop-color:#FFE300"/>
				<stop  offset="0.2016" style="stop-color:#FFDD00"/>
				<stop  offset="0.4651" style="stop-color:#FFCD00"/>
				<stop  offset="0.7617" style="stop-color:#FFB200"/>
				<stop  offset="1" style="stop-color:#FF9700"/>
			</radialGradient>
			<path class="st4" d="M66.7,31l-6.9-4.4c0,0,0.1-6,5-7.2c0.9-0.2,1.7-0.5,2.4-0.7c0,0,0,0,0,0c3-1.1,4.1-2.5,4.1-3.6
				c0-0.7,2,3.3-2,7.3c-0.2,0.2-0.3,0.3-0.4,0.5C65.7,26.1,66.1,27.1,66.7,31z"/>
			
				<radialGradient id="SVGID_6_" cx="36.7847" cy="12.8247" r="3.1669" gradientTransform="matrix(0.8553 0.5182 -0.5182 0.8553 44.6919 -11.4146)" gradientUnits="userSpaceOnUse">
				<stop  offset="0" style="stop-color:#FFB800"/>
				<stop  offset="1" style="stop-color:#FF9700"/>
			</radialGradient>
			<path class="st5" d="M69.2,22.4c-0.2,0.2-0.3,0.3-0.4,0.5c1.9-2,1.8-3.7,1.8-3.7c-0.6,1-2.1,1.5-2,1.4c1.3-0.8,1.8-2.8,1.8-2.8
				c-0.5,0.6-3.2,0.9-3.3,0.9c3-1.1,4.1-2.5,4.1-3.6C71.2,14.4,73.2,18.4,69.2,22.4z"/>
		</g>
		<g>
			
				<radialGradient id="SVGID_7_" cx="29.6715" cy="20.4707" r="6.5668" gradientTransform="matrix(0.6844 0.7291 -0.7291 0.6844 68.4743 -8.3991)" gradientUnits="userSpaceOnUse">
				<stop  offset="0" style="stop-color:#FFE300"/>
				<stop  offset="0.2016" style="stop-color:#FFDD00"/>
				<stop  offset="0.4651" style="stop-color:#FFCD00"/>
				<stop  offset="0.7617" style="stop-color:#FFB200"/>
				<stop  offset="1" style="stop-color:#FF9700"/>
			</radialGradient>
			<path class="st6" d="M71.2,36.2l-5.5-6.1c0,0,1.7-5.8,6.8-5.6c0.9,0,1.8,0,2.5,0c0,0,0,0,0,0c3.2-0.3,4.6-1.3,4.9-2.3
				c0.2-0.7,1,3.7-3.9,6.5c-0.2,0.1-0.4,0.2-0.6,0.3C71.6,31.2,71.7,32.3,71.2,36.2z"/>
			
				<radialGradient id="SVGID_8_" cx="30.3993" cy="16.4658" r="3.1671" gradientTransform="matrix(0.6844 0.7291 -0.7291 0.6844 68.4743 -8.3991)" gradientUnits="userSpaceOnUse">
				<stop  offset="0" style="stop-color:#FFB800"/>
				<stop  offset="1" style="stop-color:#FF9700"/>
			</radialGradient>
			<path class="st7" d="M76,28.6c-0.2,0.1-0.4,0.2-0.6,0.3c2.4-1.4,2.7-3,2.7-3c-0.9,0.8-2.5,0.9-2.3,0.8c1.5-0.5,2.5-2.2,2.5-2.2
				c-0.7,0.5-3.3,0-3.4-0.1c3.2-0.3,4.6-1.3,4.9-2.3C80.1,21.4,80.9,25.8,76,28.6z"/>
		</g>
		<g>
			
				<radialGradient id="SVGID_9_" cx="24.7419" cy="23.8581" r="6.5664" gradientTransform="matrix(0.463 0.8864 -0.8864 0.463 88.834 1.5369)" gradientUnits="userSpaceOnUse">
				<stop  offset="0" style="stop-color:#FFE300"/>
				<stop  offset="0.2016" style="stop-color:#FFDD00"/>
				<stop  offset="0.4651" style="stop-color:#FFCD00"/>
				<stop  offset="0.7617" style="stop-color:#FFB200"/>
				<stop  offset="1" style="stop-color:#FF9700"/>
			</radialGradient>
			<path class="st8" d="M74.2,42.4L70.5,35c0,0,3.2-5.1,8-3.6c0.9,0.3,1.7,0.5,2.4,0.6c0,0,0,0,0,0c3.2,0.6,4.8,0,5.3-0.9
				c0.4-0.6-0.1,3.9-5.5,5.2c-0.2,0.1-0.4,0.1-0.6,0.2C75.9,37.7,75.7,38.8,74.2,42.4z"/>
			
				<radialGradient id="SVGID_10_" cx="25.4692" cy="19.8534" r="3.1669" gradientTransform="matrix(0.463 0.8864 -0.8864 0.463 88.834 1.5369)" gradientUnits="userSpaceOnUse">
				<stop  offset="0" style="stop-color:#FFB800"/>
				<stop  offset="1" style="stop-color:#FF9700"/>
			</radialGradient>
			<path class="st9" d="M80.8,36.4c-0.2,0.1-0.4,0.1-0.6,0.2c2.7-0.7,3.4-2.2,3.4-2.2c-1,0.5-2.6,0.2-2.4,0.2c1.6,0,3-1.5,3-1.5
				c-0.8,0.3-3.2-0.9-3.2-1c3.2,0.6,4.8,0,5.3-0.9C86.7,30.6,86.3,35,80.8,36.4z"/>
		</g>
		<g>
			
				<radialGradient id="SVGID_11_" cx="21.312" cy="30.1917" r="6.5669" gradientTransform="matrix(0.2075 0.9782 -0.9782 0.2075 107.3876 15.8256)" gradientUnits="userSpaceOnUse">
				<stop  offset="0" style="stop-color:#FFE300"/>
				<stop  offset="0.2016" style="stop-color:#FFDD00"/>
				<stop  offset="0.4651" style="stop-color:#FFCD00"/>
				<stop  offset="0.7617" style="stop-color:#FFB200"/>
				<stop  offset="1" style="stop-color:#FF9700"/>
			</radialGradient>
			<path class="st10" d="M75.4,49.2l-1.6-8.1c0,0,4.5-4,8.7-1.3c0.8,0.5,1.5,0.9,2.2,1.2c0,0,0,0,0,0c2.9,1.5,4.6,1.3,5.4,0.5
				c0.5-0.5-1.1,3.7-6.7,3.6c-0.2,0-0.4,0-0.6,0C78.3,45.2,77.8,46.2,75.4,49.2z"/>
			
				<radialGradient id="SVGID_12_" cx="22.0396" cy="26.1867" r="3.1671" gradientTransform="matrix(0.2075 0.9782 -0.9782 0.2075 107.3876 15.8256)" gradientUnits="userSpaceOnUse">
				<stop  offset="0" style="stop-color:#FFB800"/>
				<stop  offset="1" style="stop-color:#FF9700"/>
			</radialGradient>
			<path class="st11" d="M83.4,45.2c-0.2,0-0.4,0-0.6,0c2.8,0,3.9-1.2,3.9-1.2c-1.1,0.2-2.6-0.5-2.4-0.5c1.5,0.4,3.3-0.6,3.3-0.6
				c-0.8,0-2.8-1.7-2.9-1.8c2.9,1.5,4.6,1.3,5.4,0.5C90.6,41.2,89,45.4,83.4,45.2z"/>
		</g>
		<g>
			
				<radialGradient id="SVGID_13_" cx="18.9149" cy="36.1497" r="6.5667" gradientTransform="matrix(-6.330000e-02 0.998 -0.998 -6.330000e-02 120.3044 35.3053)" gradientUnits="userSpaceOnUse">
				<stop  offset="0" style="stop-color:#FFE300"/>
				<stop  offset="0.2016" style="stop-color:#FFDD00"/>
				<stop  offset="0.4651" style="stop-color:#FFCD00"/>
				<stop  offset="0.7617" style="stop-color:#FFB200"/>
				<stop  offset="1" style="stop-color:#FF9700"/>
			</radialGradient>
			<path class="st12" d="M74.7,56.1l0.7-8.2c0,0,5.4-2.7,8.7,1.1c0.6,0.7,1.2,1.3,1.7,1.8c0,0,0,0,0,0c2.4,2.2,4.1,2.5,5.1,2
				c0.6-0.3-2.1,3.3-7.4,1.6c-0.2-0.1-0.4-0.1-0.6-0.2C78.6,53,77.8,53.8,74.7,56.1z"/>
			
				<radialGradient id="SVGID_14_" cx="19.6424" cy="32.1449" r="3.167" gradientTransform="matrix(-6.330000e-02 0.998 -0.998 -6.330000e-02 120.3044 35.3053)" gradientUnits="userSpaceOnUse">
				<stop  offset="0" style="stop-color:#FFB800"/>
				<stop  offset="1" style="stop-color:#FF9700"/>
			</radialGradient>
			<path class="st13" d="M83.5,54.4c-0.2-0.1-0.4-0.1-0.6-0.2c2.7,0.8,4.1-0.1,4.1-0.1c-1.2-0.1-2.3-1.2-2.1-1.1
				c1.4,0.8,3.3,0.3,3.3,0.3c-0.8-0.2-2.2-2.4-2.3-2.5c2.4,2.2,4.1,2.5,5.1,2C91.5,52.4,88.9,56,83.5,54.4z"/>
		</g>
		<g>
			
				<radialGradient id="SVGID_15_" cx="18.2487" cy="43.1248" r="6.5667" gradientTransform="matrix(-0.3294 0.9442 -0.9442 -0.3294 128.0755 57.6976)" gradientUnits="userSpaceOnUse">
				<stop  offset="0" style="stop-color:#FFE300"/>
				<stop  offset="0.2016" style="stop-color:#FFDD00"/>
				<stop  offset="0.4651" style="stop-color:#FFCD00"/>
				<stop  offset="0.7617" style="stop-color:#FFB200"/>
				<stop  offset="1" style="stop-color:#FF9700"/>
			</radialGradient>
			<path class="st14" d="M72.2,62.5l2.8-7.7c0,0,5.9-1.1,8.1,3.4c0.4,0.8,0.8,1.6,1.2,2.2c0,0,0,0,0,0c1.7,2.7,3.3,3.5,4.3,3.3
				c0.7-0.1-2.9,2.6-7.6-0.4c-0.2-0.1-0.4-0.2-0.5-0.3C76.8,60.5,75.8,61.1,72.2,62.5z"/>
			
				<radialGradient id="SVGID_16_" cx="18.9763" cy="39.12" r="3.167" gradientTransform="matrix(-0.3294 0.9442 -0.9442 -0.3294 128.0755 57.6976)" gradientUnits="userSpaceOnUse">
				<stop  offset="0" style="stop-color:#FFB800"/>
				<stop  offset="1" style="stop-color:#FF9700"/>
			</radialGradient>
			<path class="st15" d="M81.1,63.2c-0.2-0.1-0.4-0.2-0.5-0.3c2.4,1.5,4,1,4,1c-1.1-0.4-1.9-1.8-1.8-1.6c1.1,1.1,3.1,1.2,3.1,1.2
				c-0.7-0.4-1.5-2.9-1.5-3c1.7,2.7,3.3,3.5,4.3,3.3C89.4,63.5,85.8,66.3,81.1,63.2z"/>
		</g>
		<g>
			
				<radialGradient id="SVGID_17_" cx="19.471" cy="50.2496" r="6.5668" gradientTransform="matrix(-0.5712 0.8208 -0.8208 -0.5712 129.7163 81.4936)" gradientUnits="userSpaceOnUse">
				<stop  offset="0" style="stop-color:#FFCC00"/>
				<stop  offset="0.2521" style="stop-color:#FFC600"/>
				<stop  offset="0.5816" style="stop-color:#FFB600"/>
				<stop  offset="0.9527" style="stop-color:#FF9B00"/>
				<stop  offset="1" style="stop-color:#FF9700"/>
			</radialGradient>
			<path class="st16" d="M68.1,68.1l4.8-6.7c0,0,6,0.5,6.9,5.5c0.2,0.9,0.4,1.7,0.6,2.4c0,0,0,0,0,0c0.9,3.1,2.2,4.2,3.3,4.3
				c0.7,0-3.5,1.7-7.2-2.5c-0.1-0.2-0.3-0.3-0.4-0.5C73,67.4,71.9,67.7,68.1,68.1z"/>
			
				<radialGradient id="SVGID_18_" cx="20.1991" cy="46.2447" r="3.1671" gradientTransform="matrix(-0.5712 0.8208 -0.8208 -0.5712 129.7163 81.4936)" gradientUnits="userSpaceOnUse">
				<stop  offset="0" style="stop-color:#FFB800"/>
				<stop  offset="1" style="stop-color:#FF9700"/>
			</radialGradient>
			<path class="st17" d="M76.5,71.1c-0.1-0.2-0.3-0.3-0.4-0.5c1.9,2.1,3.5,2,3.5,2c-1-0.7-1.4-2.2-1.3-2c0.8,1.4,2.7,2,2.7,2
				c-0.6-0.6-0.6-3.2-0.7-3.3c0.9,3.1,2.2,4.2,3.3,4.3C84.3,73.6,80.2,75.3,76.5,71.1z"/>
		</g>
		<g>
			
				<radialGradient id="SVGID_19_" cx="22.5044" cy="55.5468" r="6.5664" gradientTransform="matrix(-0.771 0.6369 -0.6369 -0.771 124.0634 103.9452)" gradientUnits="userSpaceOnUse">
				<stop  offset="0" style="stop-color:#FFCC00"/>
				<stop  offset="0.2521" style="stop-color:#FFC600"/>
				<stop  offset="0.5816" style="stop-color:#FFB600"/>
				<stop  offset="0.9527" style="stop-color:#FF9B00"/>
				<stop  offset="1" style="stop-color:#FF9700"/>
			</radialGradient>
			<path class="st18" d="M62.6,72.3l6.4-5.1c0,0,5.6,2.1,5.2,7.1c-0.1,0.9-0.1,1.8-0.1,2.5c0,0,0,0,0,0c0.1,3.2,1,4.7,2,5
				c0.7,0.2-3.8,0.7-6.3-4.3c-0.1-0.2-0.2-0.4-0.3-0.6C67.5,72.9,66.4,73,62.6,72.3z"/>
			
				<radialGradient id="SVGID_20_" cx="23.2321" cy="51.5421" r="3.1669" gradientTransform="matrix(-0.771 0.6369 -0.6369 -0.771 124.0634 103.9452)" gradientUnits="userSpaceOnUse">
				<stop  offset="0" style="stop-color:#FFB800"/>
				<stop  offset="1" style="stop-color:#FF9700"/>
			</radialGradient>
			<path class="st19" d="M69.8,77.5c-0.1-0.2-0.2-0.4-0.3-0.6c1.3,2.5,2.9,2.9,2.9,2.9c-0.7-0.9-0.7-2.5-0.7-2.3
				c0.4,1.5,2,2.6,2,2.6c-0.4-0.7,0.2-3.3,0.3-3.4c0.1,3.2,1,4.7,2,5C76.8,82,72.3,82.5,69.8,77.5z"/>
		</g>
		<g>
			
				<radialGradient id="SVGID_21_" cx="27.4801" cy="60.4194" r="6.5666" gradientTransform="matrix(-0.9139 0.406 -0.406 -0.9139 113.3894 124.3267)" gradientUnits="userSpaceOnUse">
				<stop  offset="0" style="stop-color:#FFCC00"/>
				<stop  offset="0.2521" style="stop-color:#FFC600"/>
				<stop  offset="0.5816" style="stop-color:#FFB600"/>
				<stop  offset="0.9527" style="stop-color:#FF9B00"/>
				<stop  offset="1" style="stop-color:#FF9700"/>
			</radialGradient>
			<path class="st20" d="M56.2,74.9l7.6-3.2c0,0,4.9,3.5,3,8.2c-0.3,0.9-0.6,1.7-0.8,2.4c0,0,0,0,0,0c-0.8,3.1-0.3,4.8,0.6,5.4
				c0.6,0.4-3.9-0.3-4.9-5.8c0-0.2-0.1-0.4-0.1-0.6C60.7,76.8,59.7,76.5,56.2,74.9z"/>
			
				<radialGradient id="SVGID_22_" cx="28.2076" cy="56.4146" r="3.167" gradientTransform="matrix(-0.9139 0.406 -0.406 -0.9139 113.3894 124.3267)" gradientUnits="userSpaceOnUse">
				<stop  offset="0" style="stop-color:#FFB800"/>
				<stop  offset="1" style="stop-color:#FF9700"/>
			</radialGradient>
			<path class="st21" d="M61.8,81.8c0-0.2-0.1-0.4-0.1-0.6c0.6,2.7,2,3.6,2,3.6c-0.5-1.1,0-2.6,0-2.4c-0.1,1.6,1.3,3.1,1.3,3.1
				c-0.2-0.8,1.1-3.1,1.2-3.2c-0.8,3.1-0.3,4.8,0.6,5.4C67.2,88.1,62.8,87.3,61.8,81.8z"/>
		</g>
		<g>
			
				<radialGradient id="SVGID_23_" cx="33.4579" cy="64.1723" r="6.5668" gradientTransform="matrix(-0.9894 0.1452 -0.1452 -0.9894 97.5612 141.4957)" gradientUnits="userSpaceOnUse">
				<stop  offset="0" style="stop-color:#FFCC00"/>
				<stop  offset="0.2521" style="stop-color:#FFC600"/>
				<stop  offset="0.5816" style="stop-color:#FFB600"/>
				<stop  offset="0.9527" style="stop-color:#FF9B00"/>
				<stop  offset="1" style="stop-color:#FF9700"/>
			</radialGradient>
			<path class="st22" d="M49.3,75.6l8.1-1.1c0,0,3.7,4.7,0.7,8.8c-0.6,0.7-1,1.4-1.4,2.1c0,0,0,0,0,0c-1.6,2.8-1.6,4.5-0.9,5.4
				c0.5,0.5-3.6-1.3-3.1-6.9c0-0.2,0-0.4,0.1-0.6C53.2,78.7,52.2,78.2,49.3,75.6z"/>
			
				<radialGradient id="SVGID_24_" cx="34.1855" cy="60.1674" r="3.1671" gradientTransform="matrix(-0.9894 0.1452 -0.1452 -0.9894 97.5612 141.4957)" gradientUnits="userSpaceOnUse">
				<stop  offset="0" style="stop-color:#FFB800"/>
				<stop  offset="1" style="stop-color:#FF9700"/>
			</radialGradient>
			<path class="st23" d="M52.8,83.8c0-0.2,0-0.4,0.1-0.6c-0.2,2.8,1,4,1,4c-0.2-1.2,0.7-2.5,0.6-2.3c-0.5,1.5,0.4,3.3,0.4,3.3
				c0-0.8,1.9-2.7,2-2.7c-1.6,2.8-1.6,4.5-0.9,5.4C56.4,91.3,52.3,89.4,52.8,83.8z"/>
		</g>
		<g>
			
				<radialGradient id="SVGID_25_" cx="39.9073" cy="65.8752" r="6.5667" gradientTransform="matrix(-0.992 -0.1263 0.1263 -0.992 77.4222 153.4353)" gradientUnits="userSpaceOnUse">
				<stop  offset="0" style="stop-color:#FFCC00"/>
				<stop  offset="0.2521" style="stop-color:#FFC600"/>
				<stop  offset="0.5816" style="stop-color:#FFB600"/>
				<stop  offset="0.9527" style="stop-color:#FF9B00"/>
				<stop  offset="1" style="stop-color:#FF9700"/>
			</radialGradient>
			<path class="st24" d="M42.5,74.5l8.1,1.2c0,0,2.3,5.5-1.7,8.6c-0.7,0.6-1.4,1.1-1.9,1.6c0,0,0,0,0,0c-2.3,2.3-2.7,3.9-2.3,4.9
				c0.3,0.6-3.1-2.3-1.2-7.5c0.1-0.2,0.2-0.4,0.2-0.6C45.4,78.5,44.6,77.8,42.5,74.5z"/>
			
				<radialGradient id="SVGID_26_" cx="40.6349" cy="61.8704" r="3.167" gradientTransform="matrix(-0.992 -0.1263 0.1263 -0.992 77.4222 153.4353)" gradientUnits="userSpaceOnUse">
				<stop  offset="0" style="stop-color:#FFB800"/>
				<stop  offset="1" style="stop-color:#FF9700"/>
			</radialGradient>
			<path class="st25" d="M43.6,83.4c0.1-0.2,0.2-0.4,0.2-0.6c-0.9,2.6-0.1,4.1-0.1,4.1c0.1-1.2,1.3-2.2,1.2-2.1
				c-0.9,1.3-0.5,3.3-0.5,3.3c0.2-0.8,2.6-2.1,2.6-2.1c-2.3,2.3-2.7,3.9-2.3,4.9C45.1,91.5,41.7,88.6,43.6,83.4z"/>
		</g>
		<g>
			
				<radialGradient id="SVGID_27_" cx="46.3003" cy="65.5715" r="6.5664" gradientTransform="matrix(-0.9215 -0.3885 0.3885 -0.9215 54.6409 159.2197)" gradientUnits="userSpaceOnUse">
				<stop  offset="0" style="stop-color:#FFCC00"/>
				<stop  offset="0.2521" style="stop-color:#FFC600"/>
				<stop  offset="0.5816" style="stop-color:#FFB600"/>
				<stop  offset="0.9527" style="stop-color:#FF9B00"/>
				<stop  offset="1" style="stop-color:#FF9700"/>
			</radialGradient>
			<path class="st26" d="M36.2,71.6l7.5,3.3c0,0,0.8,6-3.9,7.9c-0.9,0.4-1.6,0.7-2.3,1.1c0,0,0,0,0,0c-2.9,1.5-3.7,3-3.5,4.1
				c0.1,0.7-2.4-3,0.9-7.5c0.1-0.2,0.3-0.4,0.4-0.5C37.9,76.2,37.4,75.3,36.2,71.6z"/>
			
				<radialGradient id="SVGID_28_" cx="47.028" cy="61.5669" r="3.1669" gradientTransform="matrix(-0.9215 -0.3885 0.3885 -0.9215 54.6409 159.2197)" gradientUnits="userSpaceOnUse">
				<stop  offset="0" style="stop-color:#FFB800"/>
				<stop  offset="1" style="stop-color:#FF9700"/>
			</radialGradient>
			<path class="st27" d="M34.9,80.4c0.1-0.2,0.3-0.4,0.4-0.5c-1.6,2.3-1.2,3.9-1.2,3.9c0.5-1.1,1.9-1.8,1.7-1.7c-1.2,1-1.4,3-1.4,3
				c0.4-0.7,3-1.3,3.1-1.3c-2.9,1.5-3.7,3-3.5,4.1C34.1,88.7,31.6,84.9,34.9,80.4z"/>
		</g>
		<g>
			
				<radialGradient id="SVGID_29_" cx="53.054" cy="64.4699" r="6.5669" gradientTransform="matrix(-0.783 -0.622 0.622 -0.783 31.1095 159.7895)" gradientUnits="userSpaceOnUse">
				<stop  offset="0" style="stop-color:#FFCC00"/>
				<stop  offset="0.2521" style="stop-color:#FFC600"/>
				<stop  offset="0.5816" style="stop-color:#FFB600"/>
				<stop  offset="0.9527" style="stop-color:#FF9B00"/>
				<stop  offset="1" style="stop-color:#FF9700"/>
			</radialGradient>
			<path class="st28" d="M31,67.1l6.3,5.2c0,0-0.9,5.9-5.9,6.5c-0.9,0.1-1.7,0.2-2.5,0.4c0,0,0,0,0,0c-3.2,0.7-4.4,1.9-4.5,3
				c-0.1,0.7-1.5-3.6,2.9-7c0.2-0.1,0.3-0.3,0.5-0.4C31.4,72,31.1,71,31,67.1z"/>
			
				<radialGradient id="SVGID_30_" cx="53.782" cy="60.4649" r="3.1672" gradientTransform="matrix(-0.783 -0.622 0.622 -0.783 31.1095 159.7895)" gradientUnits="userSpaceOnUse">
				<stop  offset="0" style="stop-color:#FFB800"/>
				<stop  offset="1" style="stop-color:#FF9700"/>
			</radialGradient>
			<path class="st29" d="M27.4,75.3c0.2-0.1,0.3-0.3,0.5-0.4c-2.2,1.8-2.2,3.4-2.2,3.4c0.7-0.9,2.3-1.2,2.1-1.1
				c-1.4,0.7-2.1,2.5-2.1,2.5c0.6-0.5,3.3-0.4,3.4-0.4c-3.2,0.7-4.4,1.9-4.5,3C24.4,83,22.9,78.7,27.4,75.3z"/>
		</g>
		<g>
			
				<radialGradient id="SVGID_31_" cx="59.0792" cy="60.8795" r="6.567" gradientTransform="matrix(-0.5868 -0.8097 0.8097 -0.5868 8.7573 153.4451)" gradientUnits="userSpaceOnUse">
				<stop  offset="0" style="stop-color:#FFCC00"/>
				<stop  offset="0.2521" style="stop-color:#FFC600"/>
				<stop  offset="0.5816" style="stop-color:#FFB600"/>
				<stop  offset="0.9527" style="stop-color:#FF9B00"/>
				<stop  offset="1" style="stop-color:#FF9700"/>
			</radialGradient>
			<path class="st30" d="M27.1,61.4l4.7,6.7c0,0-2.4,5.5-7.4,4.7c-0.9-0.1-1.7-0.2-2.5-0.3c0,0,0,0,0,0c-3.2-0.2-4.7,0.7-5.1,1.7
				c-0.3,0.7-0.5-3.8,4.7-6c0.2-0.1,0.4-0.2,0.6-0.2C26.2,66.2,26.2,65.1,27.1,61.4z"/>
			
				<radialGradient id="SVGID_32_" cx="59.8071" cy="56.8745" r="3.1672" gradientTransform="matrix(-0.5868 -0.8097 0.8097 -0.5868 8.7573 153.4451)" gradientUnits="userSpaceOnUse">
				<stop  offset="0" style="stop-color:#FFB800"/>
				<stop  offset="1" style="stop-color:#FF9700"/>
			</radialGradient>
			<path class="st31" d="M21.4,68.3c0.2-0.1,0.4-0.2,0.6-0.2c-2.6,1.1-3.1,2.7-3.1,2.7c0.9-0.7,2.6-0.6,2.3-0.5
				c-1.6,0.3-2.7,1.9-2.7,1.9c0.7-0.4,3.3,0.5,3.3,0.5c-3.2-0.2-4.7,0.7-5.1,1.7C16.5,74.9,16.3,70.4,21.4,68.3z"/>
		</g>
		<g>
			
				<radialGradient id="SVGID_33_" cx="63.3168" cy="56.1311" r="6.5669" gradientTransform="matrix(-0.3474 -0.9377 0.9377 -0.3474 -11.5786 140.8779)" gradientUnits="userSpaceOnUse">
				<stop  offset="0" style="stop-color:#FFE300"/>
				<stop  offset="0.2016" style="stop-color:#FFDD00"/>
				<stop  offset="0.4651" style="stop-color:#FFCD00"/>
				<stop  offset="0.7617" style="stop-color:#FFB200"/>
				<stop  offset="1" style="stop-color:#FF9700"/>
			</radialGradient>
			<path class="st32" d="M24.9,54.8l2.7,7.7c0,0-3.8,4.6-8.4,2.5c-0.8-0.4-1.6-0.7-2.3-0.9c0,0,0,0,0,0c-3.1-1-4.7-0.6-5.4,0.3
				c-0.4,0.6,0.6-3.8,6.1-4.5c0.2,0,0.4-0.1,0.6-0.1C22.7,59.2,23,58.2,24.9,54.8z"/>
			
				<radialGradient id="SVGID_34_" cx="64.045" cy="52.1261" r="3.1672" gradientTransform="matrix(-0.3474 -0.9377 0.9377 -0.3474 -11.5786 140.8779)" gradientUnits="userSpaceOnUse">
				<stop  offset="0" style="stop-color:#FFB800"/>
				<stop  offset="1" style="stop-color:#FF9700"/>
			</radialGradient>
			<path class="st33" d="M17.6,59.9c0.2,0,0.4-0.1,0.6-0.1c-2.8,0.4-3.7,1.8-3.7,1.8c1.1-0.4,2.6,0.2,2.4,0.1
				c-1.6-0.2-3.1,1.1-3.1,1.1c0.8-0.2,3,1.3,3.1,1.4c-3.1-1-4.7-0.6-5.4,0.3C11.1,65,12.1,60.6,17.6,59.9z"/>
		</g>
		<g>
			
				<radialGradient id="SVGID_35_" cx="66.8103" cy="49.5814" r="6.5669" gradientTransform="matrix(-8.230000e-02 -0.9966 0.9966 -8.230000e-02 -26.901 123.9173)" gradientUnits="userSpaceOnUse">
				<stop  offset="0" style="stop-color:#FFE300"/>
				<stop  offset="0.2016" style="stop-color:#FFDD00"/>
				<stop  offset="0.4651" style="stop-color:#FFCD00"/>
				<stop  offset="0.7617" style="stop-color:#FFB200"/>
				<stop  offset="1" style="stop-color:#FF9700"/>
			</radialGradient>
			<path class="st34" d="M24.6,47.9l0.5,8.2c0,0-4.9,3.4-8.8,0.2c-0.7-0.6-1.4-1.1-2-1.5c0,0,0,0,0,0c-2.7-1.8-4.4-1.8-5.3-1.2
				c-0.6,0.4,1.6-3.5,7.1-2.7c0.2,0,0.4,0.1,0.6,0.1C21.3,51.6,21.9,50.6,24.6,47.9z"/>
			
				<radialGradient id="SVGID_36_" cx="67.538" cy="45.5765" r="3.1671" gradientTransform="matrix(-8.230000e-02 -0.9966 0.9966 -8.230000e-02 -26.901 123.9173)" gradientUnits="userSpaceOnUse">
				<stop  offset="0" style="stop-color:#FFB800"/>
				<stop  offset="1" style="stop-color:#FF9700"/>
			</radialGradient>
			<path class="st35" d="M16.2,50.9c0.2,0,0.4,0.1,0.6,0.1c-2.8-0.4-4,0.7-4,0.7c1.2-0.1,2.5,0.9,2.3,0.8c-1.5-0.6-3.3,0.2-3.3,0.2
				c0.8,0.1,2.6,2.1,2.6,2.1c-2.7-1.8-4.4-1.8-5.3-1.2C8.5,54,10.7,50,16.2,50.9z"/>
		</g>
		<g>
			
				<radialGradient id="SVGID_37_" cx="68.1126" cy="43.1449" r="6.5669" gradientTransform="matrix(0.1888 -0.982 0.982 0.1888 -37.8307 103.0149)" gradientUnits="userSpaceOnUse">
				<stop  offset="0" style="stop-color:#FFE300"/>
				<stop  offset="0.2016" style="stop-color:#FFDD00"/>
				<stop  offset="0.4651" style="stop-color:#FFCD00"/>
				<stop  offset="0.7617" style="stop-color:#FFB200"/>
				<stop  offset="1" style="stop-color:#FF9700"/>
			</radialGradient>
			<path class="st36" d="M26.2,41.2l-1.7,8c0,0-5.7,2-8.5-2.2c-0.5-0.8-1-1.4-1.5-2c0,0,0,0,0,0c-2.1-2.5-3.7-3-4.8-2.6
				c-0.7,0.2,2.5-3,7.6-0.7c0.2,0.1,0.4,0.2,0.6,0.3C22,43.8,22.8,43.1,26.2,41.2z"/>
			
				<radialGradient id="SVGID_38_" cx="68.8405" cy="39.14" r="3.1672" gradientTransform="matrix(0.1888 -0.982 0.982 0.1888 -37.8307 103.0149)" gradientUnits="userSpaceOnUse">
				<stop  offset="0" style="stop-color:#FFB800"/>
				<stop  offset="1" style="stop-color:#FF9700"/>
			</radialGradient>
			<path class="st37" d="M17.3,41.7c0.2,0.1,0.4,0.2,0.6,0.3c-2.6-1.1-4.1-0.4-4.1-0.4c1.1,0.2,2.2,1.5,2,1.4
				c-1.3-1-3.2-0.7-3.2-0.7c0.8,0.3,1.9,2.7,1.9,2.8c-2.1-2.5-3.7-3-4.8-2.6C9,42.7,12.1,39.4,17.3,41.7z"/>
		</g>
		<g>
			
				<radialGradient id="SVGID_39_" cx="67.8484" cy="36.4222" r="6.567" gradientTransform="matrix(0.446 -0.895 0.895 0.446 -42.6758 80.2086)" gradientUnits="userSpaceOnUse">
				<stop  offset="0" style="stop-color:#FFE300"/>
				<stop  offset="0.2016" style="stop-color:#FFDD00"/>
				<stop  offset="0.4651" style="stop-color:#FFCD00"/>
				<stop  offset="0.7617" style="stop-color:#FFB200"/>
				<stop  offset="1" style="stop-color:#FF9700"/>
			</radialGradient>
			<path class="st38" d="M29.4,35.1l-3.8,7.3c0,0-6,0.4-7.6-4.4c-0.3-0.9-0.6-1.7-0.9-2.3c0,0,0,0,0,0c-1.4-2.9-2.8-3.9-3.9-3.8
				c-0.7,0.1,3.2-2.2,7.5,1.4c0.2,0.1,0.3,0.3,0.5,0.4C24.7,36.5,25.7,36,29.4,35.1z"/>
			
				<radialGradient id="SVGID_40_" cx="68.5762" cy="32.4173" r="3.1672" gradientTransform="matrix(0.446 -0.895 0.895 0.446 -42.6758 80.2086)" gradientUnits="userSpaceOnUse">
				<stop  offset="0" style="stop-color:#FFB800"/>
				<stop  offset="1" style="stop-color:#FF9700"/>
			</radialGradient>
			<path class="st39" d="M20.7,33.3c0.2,0.1,0.3,0.3,0.5,0.4c-2.2-1.8-3.8-1.5-3.8-1.5c1,0.5,1.7,2,1.5,1.8c-1-1.3-2.9-1.6-2.9-1.6
				c0.7,0.5,1.1,3.1,1.1,3.2c-1.4-2.9-2.8-3.9-3.9-3.8C12.6,31.9,16.4,29.7,20.7,33.3z"/>
		</g>
		<g>
			
				<radialGradient id="SVGID_41_" cx="64.8543" cy="30.1702" r="6.5668" gradientTransform="matrix(0.6703 -0.7421 0.7421 0.6703 -40.6975 56.153)" gradientUnits="userSpaceOnUse">
				<stop  offset="0" style="stop-color:#FFE300"/>
				<stop  offset="0.2016" style="stop-color:#FFDD00"/>
				<stop  offset="0.4651" style="stop-color:#FFCD00"/>
				<stop  offset="0.7617" style="stop-color:#FFB200"/>
				<stop  offset="1" style="stop-color:#FF9700"/>
			</radialGradient>
			<path class="st40" d="M34.3,30.1l-5.6,6c0,0-5.9-1.2-6.1-6.3c0-0.9-0.1-1.8-0.3-2.5c0,0,0,0,0,0c-0.5-3.2-1.7-4.5-2.7-4.7
				c-0.7-0.1,3.6-1.3,6.8,3.3c0.1,0.2,0.2,0.4,0.4,0.5C29.3,30.2,30.4,30,34.3,30.1z"/>
			
				<radialGradient id="SVGID_42_" cx="65.5826" cy="26.1653" r="3.1671" gradientTransform="matrix(0.6703 -0.7421 0.7421 0.6703 -40.6975 56.153)" gradientUnits="userSpaceOnUse">
				<stop  offset="0" style="stop-color:#FFB800"/>
				<stop  offset="1" style="stop-color:#FF9700"/>
			</radialGradient>
			<path class="st41" d="M26.3,26c0.1,0.2,0.2,0.4,0.4,0.5c-1.6-2.3-3.3-2.4-3.3-2.4c0.9,0.8,1.1,2.4,1,2.2C23.9,24.8,22,24,22,24
				c0.5,0.6,0.2,3.3,0.2,3.4c-0.5-3.2-1.7-4.5-2.7-4.7C18.8,22.5,23.2,21.4,26.3,26z"/>
		</g>
		<g>
			
				<radialGradient id="SVGID_43_" cx="61.4199" cy="24.7262" r="6.567" gradientTransform="matrix(0.8452 -0.5344 0.5344 0.8452 -33.152 34.3063)" gradientUnits="userSpaceOnUse">
				<stop  offset="0" style="stop-color:#FFE300"/>
				<stop  offset="0.2016" style="stop-color:#FFDD00"/>
				<stop  offset="0.4651" style="stop-color:#FFCD00"/>
				<stop  offset="0.7617" style="stop-color:#FFB200"/>
				<stop  offset="1" style="stop-color:#FF9700"/>
			</radialGradient>
			<path class="st42" d="M40.2,26.6l-7,4.3c0,0-5.3-2.8-4.2-7.7c0.2-0.9,0.3-1.7,0.4-2.5c0,0,0,0,0,0c0.4-3.2-0.4-4.8-1.4-5.2
				c-0.6-0.3,3.9-0.3,5.7,5.1c0.1,0.2,0.1,0.4,0.2,0.6C35.5,25.4,36.5,25.5,40.2,26.6z"/>
			
				<radialGradient id="SVGID_44_" cx="62.148" cy="20.7213" r="3.1672" gradientTransform="matrix(0.8452 -0.5344 0.5344 0.8452 -33.152 34.3063)" gradientUnits="userSpaceOnUse">
				<stop  offset="0" style="stop-color:#FFB800"/>
				<stop  offset="1" style="stop-color:#FF9700"/>
			</radialGradient>
			<path class="st43" d="M33.7,20.5c0.1,0.2,0.1,0.4,0.2,0.6c-0.9-2.6-2.5-3.2-2.5-3.2c0.6,1,0.4,2.6,0.4,2.4
				c-0.2-1.6-1.7-2.9-1.7-2.9c0.3,0.8-0.7,3.2-0.7,3.3c0.4-3.2-0.4-4.8-1.4-5.2C27.4,15.2,31.9,15.2,33.7,20.5z"/>
		</g>
		<g>
			
				<radialGradient id="SVGID_45_" cx="56.6303" cy="20.1854" r="6.567" gradientTransform="matrix(0.9578 -0.2873 0.2873 0.9578 -19.929 15.5009)" gradientUnits="userSpaceOnUse">
				<stop  offset="0" style="stop-color:#FFE300"/>
				<stop  offset="0.2016" style="stop-color:#FFDD00"/>
				<stop  offset="0.4651" style="stop-color:#FFCD00"/>
				<stop  offset="0.7617" style="stop-color:#FFB200"/>
				<stop  offset="1" style="stop-color:#FF9700"/>
			</radialGradient>
			<path class="st44" d="M46.9,24.9L39,27.1c0,0-4.4-4.1-2-8.6c0.4-0.8,0.8-1.6,1.1-2.3c0,0,0,0,0,0c1.2-3,0.9-4.7,0.1-5.4
				c-0.5-0.5,3.8,0.8,4.1,6.4c0,0.2,0,0.4,0,0.6C42.7,22.4,43.7,22.8,46.9,24.9z"/>
			
				<radialGradient id="SVGID_46_" cx="57.3581" cy="16.1805" r="3.1672" gradientTransform="matrix(0.9578 -0.2873 0.2873 0.9578 -19.929 15.5009)" gradientUnits="userSpaceOnUse">
				<stop  offset="0" style="stop-color:#FFB800"/>
				<stop  offset="1" style="stop-color:#FF9700"/>
			</radialGradient>
			<path class="st45" d="M42.3,17.3c0,0.2,0,0.4,0,0.6c-0.2-2.8-1.5-3.8-1.5-3.8c0.3,1.1-0.3,2.6-0.3,2.4c0.3-1.6-0.9-3.2-0.9-3.2
				c0.1,0.8-1.5,2.9-1.6,3c1.2-3,0.9-4.7,0.1-5.4C37.7,10.4,42,11.7,42.3,17.3z"/>
		</g>
		<radialGradient id="SVGID_47_" cx="49.9721" cy="43.6389" r="28.3981" gradientUnits="userSpaceOnUse">
			<stop  offset="0" style="stop-color:#FFE300"/>
			<stop  offset="0.2016" style="stop-color:#FFDD00"/>
			<stop  offset="0.4651" style="stop-color:#FFCD00"/>
			<stop  offset="0.7617" style="stop-color:#FFB200"/>
			<stop  offset="1" style="stop-color:#FF9700"/>
		</radialGradient>
		<circle class="st46" cx="50" cy="50.2" r="26.8"/>
		
			<radialGradient id="SVGID_48_" cx="49.972" cy="9.0642" r="16.2486" gradientTransform="matrix(1 0 0 0.9651 0 27.7348)" gradientUnits="userSpaceOnUse">
			<stop  offset="0" style="stop-color:#FFFFFF"/>
			<stop  offset="1" style="stop-color:#FFFFFF;stop-opacity:0"/>
		</radialGradient>
		<ellipse class="st47" cx="50" cy="36.5" rx="18.5" ry="13.2"/>
		
			<radialGradient id="SVGID_49_" cx="50.4873" cy="69.755" r="19.3351" gradientTransform="matrix(1 0 0 0.5438 0 31.8219)" gradientUnits="userSpaceOnUse">
			<stop  offset="0" style="stop-color:#FFA600"/>
			<stop  offset="1" style="stop-color:#FFFFFF"/>
		</radialGradient>
		<path class="st48" d="M50.6,71.1c-9.5,0-17.4-5.1-18.4-11.7c-0.2,0.7-0.3,1.4-0.3,2.2c0,7.3,8.3,13.2,18.5,13.2
			c10.2,0,18.5-5.9,18.5-13.2c0-0.5,0-1-0.1-1.5C67.4,66.4,59.8,71.1,50.6,71.1z"/>
	</g>
</g>
</svg>
